<svg width="34" height="34" viewBox="0 0 34 34" fill="none" xmlns="http://www.w3.org/2000/svg">
<g clip-path="url(#clip0_504_1932)">
<path d="M33.9999 25.5005H31.875V27.6254H33.9999V25.5005Z" fill="#111111"/>
<path d="M33.9999 23.3757H31.875V25.5005H33.9999V23.3757Z" fill="#111111"/>
<path d="M33.9999 21.2508H31.875V23.3757H33.9999V21.2508Z" fill="#111111"/>
<path d="M33.9999 6.3746H31.875V8.49947H33.9999V6.3746Z" fill="#111111"/>
<path d="M31.8754 27.6254H29.7505V29.7503H31.8754V27.6254Z" fill="#111111"/>
<path d="M31.8754 25.5005H29.7505V27.6254H31.8754V25.5005Z" fill="#FFD31B"/>
<path d="M31.8754 23.3757H29.7505V25.5005H31.8754V23.3757Z" fill="#FFD31B"/>
<path d="M31.8754 21.2508H29.7505V23.3757H31.8754V21.2508Z" fill="#FFD31B"/>
<path d="M31.8754 19.1238H29.7505V21.2508H31.8754V19.1238Z" fill="#111111"/>
<path d="M31.8754 6.3746H29.7505V8.49947H31.8754V6.3746Z" fill="#111111"/>
<path d="M29.7504 29.7503H27.6255V31.8751H29.7504V29.7503Z" fill="#111111"/>
<path d="M29.7504 27.6254H27.6255V29.7503H29.7504V27.6254Z" fill="#FFD31B"/>
<path d="M29.7504 25.5005H27.6255V27.6254H29.7504V25.5005Z" fill="#FFD31B"/>
<path d="M29.7504 23.3757H27.6255V25.5005H29.7504V23.3757Z" fill="#FFD31B"/>
<path d="M29.7504 21.2508H27.6255V23.3757H29.7504V21.2508Z" fill="#FFD31B"/>
<path d="M29.7504 19.1238H27.6255V21.2508H29.7504V19.1238Z" fill="#FFD31B"/>
<path d="M29.7504 16.9989H27.6255V19.1238H29.7504V16.9989Z" fill="#111111"/>
<path d="M29.7504 4.24973H27.6255V6.37459H29.7504V4.24973Z" fill="#111111"/>
<path d="M27.6254 31.8751H25.5005V34H27.6254V31.8751Z" fill="#111111"/>
<path d="M27.6254 29.7503H25.5005V31.8751H27.6254V29.7503Z" fill="#FFD31B"/>
<path d="M27.6254 27.6254H25.5005V29.7503H27.6254V27.6254Z" fill="#FFD31B"/>
<path d="M27.6254 25.5005H25.5005V27.6254H27.6254V25.5005Z" fill="#FFD31B"/>
<path d="M27.6254 23.3757H25.5005V25.5005H27.6254V23.3757Z" fill="#FFD31B"/>
<path d="M27.6254 21.2508H25.5005V23.3757H27.6254V21.2508Z" fill="#FFD31B"/>
<path d="M27.6254 19.1238H25.5005V21.2508H27.6254V19.1238Z" fill="#FFD31B"/>
<path d="M27.6254 16.9989H25.5005V19.1238H27.6254V16.9989Z" fill="#FFD31B"/>
<path d="M27.6254 14.8741H25.5005V16.9989H27.6254V14.8741Z" fill="#111111"/>
<path d="M27.6254 2.12486H25.5005V4.24973H27.6254V2.12486Z" fill="#111111"/>
<path d="M25.5004 31.8751H23.3755V34H25.5004V31.8751Z" fill="#111111"/>
<path d="M25.5004 29.7503H23.3755V31.8751H25.5004V29.7503Z" fill="#111111"/>
<path d="M25.5004 27.6254H23.3755V29.7503H25.5004V27.6254Z" fill="#111111"/>
<path d="M25.5004 25.5005H23.3755V27.6254H25.5004V25.5005Z" fill="#111111"/>
<path d="M25.5004 23.3757H23.3755V25.5005H25.5004V23.3757Z" fill="#111111"/>
<path d="M25.5004 21.2508H23.3755V23.3757H25.5004V21.2508Z" fill="#111111"/>
<path d="M25.5004 19.1238H23.3755V21.2508H25.5004V19.1238Z" fill="#111111"/>
<path d="M25.5004 16.9989H23.3755V19.1238H25.5004V16.9989Z" fill="#111111"/>
<path d="M25.5004 14.8741H23.3755V16.9989H25.5004V14.8741Z" fill="#111111"/>
<path d="M25.5004 12.7492H23.3755V14.8741H25.5004V12.7492Z" fill="#111111"/>
<path d="M25.5004 10.6243H23.3755V12.7492H25.5004V10.6243Z" fill="#111111"/>
<path d="M25.5004 8.49947H23.3755V10.6243H25.5004V8.49947Z" fill="#111111"/>
<path d="M25.5004 6.3746H23.3755V8.49947H25.5004V6.3746Z" fill="#111111"/>
<path d="M25.5004 4.24973H23.3755V6.37459H25.5004V4.24973Z" fill="#111111"/>
<path d="M25.5004 2.12486H23.3755V4.24973H25.5004V2.12486Z" fill="#111111"/>
<path d="M23.3758 31.8751H21.251V34H23.3758V31.8751Z" fill="#111111"/>
<path d="M23.3758 29.7503H21.251V31.8751H23.3758V29.7503Z" fill="#FA4E50"/>
<path d="M23.3758 27.6254H21.251V29.7503H23.3758V27.6254Z" fill="#FA4E50"/>
<path d="M23.3758 25.5005H21.251V27.6254H23.3758V25.5005Z" fill="#FA4E50"/>
<path d="M23.3758 23.3757H21.251V25.5005H23.3758V23.3757Z" fill="#FA4E50"/>
<path d="M23.3758 21.2508H21.251V23.3757H23.3758V21.2508Z" fill="#FFD31B"/>
<path d="M23.3758 19.1238H21.251V21.2508H23.3758V19.1238Z" fill="#FA4E50"/>
<path d="M23.3758 16.9989H21.251V19.1238H23.3758V16.9989Z" fill="#FA4E50"/>
<path d="M23.3758 14.8741H21.251V16.9989H23.3758V14.8741Z" fill="#FA4E50"/>
<path d="M23.3758 12.7492H21.251V14.8741H23.3758V12.7492Z" fill="#FA4E50"/>
<path d="M23.3758 10.6243H21.251V12.7492H23.3758V10.6243Z" fill="#FA4E50"/>
<path d="M23.3758 8.49947H21.251V10.6243H23.3758V8.49947Z" fill="#FA4E50"/>
<path d="M23.3758 6.3746H21.251V8.49947H23.3758V6.3746Z" fill="#FA4E50"/>
<path d="M23.3758 4.24973H21.251V6.37459H23.3758V4.24973Z" fill="#FA4E50"/>
<path d="M23.3758 2.12486H21.251V4.24973H23.3758V2.12486Z" fill="#FA4E50"/>
<path d="M23.3758 0H21.251V2.12487H23.3758V0Z" fill="#111111"/>
<path d="M21.2508 31.8751H19.126V34H21.2508V31.8751Z" fill="#111111"/>
<path d="M21.2508 29.7503H19.126V31.8751H21.2508V29.7503Z" fill="#FA4E50"/>
<path d="M21.2508 27.6254H19.126V29.7503H21.2508V27.6254Z" fill="#FA4E50"/>
<path d="M21.2508 25.5005H19.126V27.6254H21.2508V25.5005Z" fill="#FA4E50"/>
<path d="M21.2508 23.3757H19.126V25.5005H21.2508V23.3757Z" fill="#FFD31B"/>
<path d="M21.2508 21.2508H19.126V23.3757H21.2508V21.2508Z" fill="#FFD31B"/>
<path d="M21.2508 19.1238H19.126V21.2508H21.2508V19.1238Z" fill="#FFD31B"/>
<path d="M21.2508 16.9989H19.126V19.1238H21.2508V16.9989Z" fill="#FA4E50"/>
<path d="M21.2508 14.8741H19.126V16.9989H21.2508V14.8741Z" fill="#FA4E50"/>
<path d="M21.2508 12.7492H19.126V14.8741H21.2508V12.7492Z" fill="#FA4E50"/>
<path d="M21.2508 10.6243H19.126V12.7492H21.2508V10.6243Z" fill="#FA4E50"/>
<path d="M21.2508 8.49947H19.126V10.6243H21.2508V8.49947Z" fill="#FA4E50"/>
<path d="M21.2508 6.3746H19.126V8.49947H21.2508V6.3746Z" fill="#FA4E50"/>
<path d="M21.2508 4.24973H19.126V6.37459H21.2508V4.24973Z" fill="#FA4E50"/>
<path d="M21.2508 2.12486H19.126V4.24973H21.2508V2.12486Z" fill="#FA4E50"/>
<path d="M21.2508 0H19.126V2.12487H21.2508V0Z" fill="#111111"/>
<path d="M19.1258 31.8751H17.001V34H19.1258V31.8751Z" fill="#111111"/>
<path d="M19.1258 29.7503H17.001V31.8751H19.1258V29.7503Z" fill="#FA4E50"/>
<path d="M19.1258 27.6254H17.001V29.7503H19.1258V27.6254Z" fill="#FA4E50"/>
<path d="M19.1258 25.5005H17.001V27.6254H19.1258V25.5005Z" fill="#FFD31B"/>
<path d="M19.1258 23.3757H17.001V25.5005H19.1258V23.3757Z" fill="#FFD31B"/>
<path d="M19.1258 21.2508H17.001V23.3757H19.1258V21.2508Z" fill="#FFD31B"/>
<path d="M19.1258 19.1238H17.001V21.2508H19.1258V19.1238Z" fill="#FFD31B"/>
<path d="M19.1258 16.9989H17.001V19.1238H19.1258V16.9989Z" fill="#FFD31B"/>
<path d="M19.1258 14.8741H17.001V16.9989H19.1258V14.8741Z" fill="#FA4E50"/>
<path d="M19.1258 12.7492H17.001V14.8741H19.1258V12.7492Z" fill="#FA4E50"/>
<path d="M19.1258 10.6243H17.001V12.7492H19.1258V10.6243Z" fill="#FA4E50"/>
<path d="M19.1258 8.49947H17.001V10.6243H19.1258V8.49947Z" fill="#FA4E50"/>
<path d="M19.1258 6.3746H17.001V8.49947H19.1258V6.3746Z" fill="#FA4E50"/>
<path d="M19.1258 4.24973H17.001V6.37459H19.1258V4.24973Z" fill="#FA4E50"/>
<path d="M19.1258 2.12486H17.001V4.24973H19.1258V2.12486Z" fill="#FA4E50"/>
<path d="M19.1258 0H17.001V2.12487H19.1258V0Z" fill="#111111"/>
<path d="M17.001 31.8751H14.874V34H17.001V31.8751Z" fill="#111111"/>
<path d="M17.001 29.7503H14.874V31.8751H17.001V29.7503Z" fill="#FA4E50"/>
<path d="M17.001 27.6254H14.874V29.7503H17.001V27.6254Z" fill="#FA4E50"/>
<path d="M17.001 25.5005H14.874V27.6254H17.001V25.5005Z" fill="#FFD31B"/>
<path d="M17.001 23.3757H14.874V25.5005H17.001V23.3757Z" fill="#FFD31B"/>
<path d="M17.001 21.2508H14.874V23.3757H17.001V21.2508Z" fill="#FFD31B"/>
<path d="M17.001 19.1238H14.874V21.2508H17.001V19.1238Z" fill="#FFD31B"/>
<path d="M17.001 16.9989H14.874V19.1238H17.001V16.9989Z" fill="#FFD31B"/>
<path d="M17.001 14.8741H14.874V16.9989H17.001V14.8741Z" fill="#FA4E50"/>
<path d="M17.001 12.7492H14.874V14.8741H17.001V12.7492Z" fill="#FA4E50"/>
<path d="M17.001 10.6243H14.874V12.7492H17.001V10.6243Z" fill="#FA4E50"/>
<path d="M17.001 8.49947H14.874V10.6243H17.001V8.49947Z" fill="#FA4E50"/>
<path d="M17.001 6.3746H14.874V8.49947H17.001V6.3746Z" fill="#FA4E50"/>
<path d="M17.001 4.24973H14.874V6.37459H17.001V4.24973Z" fill="#FA4E50"/>
<path d="M17.001 2.12486H14.874V4.24973H17.001V2.12486Z" fill="#FA4E50"/>
<path d="M17.001 0H14.874V2.12487H17.001V0Z" fill="#111111"/>
<path d="M14.8739 31.8751H12.749V34H14.8739V31.8751Z" fill="#111111"/>
<path d="M14.8739 29.7503H12.749V31.8751H14.8739V29.7503Z" fill="#FA4E50"/>
<path d="M14.8739 27.6254H12.749V29.7503H14.8739V27.6254Z" fill="#FA4E50"/>
<path d="M14.8739 25.5005H12.749V27.6254H14.8739V25.5005Z" fill="#FA4E50"/>
<path d="M14.8739 23.3757H12.749V25.5005H14.8739V23.3757Z" fill="#FFD31B"/>
<path d="M14.8739 21.2508H12.749V23.3757H14.8739V21.2508Z" fill="#FFD31B"/>
<path d="M14.8739 19.1238H12.749V21.2508H14.8739V19.1238Z" fill="#FFD31B"/>
<path d="M14.8739 16.9989H12.749V19.1238H14.8739V16.9989Z" fill="#FA4E50"/>
<path d="M14.8739 14.8741H12.749V16.9989H14.8739V14.8741Z" fill="#FA4E50"/>
<path d="M14.8739 12.7492H12.749V14.8741H14.8739V12.7492Z" fill="#FA4E50"/>
<path d="M14.8739 10.6243H12.749V12.7492H14.8739V10.6243Z" fill="#FA4E50"/>
<path d="M14.8739 8.49947H12.749V10.6243H14.8739V8.49947Z" fill="#FA4E50"/>
<path d="M14.8739 6.3746H12.749V8.49947H14.8739V6.3746Z" fill="#FA4E50"/>
<path d="M14.8739 4.24973H12.749V6.37459H14.8739V4.24973Z" fill="#FA4E50"/>
<path d="M14.8739 2.12486H12.749V4.24973H14.8739V2.12486Z" fill="#FA4E50"/>
<path d="M14.8739 0H12.749V2.12487H14.8739V0Z" fill="#111111"/>
<path d="M12.7494 31.8751H10.6245V34H12.7494V31.8751Z" fill="#111111"/>
<path d="M12.7494 29.7503H10.6245V31.8751H12.7494V29.7503Z" fill="#FA4E50"/>
<path d="M12.7494 27.6254H10.6245V29.7503H12.7494V27.6254Z" fill="#FA4E50"/>
<path d="M12.7494 25.5005H10.6245V27.6254H12.7494V25.5005Z" fill="#FA4E50"/>
<path d="M12.7494 23.3757H10.6245V25.5005H12.7494V23.3757Z" fill="#FA4E50"/>
<path d="M12.7494 21.2508H10.6245V23.3757H12.7494V21.2508Z" fill="#FFD31B"/>
<path d="M12.7494 19.1238H10.6245V21.2508H12.7494V19.1238Z" fill="#FA4E50"/>
<path d="M12.7494 16.9989H10.6245V19.1238H12.7494V16.9989Z" fill="#FA4E50"/>
<path d="M12.7494 14.8741H10.6245V16.9989H12.7494V14.8741Z" fill="#FA4E50"/>
<path d="M12.7494 12.7492H10.6245V14.8741H12.7494V12.7492Z" fill="#FA4E50"/>
<path d="M12.7494 10.6243H10.6245V12.7492H12.7494V10.6243Z" fill="#FA4E50"/>
<path d="M12.7494 8.49947H10.6245V10.6243H12.7494V8.49947Z" fill="#FA4E50"/>
<path d="M12.7494 6.3746H10.6245V8.49947H12.7494V6.3746Z" fill="#FA4E50"/>
<path d="M12.7494 4.24973H10.6245V6.37459H12.7494V4.24973Z" fill="#FA4E50"/>
<path d="M12.7494 2.12486H10.6245V4.24973H12.7494V2.12486Z" fill="#FA4E50"/>
<path d="M12.7494 0H10.6245V2.12487H12.7494V0Z" fill="#111111"/>
<path d="M10.6244 31.8751H8.49951V34H10.6244V31.8751Z" fill="#111111"/>
<path d="M10.6244 29.7503H8.49951V31.8751H10.6244V29.7503Z" fill="#111111"/>
<path d="M10.6244 27.6254H8.49951V29.7503H10.6244V27.6254Z" fill="#111111"/>
<path d="M10.6244 25.5005H8.49951V27.6254H10.6244V25.5005Z" fill="#111111"/>
<path d="M10.6244 23.3757H8.49951V25.5005H10.6244V23.3757Z" fill="#111111"/>
<path d="M10.6244 21.2508H8.49951V23.3757H10.6244V21.2508Z" fill="#111111"/>
<path d="M10.6244 19.1238H8.49951V21.2508H10.6244V19.1238Z" fill="#111111"/>
<path d="M10.6244 16.9989H8.49951V19.1238H10.6244V16.9989Z" fill="#111111"/>
<path d="M10.6244 14.8741H8.49951V16.9989H10.6244V14.8741Z" fill="#111111"/>
<path d="M10.6244 12.7492H8.49951V14.8741H10.6244V12.7492Z" fill="#111111"/>
<path d="M10.6244 10.6243H8.49951V12.7492H10.6244V10.6243Z" fill="#111111"/>
<path d="M10.6244 8.49947H8.49951V10.6243H10.6244V8.49947Z" fill="#111111"/>
<path d="M10.6244 6.3746H8.49951V8.49947H10.6244V6.3746Z" fill="#111111"/>
<path d="M10.6244 4.24973H8.49951V6.37459H10.6244V4.24973Z" fill="#111111"/>
<path d="M10.6244 2.12486H8.49951V4.24973H10.6244V2.12486Z" fill="#111111"/>
<path d="M8.49938 31.8751H6.37451V34H8.49938V31.8751Z" fill="#111111"/>
<path d="M8.49938 29.7503H6.37451V31.8751H8.49938V29.7503Z" fill="#FFD31B"/>
<path d="M8.49938 27.6254H6.37451V29.7503H8.49938V27.6254Z" fill="#FFD31B"/>
<path d="M8.49938 25.5005H6.37451V27.6254H8.49938V25.5005Z" fill="#FFD31B"/>
<path d="M8.49938 23.3757H6.37451V25.5005H8.49938V23.3757Z" fill="#FFD31B"/>
<path d="M8.49938 21.2508H6.37451V23.3757H8.49938V21.2508Z" fill="#FFD31B"/>
<path d="M8.49938 19.1238H6.37451V21.2508H8.49938V19.1238Z" fill="#FFD31B"/>
<path d="M8.49938 16.9989H6.37451V19.1238H8.49938V16.9989Z" fill="#FFD31B"/>
<path d="M8.49938 14.8741H6.37451V16.9989H8.49938V14.8741Z" fill="#111111"/>
<path d="M8.49938 2.12486H6.37451V4.24973H8.49938V2.12486Z" fill="#111111"/>
<path d="M6.37438 29.7503H4.24951V31.8751H6.37438V29.7503Z" fill="#111111"/>
<path d="M6.37438 27.6254H4.24951V29.7503H6.37438V27.6254Z" fill="#FFD31B"/>
<path d="M6.37438 25.5005H4.24951V27.6254H6.37438V25.5005Z" fill="#FFD31B"/>
<path d="M6.37438 23.3757H4.24951V25.5005H6.37438V23.3757Z" fill="#FFD31B"/>
<path d="M6.37438 21.2508H4.24951V23.3757H6.37438V21.2508Z" fill="#FFD31B"/>
<path d="M6.37438 19.1238H4.24951V21.2508H6.37438V19.1238Z" fill="#FFD31B"/>
<path d="M6.37438 16.9989H4.24951V19.1238H6.37438V16.9989Z" fill="#111111"/>
<path d="M6.37438 4.24973H4.24951V6.37459H6.37438V4.24973Z" fill="#111111"/>
<path d="M4.24987 27.6254H2.125V29.7503H4.24987V27.6254Z" fill="#111111"/>
<path d="M4.24987 25.5005H2.125V27.6254H4.24987V25.5005Z" fill="#FFD31B"/>
<path d="M4.24987 23.3757H2.125V25.5005H4.24987V23.3757Z" fill="#FFD31B"/>
<path d="M4.24987 21.2508H2.125V23.3757H4.24987V21.2508Z" fill="#FFD31B"/>
<path d="M4.24987 19.1238H2.125V21.2508H4.24987V19.1238Z" fill="#111111"/>
<path d="M4.24987 6.3746H2.125V8.49947H4.24987V6.3746Z" fill="#111111"/>
<path d="M2.12487 25.5005H0V27.6254H2.12487V25.5005Z" fill="#111111"/>
<path d="M2.12487 23.3757H0V25.5005H2.12487V23.3757Z" fill="#111111"/>
<path d="M2.12487 21.2508H0V23.3757H2.12487V21.2508Z" fill="#111111"/>
<path d="M2.12487 6.3746H0V8.49947H2.12487V6.3746Z" fill="#111111"/>
</g>
<defs>
<clipPath id="clip0_504_1932">
<rect width="34" height="34" fill="white"/>
</clipPath>
</defs>
</svg>
