<svg width="22" height="23" viewBox="0 0 22 23" fill="none" xmlns="http://www.w3.org/2000/svg">
<g clip-path="url(#clip0_349_300)">
<path d="M15.5296 1.27734H14.2344V2.55627H15.5296V1.27734Z" fill="#111111"/>
<path d="M15.5296 6.38965H14.2344V7.66728H15.5296V6.38965Z" fill="#111111"/>
<path d="M18.1182 7.66699H16.8242V8.94463H18.1182V7.66699Z" fill="#111111"/>
<path d="M20.7061 6.38965H19.4121V7.66728H20.7061V6.38965Z" fill="#111111"/>
<path d="M21.999 3.83398H20.7051V5.11162H21.999V3.83398Z" fill="#111111"/>
<path d="M20.7061 1.27734H19.4121V2.55627H20.7061V1.27734Z" fill="#111111"/>
<path d="M18.1182 0H16.8242V1.27763H18.1182V0Z" fill="#111111"/>
<path d="M18.1182 5.1123H16.8242V6.38994H18.1182V5.1123Z" fill="#111111"/>
<path d="M19.4112 3.83398H18.1172V5.11162H19.4112V3.83398Z" fill="#111111"/>
<path d="M18.1182 2.55664H16.8242V3.83427H18.1182V2.55664Z" fill="#111111"/>
<path d="M16.8233 16.6123H15.5293V17.8899H16.8233V16.6123Z" fill="#111111"/>
<path d="M16.8233 15.334H15.5293V16.6116H16.8233V15.334Z" fill="#111111"/>
<path d="M16.8233 14.0557H15.5293V15.3346H16.8233V14.0557Z" fill="#111111"/>
<path d="M16.8233 12.7773H15.5293V14.055H16.8233V12.7773Z" fill="#111111"/>
<path d="M16.8233 3.83398H15.5293V5.11162H16.8233V3.83398Z" fill="#111111"/>
<path d="M15.5296 19.167H14.2344V20.4446H15.5296V19.167Z" fill="#111111"/>
<path d="M15.5296 17.8896H14.2344V19.1673H15.5296V17.8896Z" fill="#111111"/>
<path d="M15.5296 16.6123H14.2344V17.8899H15.5296V16.6123Z" fill="#111111"/>
<path d="M15.5296 15.334H14.2344V16.6116H15.5296V15.334Z" fill="#111111"/>
<path d="M15.5296 14.0557H14.2344V15.3346H15.5296V14.0557Z" fill="#111111"/>
<path d="M15.5296 12.7773H14.2344V14.055H15.5296V12.7773Z" fill="#111111"/>
<path d="M15.5296 11.5H14.2344V12.7776H15.5296V11.5Z" fill="#111111"/>
<path d="M15.5296 10.2227H14.2344V11.5003H15.5296V10.2227Z" fill="#111111"/>
<path d="M15.5296 3.83398H14.2344V5.11162H15.5296V3.83398Z" fill="#111111"/>
<path d="M14.2354 20.4443H12.9414V21.722H14.2354V20.4443Z" fill="#111111"/>
<path d="M14.2354 19.167H12.9414V20.4446H14.2354V19.167Z" fill="#111111"/>
<path d="M14.2354 17.8896H12.9414V19.1673H14.2354V17.8896Z" fill="#111111"/>
<path d="M14.2354 16.6123H12.9414V17.8899H14.2354V16.6123Z" fill="#111111"/>
<path d="M14.2354 15.334H12.9414V16.6116H14.2354V15.334Z" fill="#111111"/>
<path d="M14.2354 14.0557H12.9414V15.3346H14.2354V14.0557Z" fill="#111111"/>
<path d="M14.2354 12.7773H12.9414V14.055H14.2354V12.7773Z" fill="#111111"/>
<path d="M14.2354 11.5H12.9414V12.7776H14.2354V11.5Z" fill="#111111"/>
<path d="M14.2354 10.2227H12.9414V11.5003H14.2354V10.2227Z" fill="#111111"/>
<path d="M14.2354 8.94434H12.9414V10.222H14.2354V8.94434Z" fill="#111111"/>
<path d="M14.2354 2.55664H12.9414V3.83427H14.2354V2.55664Z" fill="#111111"/>
<path d="M12.9404 20.4443H11.6465V21.722H12.9404V20.4443Z" fill="#111111"/>
<path d="M12.9404 19.167H11.6465V20.4446H12.9404V19.167Z" fill="#111111"/>
<path d="M12.9404 17.8896H11.6465V19.1673H12.9404V17.8896Z" fill="#111111"/>
<path d="M12.9404 16.6123H11.6465V17.8899H12.9404V16.6123Z" fill="#111111"/>
<path d="M12.9404 15.334H11.6465V16.6116H12.9404V15.334Z" fill="#111111"/>
<path d="M12.9404 14.0557H11.6465V15.3346H12.9404V14.0557Z" fill="#111111"/>
<path d="M12.9404 12.7773H11.6465V14.055H12.9404V12.7773Z" fill="#111111"/>
<path d="M12.9404 11.5H11.6465V12.7776H12.9404V11.5Z" fill="white"/>
<path d="M12.9404 10.2227H11.6465V11.5003H12.9404V10.2227Z" fill="#111111"/>
<path d="M12.9404 8.94434H11.6465V10.222H12.9404V8.94434Z" fill="#111111"/>
<path d="M12.9404 1.27734H11.6465V2.55627H12.9404V1.27734Z" fill="#111111"/>
<path d="M11.6475 21.7227H10.3535V23.0003H11.6475V21.7227Z" fill="#111111"/>
<path d="M11.6475 20.4443H10.3535V21.722H11.6475V20.4443Z" fill="#111111"/>
<path d="M11.6475 19.167H10.3535V20.4446H11.6475V19.167Z" fill="#111111"/>
<path d="M11.6475 17.8896H10.3535V19.1673H11.6475V17.8896Z" fill="#111111"/>
<path d="M11.6475 16.6123H10.3535V17.8899H11.6475V16.6123Z" fill="#111111"/>
<path d="M11.6475 15.334H10.3535V16.6116H11.6475V15.334Z" fill="#111111"/>
<path d="M11.6475 14.0557H10.3535V15.3346H11.6475V14.0557Z" fill="#111111"/>
<path d="M11.6475 12.7773H10.3535V14.055H11.6475V12.7773Z" fill="white"/>
<path d="M11.6475 11.5H10.3535V12.7776H11.6475V11.5Z" fill="#111111"/>
<path d="M11.6475 10.2227H10.3535V11.5003H11.6475V10.2227Z" fill="#111111"/>
<path d="M11.6475 8.94434H10.3535V10.222H11.6475V8.94434Z" fill="#111111"/>
<path d="M11.6475 7.66699H10.3535V8.94463H11.6475V7.66699Z" fill="#111111"/>
<path d="M11.6475 1.27734H10.3535V2.55627H11.6475V1.27734Z" fill="#111111"/>
<path d="M10.3526 21.7227H9.05859V23.0003H10.3526V21.7227Z" fill="#111111"/>
<path d="M10.3526 20.4443H9.05859V21.722H10.3526V20.4443Z" fill="#111111"/>
<path d="M10.3526 19.167H9.05859V20.4446H10.3526V19.167Z" fill="#111111"/>
<path d="M10.3526 17.8896H9.05859V19.1673H10.3526V17.8896Z" fill="#111111"/>
<path d="M10.3526 16.6123H9.05859V17.8899H10.3526V16.6123Z" fill="#111111"/>
<path d="M10.3526 15.334H9.05859V16.6116H10.3526V15.334Z" fill="#111111"/>
<path d="M10.3526 14.0557H9.05859V15.3346H10.3526V14.0557Z" fill="#111111"/>
<path d="M10.3526 12.7773H9.05859V14.055H10.3526V12.7773Z" fill="white"/>
<path d="M10.3526 11.5H9.05859V12.7776H10.3526V11.5Z" fill="#111111"/>
<path d="M10.3526 10.2227H9.05859V11.5003H10.3526V10.2227Z" fill="#111111"/>
<path d="M10.3526 8.94434H9.05859V10.222H10.3526V8.94434Z" fill="#111111"/>
<path d="M10.3526 7.66699H9.05859V8.94463H10.3526V7.66699Z" fill="#111111"/>
<path d="M10.3526 6.38965H9.05859V7.66728H10.3526V6.38965Z" fill="#111111"/>
<path d="M10.3526 2.55664H9.05859V3.83427H10.3526V2.55664Z" fill="#111111"/>
<path d="M9.05959 21.7227H7.76562V23.0003H9.05959V21.7227Z" fill="#111111"/>
<path d="M9.05959 20.4443H7.76562V21.722H9.05959V20.4443Z" fill="#111111"/>
<path d="M9.05959 19.167H7.76562V20.4446H9.05959V19.167Z" fill="#111111"/>
<path d="M9.05959 17.8896H7.76562V19.1673H9.05959V17.8896Z" fill="#111111"/>
<path d="M9.05959 16.6123H7.76562V17.8899H9.05959V16.6123Z" fill="#111111"/>
<path d="M9.05959 15.334H7.76562V16.6116H9.05959V15.334Z" fill="#111111"/>
<path d="M9.05959 14.0557H7.76562V15.3346H9.05959V14.0557Z" fill="#111111"/>
<path d="M9.05959 12.7773H7.76562V14.055H9.05959V12.7773Z" fill="white"/>
<path d="M9.05959 11.5H7.76562V12.7776H9.05959V11.5Z" fill="#111111"/>
<path d="M9.05959 10.2227H7.76562V11.5003H9.05959V10.2227Z" fill="#111111"/>
<path d="M9.05959 8.94434H7.76562V10.222H9.05959V8.94434Z" fill="#111111"/>
<path d="M9.05959 7.66699H7.76562V8.94463H9.05959V7.66699Z" fill="#111111"/>
<path d="M9.05959 6.38965H7.76562V7.66728H9.05959V6.38965Z" fill="#111111"/>
<path d="M9.05959 5.1123H7.76562V6.38994H9.05959V5.1123Z" fill="#111111"/>
<path d="M9.05959 3.83398H7.76562V5.11162H9.05959V3.83398Z" fill="#111111"/>
<path d="M7.76467 21.7227H6.4707V23.0003H7.76467V21.7227Z" fill="#111111"/>
<path d="M7.76467 20.4443H6.4707V21.722H7.76467V20.4443Z" fill="#111111"/>
<path d="M7.76467 19.167H6.4707V20.4446H7.76467V19.167Z" fill="#111111"/>
<path d="M7.76467 17.8896H6.4707V19.1673H7.76467V17.8896Z" fill="#111111"/>
<path d="M7.76467 16.6123H6.4707V17.8899H7.76467V16.6123Z" fill="#111111"/>
<path d="M7.76467 15.334H6.4707V16.6116H7.76467V15.334Z" fill="#111111"/>
<path d="M7.76467 14.0557H6.4707V15.3346H7.76467V14.0557Z" fill="#111111"/>
<path d="M7.76467 12.7773H6.4707V14.055H7.76467V12.7773Z" fill="#111111"/>
<path d="M7.76467 11.5H6.4707V12.7776H7.76467V11.5Z" fill="white"/>
<path d="M7.76467 10.2227H6.4707V11.5003H7.76467V10.2227Z" fill="#111111"/>
<path d="M7.76467 8.94434H6.4707V10.222H7.76467V8.94434Z" fill="#111111"/>
<path d="M7.76467 7.66699H6.4707V8.94463H7.76467V7.66699Z" fill="#111111"/>
<path d="M7.76467 6.38965H6.4707V7.66728H7.76467V6.38965Z" fill="#111111"/>
<path d="M6.4717 21.7227H5.17773V23.0003H6.4717V21.7227Z" fill="#111111"/>
<path d="M6.4717 20.4443H5.17773V21.722H6.4717V20.4443Z" fill="#111111"/>
<path d="M6.4717 19.167H5.17773V20.4446H6.4717V19.167Z" fill="#111111"/>
<path d="M6.4717 17.8896H5.17773V19.1673H6.4717V17.8896Z" fill="#111111"/>
<path d="M6.4717 16.6123H5.17773V17.8899H6.4717V16.6123Z" fill="#111111"/>
<path d="M6.4717 15.334H5.17773V16.6116H6.4717V15.334Z" fill="#111111"/>
<path d="M6.4717 14.0557H5.17773V15.3346H6.4717V14.0557Z" fill="#111111"/>
<path d="M6.4717 12.7773H5.17773V14.055H6.4717V12.7773Z" fill="#111111"/>
<path d="M6.4717 11.5H5.17773V12.7776H6.4717V11.5Z" fill="#111111"/>
<path d="M6.4717 10.2227H5.17773V11.5003H6.4717V10.2227Z" fill="#111111"/>
<path d="M6.4717 8.94434H5.17773V10.222H6.4717V8.94434Z" fill="#111111"/>
<path d="M6.4717 7.66699H5.17773V8.94463H6.4717V7.66699Z" fill="#111111"/>
<path d="M5.17678 20.4443H3.88281V21.722H5.17678V20.4443Z" fill="#111111"/>
<path d="M5.17678 19.167H3.88281V20.4446H5.17678V19.167Z" fill="#111111"/>
<path d="M5.17678 17.8896H3.88281V19.1673H5.17678V17.8896Z" fill="#111111"/>
<path d="M5.17678 16.6123H3.88281V17.8899H5.17678V16.6123Z" fill="#111111"/>
<path d="M5.17678 15.334H3.88281V16.6116H5.17678V15.334Z" fill="#111111"/>
<path d="M5.17678 14.0557H3.88281V15.3346H5.17678V14.0557Z" fill="#111111"/>
<path d="M5.17678 12.7773H3.88281V14.055H5.17678V12.7773Z" fill="#111111"/>
<path d="M5.17678 11.5H3.88281V12.7776H5.17678V11.5Z" fill="#111111"/>
<path d="M5.17678 10.2227H3.88281V11.5003H5.17678V10.2227Z" fill="#111111"/>
<path d="M5.17678 8.94434H3.88281V10.222H5.17678V8.94434Z" fill="#111111"/>
<path d="M3.88381 20.4443H2.58984V21.722H3.88381V20.4443Z" fill="#111111"/>
<path d="M3.88381 19.167H2.58984V20.4446H3.88381V19.167Z" fill="#111111"/>
<path d="M3.88381 17.8896H2.58984V19.1673H3.88381V17.8896Z" fill="#111111"/>
<path d="M3.88381 16.6123H2.58984V17.8899H3.88381V16.6123Z" fill="#111111"/>
<path d="M3.88381 15.334H2.58984V16.6116H3.88381V15.334Z" fill="#111111"/>
<path d="M3.88381 14.0557H2.58984V15.3346H3.88381V14.0557Z" fill="#111111"/>
<path d="M3.88381 12.7773H2.58984V14.055H3.88381V12.7773Z" fill="#111111"/>
<path d="M3.88381 11.5H2.58984V12.7776H3.88381V11.5Z" fill="#111111"/>
<path d="M3.88381 10.2227H2.58984V11.5003H3.88381V10.2227Z" fill="#111111"/>
<path d="M3.88381 8.94434H2.58984V10.222H3.88381V8.94434Z" fill="#111111"/>
<path d="M2.59019 19.167H1.29492V20.4446H2.59019V19.167Z" fill="#111111"/>
<path d="M2.59019 17.8896H1.29492V19.1673H2.59019V17.8896Z" fill="#111111"/>
<path d="M2.59019 16.6123H1.29492V17.8899H2.59019V16.6123Z" fill="#111111"/>
<path d="M2.59019 15.334H1.29492V16.6116H2.59019V15.334Z" fill="#111111"/>
<path d="M2.59019 14.0557H1.29492V15.3346H2.59019V14.0557Z" fill="#111111"/>
<path d="M2.59019 12.7773H1.29492V14.055H2.59019V12.7773Z" fill="#111111"/>
<path d="M2.59019 11.5H1.29492V12.7776H2.59019V11.5Z" fill="#111111"/>
<path d="M2.59019 10.2227H1.29492V11.5003H2.59019V10.2227Z" fill="#111111"/>
<path d="M1.29396 16.6123H0V17.8899H1.29396V16.6123Z" fill="#111111"/>
<path d="M1.29396 15.334H0V16.6116H1.29396V15.334Z" fill="#111111"/>
<path d="M1.29396 14.0557H0V15.3346H1.29396V14.0557Z" fill="#111111"/>
<path d="M1.29396 12.7773H0V14.055H1.29396V12.7773Z" fill="#111111"/>
</g>
<defs>
<clipPath id="clip0_349_300">
<rect width="22" height="23" fill="white"/>
</clipPath>
</defs>
</svg>
