<svg width="15" height="20" viewBox="0 0 15 20" fill="none" xmlns="http://www.w3.org/2000/svg">
<g clip-path="url(#clip0_299_3177)">
<path d="M15 16.4708H13.8452V17.6472H15V16.4708Z" fill="#111111"/>
<path d="M15 15.2944H13.8452V16.4708H15V15.2944Z" fill="#111111"/>
<path d="M15 14.118H13.8452V15.2944H15V14.118Z" fill="#111111"/>
<path d="M13.8451 17.6472H12.6914V18.8236H13.8451V17.6472Z" fill="#111111"/>
<path d="M13.8451 16.4708H12.6914V17.6472H13.8451V16.4708Z" fill="white"/>
<path d="M13.8451 15.2944H12.6914V16.4708H13.8451V15.2944Z" fill="white"/>
<path d="M13.8451 14.118H12.6914V15.2944H13.8451V14.118Z" fill="white"/>
<path d="M13.8451 12.9416H12.6914V14.118H13.8451V12.9416Z" fill="#111111"/>
<path d="M13.8451 11.7652H12.6914V12.9416H13.8451V11.7652Z" fill="#111111"/>
<path d="M13.8451 9.41119H12.6914V10.5888H13.8451V9.41119Z" fill="#111111"/>
<path d="M13.8451 8.2348H12.6914V9.4112H13.8451V8.2348Z" fill="#111111"/>
<path d="M13.8451 7.05841H12.6914V8.23481H13.8451V7.05841Z" fill="#111111"/>
<path d="M13.8451 5.88202H12.6914V7.05842H13.8451V5.88202Z" fill="#111111"/>
<path d="M13.8451 4.70563H12.6914V5.88203H13.8451V4.70563Z" fill="#111111"/>
<path d="M13.8451 3.52917H12.6914V4.70558H13.8451V3.52917Z" fill="#111111"/>
<path d="M13.8451 2.35278H12.6914V3.52918H13.8451V2.35278Z" fill="#111111"/>
<path d="M13.8451 1.17639H12.6914V2.35279H13.8451V1.17639Z" fill="#111111"/>
<path d="M12.6915 18.8236H11.5378V20H12.6915V18.8236Z" fill="#111111"/>
<path d="M12.6915 17.6472H11.5378V18.8236H12.6915V17.6472Z" fill="white"/>
<path d="M12.6915 16.4708H11.5378V17.6472H12.6915V16.4708Z" fill="white"/>
<path d="M12.6915 15.2944H11.5378V16.4708H12.6915V15.2944Z" fill="white"/>
<path d="M12.6915 14.118H11.5378V15.2944H12.6915V14.118Z" fill="white"/>
<path d="M12.6915 12.9416H11.5378V14.118H12.6915V12.9416Z" fill="white"/>
<path d="M12.6915 11.7652H11.5378V12.9416H12.6915V11.7652Z" fill="white"/>
<path d="M12.6915 10.5888H11.5378V11.7652H12.6915V10.5888Z" fill="#111111"/>
<path d="M12.6915 9.41119H11.5378V10.5888H12.6915V9.41119Z" fill="white"/>
<path d="M12.6915 8.2348H11.5378V9.4112H12.6915V8.2348Z" fill="white"/>
<path d="M12.6915 7.05841H11.5378V8.23481H12.6915V7.05841Z" fill="white"/>
<path d="M12.6915 5.88202H11.5378V7.05842H12.6915V5.88202Z" fill="white"/>
<path d="M12.6915 4.70563H11.5378V5.88203H12.6915V4.70563Z" fill="white"/>
<path d="M12.6915 3.52917H11.5378V4.70558H12.6915V3.52917Z" fill="white"/>
<path d="M12.6915 2.35278H11.5378V3.52918H12.6915V2.35278Z" fill="white"/>
<path d="M12.6915 1.17639H11.5378V2.35279H12.6915V1.17639Z" fill="#111111"/>
<path d="M12.6915 0H11.5378V1.1764H12.6915V0Z" fill="#111111"/>
<path d="M11.5379 18.8236H10.3843V20H11.5379V18.8236Z" fill="#111111"/>
<path d="M11.5379 17.6472H10.3843V18.8236H11.5379V17.6472Z" fill="white"/>
<path d="M11.5379 16.4708H10.3843V17.6472H11.5379V16.4708Z" fill="white"/>
<path d="M11.5379 15.2944H10.3843V16.4708H11.5379V15.2944Z" fill="#111111"/>
<path d="M11.5379 14.118H10.3843V15.2944H11.5379V14.118Z" fill="#111111"/>
<path d="M11.5379 12.9416H10.3843V14.118H11.5379V12.9416Z" fill="white"/>
<path d="M11.5379 11.7652H10.3843V12.9416H11.5379V11.7652Z" fill="white"/>
<path d="M11.5379 10.5888H10.3843V11.7652H11.5379V10.5888Z" fill="white"/>
<path d="M11.5379 9.41119H10.3843V10.5888H11.5379V9.41119Z" fill="white"/>
<path d="M11.5379 8.2348H10.3843V9.4112H11.5379V8.2348Z" fill="white"/>
<path d="M11.5379 7.05841H10.3843V8.23481H11.5379V7.05841Z" fill="white"/>
<path d="M11.5379 5.88202H10.3843V7.05842H11.5379V5.88202Z" fill="white"/>
<path d="M11.5379 4.70563H10.3843V5.88203H11.5379V4.70563Z" fill="white"/>
<path d="M11.5379 3.52917H10.3843V4.70558H11.5379V3.52917Z" fill="white"/>
<path d="M11.5379 2.35278H10.3843V3.52918H11.5379V2.35278Z" fill="white"/>
<path d="M11.5379 1.17639H10.3843V2.35279H11.5379V1.17639Z" fill="#111111"/>
<path d="M11.5379 0H10.3843V1.1764H11.5379V0Z" fill="#111111"/>
<path d="M10.3841 18.8236H9.23047V20H10.3841V18.8236Z" fill="#111111"/>
<path d="M10.3841 17.6472H9.23047V18.8236H10.3841V17.6472Z" fill="white"/>
<path d="M10.3841 16.4708H9.23047V17.6472H10.3841V16.4708Z" fill="white"/>
<path d="M10.3841 15.2944H9.23047V16.4708H10.3841V15.2944Z" fill="white"/>
<path d="M10.3841 14.118H9.23047V15.2944H10.3841V14.118Z" fill="white"/>
<path d="M10.3841 12.9416H9.23047V14.118H10.3841V12.9416Z" fill="white"/>
<path d="M10.3841 11.7652H9.23047V12.9416H10.3841V11.7652Z" fill="white"/>
<path d="M10.3841 10.5888H9.23047V11.7652H10.3841V10.5888Z" fill="white"/>
<path d="M10.3841 9.41119H9.23047V10.5888H10.3841V9.41119Z" fill="white"/>
<path d="M10.3841 8.2348H9.23047V9.4112H10.3841V8.2348Z" fill="white"/>
<path d="M10.3841 7.05841H9.23047V8.23481H10.3841V7.05841Z" fill="white"/>
<path d="M10.3841 5.88202H9.23047V7.05842H10.3841V5.88202Z" fill="white"/>
<path d="M10.3841 4.70563H9.23047V5.88203H10.3841V4.70563Z" fill="white"/>
<path d="M10.3841 3.52917H9.23047V4.70558H10.3841V3.52917Z" fill="white"/>
<path d="M10.3841 2.35278H9.23047V3.52918H10.3841V2.35278Z" fill="white"/>
<path d="M10.3841 1.17639H9.23047V2.35279H10.3841V1.17639Z" fill="#111111"/>
<path d="M10.3841 0H9.23047V1.1764H10.3841V0Z" fill="#111111"/>
<path d="M9.23057 18.8236H8.0769V20H9.23057V18.8236Z" fill="#111111"/>
<path d="M9.23057 17.6472H8.0769V18.8236H9.23057V17.6472Z" fill="white"/>
<path d="M9.23057 16.4708H8.0769V17.6472H9.23057V16.4708Z" fill="white"/>
<path d="M9.23057 15.2944H8.0769V16.4708H9.23057V15.2944Z" fill="white"/>
<path d="M9.23057 14.118H8.0769V15.2944H9.23057V14.118Z" fill="white"/>
<path d="M9.23057 12.9416H8.0769V14.118H9.23057V12.9416Z" fill="white"/>
<path d="M9.23057 11.7652H8.0769V12.9416H9.23057V11.7652Z" fill="white"/>
<path d="M9.23057 10.5888H8.0769V11.7652H9.23057V10.5888Z" fill="white"/>
<path d="M9.23057 9.41119H8.0769V10.5888H9.23057V9.41119Z" fill="#111111"/>
<path d="M9.23057 8.2348H8.0769V9.4112H9.23057V8.2348Z" fill="#111111"/>
<path d="M9.23057 7.05841H8.0769V8.23481H9.23057V7.05841Z" fill="#111111"/>
<path d="M9.23057 5.88202H8.0769V7.05842H9.23057V5.88202Z" fill="#111111"/>
<path d="M9.23057 4.70563H8.0769V5.88203H9.23057V4.70563Z" fill="#111111"/>
<path d="M9.23057 3.52917H8.0769V4.70558H9.23057V3.52917Z" fill="#111111"/>
<path d="M9.23057 2.35278H8.0769V3.52918H9.23057V2.35278Z" fill="#111111"/>
<path d="M9.23057 1.17639H8.0769V2.35279H9.23057V1.17639Z" fill="#111111"/>
<path d="M8.07676 18.8236H6.9231V20H8.07676V18.8236Z" fill="#111111"/>
<path d="M8.07676 17.6472H6.9231V18.8236H8.07676V17.6472Z" fill="white"/>
<path d="M8.07676 16.4708H6.9231V17.6472H8.07676V16.4708Z" fill="white"/>
<path d="M8.07676 15.2944H6.9231V16.4708H8.07676V15.2944Z" fill="#111111"/>
<path d="M8.07676 14.118H6.9231V15.2944H8.07676V14.118Z" fill="white"/>
<path d="M8.07676 12.9416H6.9231V14.118H8.07676V12.9416Z" fill="white"/>
<path d="M8.07676 11.7652H6.9231V12.9416H8.07676V11.7652Z" fill="white"/>
<path d="M8.07701 10.5888H6.92334V11.7652H8.07701V10.5888Z" fill="white"/>
<path d="M8.14289 9.33331H6.85718V11.1111H8.14289V9.33331Z" fill="white"/>
<path d="M8.07676 8.2348H6.9231V9.4112H8.07676V8.2348Z" fill="#111111"/>
<path d="M6.9232 18.8236H5.76953V20H6.9232V18.8236Z" fill="#111111"/>
<path d="M6.9232 17.6472H5.76953V18.8236H6.9232V17.6472Z" fill="white"/>
<path d="M6.9232 16.4708H5.76953V17.6472H6.9232V16.4708Z" fill="white"/>
<path d="M6.9232 15.2944H5.76953V16.4708H6.9232V15.2944Z" fill="white"/>
<path d="M6.9232 14.118H5.76953V15.2944H6.9232V14.118Z" fill="white"/>
<path d="M6.9232 12.9416H5.76953V14.118H6.9232V12.9416Z" fill="white"/>
<path d="M6.9232 11.7652H5.76953V12.9416H6.9232V11.7652Z" fill="white"/>
<path d="M6.9232 10.5888H5.76953V11.7652H6.9232V10.5888Z" fill="white"/>
<path d="M6.9232 9.41119H5.76953V10.5888H6.9232V9.41119Z" fill="#111111"/>
<path d="M6.9232 8.2348H5.76953V9.4112H6.9232V8.2348Z" fill="#111111"/>
<path d="M6.9232 7.05841H5.76953V8.23481H6.9232V7.05841Z" fill="#111111"/>
<path d="M6.9232 5.88202H5.76953V7.05842H6.9232V5.88202Z" fill="#111111"/>
<path d="M6.9232 4.70563H5.76953V5.88203H6.9232V4.70563Z" fill="#111111"/>
<path d="M6.9232 3.52917H5.76953V4.70558H6.9232V3.52917Z" fill="#111111"/>
<path d="M6.9232 2.35278H5.76953V3.52918H6.9232V2.35278Z" fill="#111111"/>
<path d="M6.9232 1.17639H5.76953V2.35279H6.9232V1.17639Z" fill="#111111"/>
<path d="M5.76939 18.8236H4.61572V20H5.76939V18.8236Z" fill="#111111"/>
<path d="M5.76939 17.6472H4.61572V18.8236H5.76939V17.6472Z" fill="white"/>
<path d="M5.76939 16.4708H4.61572V17.6472H5.76939V16.4708Z" fill="white"/>
<path d="M5.76939 15.2944H4.61572V16.4708H5.76939V15.2944Z" fill="white"/>
<path d="M5.76939 14.118H4.61572V15.2944H5.76939V14.118Z" fill="white"/>
<path d="M5.76939 12.9416H4.61572V14.118H5.76939V12.9416Z" fill="white"/>
<path d="M5.76939 11.7652H4.61572V12.9416H5.76939V11.7652Z" fill="white"/>
<path d="M5.76939 10.5888H4.61572V11.7652H5.76939V10.5888Z" fill="white"/>
<path d="M5.76939 9.41119H4.61572V10.5888H5.76939V9.41119Z" fill="white"/>
<path d="M5.76939 8.2348H4.61572V9.4112H5.76939V8.2348Z" fill="white"/>
<path d="M5.76939 7.05841H4.61572V8.23481H5.76939V7.05841Z" fill="white"/>
<path d="M5.76939 5.88202H4.61572V7.05842H5.76939V5.88202Z" fill="white"/>
<path d="M5.76939 4.70563H4.61572V5.88203H5.76939V4.70563Z" fill="white"/>
<path d="M5.76939 3.52917H4.61572V4.70558H5.76939V3.52917Z" fill="white"/>
<path d="M5.76939 2.35278H4.61572V3.52918H5.76939V2.35278Z" fill="white"/>
<path d="M5.76939 1.17639H4.61572V2.35279H5.76939V1.17639Z" fill="#111111"/>
<path d="M5.76939 0H4.61572V1.1764H5.76939V0Z" fill="#111111"/>
<path d="M4.61583 18.8236H3.46216V20H4.61583V18.8236Z" fill="#111111"/>
<path d="M4.61583 17.6472H3.46216V18.8236H4.61583V17.6472Z" fill="white"/>
<path d="M4.61583 16.4708H3.46216V17.6472H4.61583V16.4708Z" fill="white"/>
<path d="M4.61583 15.2944H3.46216V16.4708H4.61583V15.2944Z" fill="#111111"/>
<path d="M4.61583 14.118H3.46216V15.2944H4.61583V14.118Z" fill="#111111"/>
<path d="M4.61583 12.9416H3.46216V14.118H4.61583V12.9416Z" fill="white"/>
<path d="M4.61583 11.7652H3.46216V12.9416H4.61583V11.7652Z" fill="white"/>
<path d="M4.61583 10.5888H3.46216V11.7652H4.61583V10.5888Z" fill="white"/>
<path d="M4.61583 9.41119H3.46216V10.5888H4.61583V9.41119Z" fill="white"/>
<path d="M4.61583 8.2348H3.46216V9.4112H4.61583V8.2348Z" fill="white"/>
<path d="M4.61583 7.05841H3.46216V8.23481H4.61583V7.05841Z" fill="white"/>
<path d="M4.61583 5.88202H3.46216V7.05842H4.61583V5.88202Z" fill="white"/>
<path d="M4.61583 4.70563H3.46216V5.88203H4.61583V4.70563Z" fill="white"/>
<path d="M4.61583 3.52917H3.46216V4.70558H4.61583V3.52917Z" fill="white"/>
<path d="M4.61583 2.35278H3.46216V3.52918H4.61583V2.35278Z" fill="white"/>
<path d="M4.61583 1.17639H3.46216V2.35279H4.61583V1.17639Z" fill="#111111"/>
<path d="M4.61583 0H3.46216V1.1764H4.61583V0Z" fill="#111111"/>
<path d="M3.46221 18.8236H2.30737V20H3.46221V18.8236Z" fill="#111111"/>
<path d="M3.46221 17.6472H2.30737V18.8236H3.46221V17.6472Z" fill="white"/>
<path d="M3.46221 16.4708H2.30737V17.6472H3.46221V16.4708Z" fill="white"/>
<path d="M3.46221 15.2944H2.30737V16.4708H3.46221V15.2944Z" fill="white"/>
<path d="M3.46221 14.118H2.30737V15.2944H3.46221V14.118Z" fill="white"/>
<path d="M3.46221 12.9416H2.30737V14.118H3.46221V12.9416Z" fill="white"/>
<path d="M3.46221 11.7652H2.30737V12.9416H3.46221V11.7652Z" fill="white"/>
<path d="M3.46221 10.5888H2.30737V11.7652H3.46221V10.5888Z" fill="#111111"/>
<path d="M3.46221 9.41119H2.30737V10.5888H3.46221V9.41119Z" fill="white"/>
<path d="M3.46221 8.2348H2.30737V9.4112H3.46221V8.2348Z" fill="white"/>
<path d="M3.46221 7.05841H2.30737V8.23481H3.46221V7.05841Z" fill="white"/>
<path d="M3.46221 5.88202H2.30737V7.05842H3.46221V5.88202Z" fill="white"/>
<path d="M3.46221 4.70563H2.30737V5.88203H3.46221V4.70563Z" fill="white"/>
<path d="M3.46221 3.52917H2.30737V4.70558H3.46221V3.52917Z" fill="white"/>
<path d="M3.46221 2.35278H2.30737V3.52918H3.46221V2.35278Z" fill="white"/>
<path d="M3.46221 1.17639H2.30737V2.35279H3.46221V1.17639Z" fill="#111111"/>
<path d="M3.46221 0H2.30737V1.1764H3.46221V0Z" fill="#111111"/>
<path d="M2.30723 17.6472H1.15356V18.8236H2.30723V17.6472Z" fill="#111111"/>
<path d="M2.30723 16.4708H1.15356V17.6472H2.30723V16.4708Z" fill="white"/>
<path d="M2.30723 15.2944H1.15356V16.4708H2.30723V15.2944Z" fill="white"/>
<path d="M2.30723 14.118H1.15356V15.2944H2.30723V14.118Z" fill="white"/>
<path d="M2.30723 12.9416H1.15356V14.118H2.30723V12.9416Z" fill="#111111"/>
<path d="M2.30723 11.7652H1.15356V12.9416H2.30723V11.7652Z" fill="#111111"/>
<path d="M2.30723 9.41119H1.15356V10.5888H2.30723V9.41119Z" fill="#111111"/>
<path d="M2.30723 8.2348H1.15356V9.4112H2.30723V8.2348Z" fill="#111111"/>
<path d="M2.30723 7.05841H1.15356V8.23481H2.30723V7.05841Z" fill="#111111"/>
<path d="M2.30723 5.88202H1.15356V7.05842H2.30723V5.88202Z" fill="#111111"/>
<path d="M2.30723 4.70563H1.15356V5.88203H2.30723V4.70563Z" fill="#111111"/>
<path d="M2.30723 3.52917H1.15356V4.70558H2.30723V3.52917Z" fill="#111111"/>
<path d="M2.30723 2.35278H1.15356V3.52918H2.30723V2.35278Z" fill="#111111"/>
<path d="M2.30723 1.17639H1.15356V2.35279H2.30723V1.17639Z" fill="#111111"/>
<path d="M1.15367 16.4708H0V17.6472H1.15367V16.4708Z" fill="#111111"/>
<path d="M1.15367 15.2944H0V16.4708H1.15367V15.2944Z" fill="#111111"/>
<path d="M1.15367 14.118H0V15.2944H1.15367V14.118Z" fill="#111111"/>
</g>
<defs>
<clipPath id="clip0_299_3177">
<rect width="15" height="20" fill="white"/>
</clipPath>
</defs>
</svg>
