<svg width="34" height="34" viewBox="0 0 34 34" fill="none" xmlns="http://www.w3.org/2000/svg">
<g clip-path="url(#clip0_500_8644)">
<path d="M34 22.666H32.1113V24.5547H34V22.666Z" fill="#111111"/>
<path d="M34 20.7773H32.1113V22.666H34V20.7773Z" fill="#111111"/>
<path d="M34 18.8887H32.1113V20.7773H34V18.8887Z" fill="#111111"/>
<path d="M34 17H32.1113V18.8887H34V17Z" fill="#111111"/>
<path d="M34 15.1113H32.1113V17H34V15.1113Z" fill="#111111"/>
<path d="M34 13.2207H32.1113V15.1113H34V13.2207Z" fill="#111111"/>
<path d="M34 11.3321H32.1113V13.2207H34V11.3321Z" fill="#111111"/>
<path d="M34 9.44339H32.1113V11.3321H34V9.44339Z" fill="#111111"/>
<path d="M32.1113 24.5547H30.2227V26.4434H32.1113V24.5547Z" fill="#111111"/>
<path d="M32.1113 22.666H30.2227V24.5547H32.1113V22.666Z" fill="#F6B906"/>
<path d="M32.1113 20.7773H30.2227V22.666H32.1113V20.7773Z" fill="#F6B906"/>
<path d="M32.1113 18.8887H30.2227V20.7773H32.1113V18.8887Z" fill="#F6B906"/>
<path d="M32.1113 17H30.2227V18.8887H32.1113V17Z" fill="#F6B906"/>
<path d="M32.1113 15.1113H30.2227V17H32.1113V15.1113Z" fill="#F6B906"/>
<path d="M32.1113 13.2207H30.2227V15.1113H32.1113V13.2207Z" fill="#F6B906"/>
<path d="M32.1113 11.3321H30.2227V13.2207H32.1113V11.3321Z" fill="#F6B906"/>
<path d="M32.1113 9.44339H30.2227V11.3321H32.1113V9.44339Z" fill="#F6B906"/>
<path d="M32.1113 7.55472H30.2227V9.4434H32.1113V7.55472Z" fill="#111111"/>
<path d="M30.2226 26.4434H28.332V28.3321H30.2226V26.4434Z" fill="#111111"/>
<path d="M30.2226 24.5547H28.332V26.4434H30.2226V24.5547Z" fill="#F6B906"/>
<path d="M30.2226 22.666H28.332V24.5547H30.2226V22.666Z" fill="#F6B906"/>
<path d="M30.2226 20.7773H28.332V22.666H30.2226V20.7773Z" fill="#F6B906"/>
<path d="M30.2226 18.8887H28.332V20.7773H30.2226V18.8887Z" fill="#F6B906"/>
<path d="M30.2226 17H28.332V18.8887H30.2226V17Z" fill="#F6B906"/>
<path d="M30.2226 15.1113H28.332V17H30.2226V15.1113Z" fill="#F6B906"/>
<path d="M30.2226 13.2207H28.332V15.1113H30.2226V13.2207Z" fill="#F6B906"/>
<path d="M30.2226 11.3321H28.332V13.2207H30.2226V11.3321Z" fill="#F6B906"/>
<path d="M30.2226 9.44339H28.332V11.3321H30.2226V9.44339Z" fill="#F6B906"/>
<path d="M30.2226 7.55472H28.332V9.4434H30.2226V7.55472Z" fill="#F6B906"/>
<path d="M30.2226 5.66602H28.332V7.55469H30.2226V5.66602Z" fill="#111111"/>
<path d="M28.332 28.3321H26.4434V30.2207H28.332V28.3321Z" fill="#111111"/>
<path d="M28.332 26.4434H26.4434V28.3321H28.332V26.4434Z" fill="#F6B906"/>
<path d="M28.332 24.5547H26.4434V26.4434H28.332V24.5547Z" fill="#FFD31B"/>
<path d="M28.332 22.666H26.4434V24.5547H28.332V22.666Z" fill="#FFD31B"/>
<path d="M28.332 20.7773H26.4434V22.666H28.332V20.7773Z" fill="#FFD31B"/>
<path d="M28.332 18.8887H26.4434V20.7773H28.332V18.8887Z" fill="#FFD31B"/>
<path d="M28.332 17H26.4434V18.8887H28.332V17Z" fill="#FFD31B"/>
<path d="M28.332 15.1113H26.4434V17H28.332V15.1113Z" fill="#FFD31B"/>
<path d="M28.332 13.2207H26.4434V15.1113H28.332V13.2207Z" fill="#FFD31B"/>
<path d="M28.332 11.3321H26.4434V13.2207H28.332V11.3321Z" fill="#FFD31B"/>
<path d="M28.332 9.44339H26.4434V11.3321H28.332V9.44339Z" fill="#FFD31B"/>
<path d="M28.332 7.55472H26.4434V9.4434H28.332V7.55472Z" fill="#F6B906"/>
<path d="M28.332 5.66602H26.4434V7.55469H28.332V5.66602Z" fill="#F6B906"/>
<path d="M28.332 3.77734H26.4434V5.66602H28.332V3.77734Z" fill="#111111"/>
<path d="M26.4434 30.2207H24.5547V32.1094H26.4434V30.2207Z" fill="#111111"/>
<path d="M26.4434 28.3321H24.5547V30.2207H26.4434V28.3321Z" fill="#F6B906"/>
<path d="M26.4434 26.4434H24.5547V28.3321H26.4434V26.4434Z" fill="#FFD31B"/>
<path d="M26.4434 24.5547H24.5547V26.4434H26.4434V24.5547Z" fill="#FFD31B"/>
<path d="M26.4434 22.666H24.5547V24.5547H26.4434V22.666Z" fill="#FFD31B"/>
<path d="M26.4434 20.7773H24.5547V22.666H26.4434V20.7773Z" fill="#FFD31B"/>
<path d="M26.4434 18.8887H24.5547V20.7773H26.4434V18.8887Z" fill="#FFD31B"/>
<path d="M26.4434 17H24.5547V18.8887H26.4434V17Z" fill="#FFD31B"/>
<path d="M26.4434 15.1113H24.5547V17H26.4434V15.1113Z" fill="#FFD31B"/>
<path d="M26.4434 13.2207H24.5547V15.1113H26.4434V13.2207Z" fill="#FFD31B"/>
<path d="M26.4434 11.3321H24.5547V13.2207H26.4434V11.3321Z" fill="#FFD31B"/>
<path d="M26.4434 9.44339H24.5547V11.3321H26.4434V9.44339Z" fill="#FFD31B"/>
<path d="M26.4434 7.55472H24.5547V9.4434H26.4434V7.55472Z" fill="#F6B906"/>
<path d="M26.4434 5.66602H24.5547V7.55469H26.4434V5.66602Z" fill="#F6B906"/>
<path d="M26.4434 3.77734H24.5547V5.66602H26.4434V3.77734Z" fill="#FEEA22"/>
<path d="M26.4434 1.88867H24.5547V3.77735H26.4434V1.88867Z" fill="#111111"/>
<path d="M24.5547 32.1094H22.666V34H24.5547V32.1094Z" fill="#111111"/>
<path d="M24.5547 30.2207H22.666V32.1094H24.5547V30.2207Z" fill="#F6B906"/>
<path d="M24.5547 28.3321H22.666V30.2207H24.5547V28.3321Z" fill="#F6B906"/>
<path d="M24.5547 26.4434H22.666V28.3321H24.5547V26.4434Z" fill="#FFD31B"/>
<path d="M24.5547 24.5547H22.666V26.4434H24.5547V24.5547Z" fill="#FFD31B"/>
<path d="M24.5547 22.666H22.666V24.5547H24.5547V22.666Z" fill="#FFD31B"/>
<path d="M24.5547 20.7773H22.666V22.666H24.5547V20.7773Z" fill="#FFD31B"/>
<path d="M24.5547 18.8887H22.666V20.7773H24.5547V18.8887Z" fill="#FFD31B"/>
<path d="M24.5547 17H22.666V18.8887H24.5547V17Z" fill="#FFD31B"/>
<path d="M24.5547 15.1113H22.666V17H24.5547V15.1113Z" fill="#FFD31B"/>
<path d="M24.5547 13.2207H22.666V15.1113H24.5547V13.2207Z" fill="#FFD31B"/>
<path d="M24.5547 11.3321H22.666V13.2207H24.5547V11.3321Z" fill="#FFD31B"/>
<path d="M24.5547 9.44339H22.666V11.3321H24.5547V9.44339Z" fill="#FFD31B"/>
<path d="M24.5547 7.55472H22.666V9.4434H24.5547V7.55472Z" fill="#FFD31B"/>
<path d="M24.5547 5.66602H22.666V7.55469H24.5547V5.66602Z" fill="#FFD31B"/>
<path d="M24.5547 3.77734H22.666V5.66602H24.5547V3.77734Z" fill="#FEEA22"/>
<path d="M24.5547 1.88867H22.666V3.77735H24.5547V1.88867Z" fill="#FEEA22"/>
<path d="M24.5547 0H22.666V1.88868H24.5547V0Z" fill="#000101"/>
<path d="M22.666 32.1094H20.7773V34H22.666V32.1094Z" fill="#111111"/>
<path d="M22.666 30.2207H20.7773V32.1094H22.666V30.2207Z" fill="#F6B906"/>
<path d="M22.666 28.3321H20.7773V30.2207H22.666V28.3321Z" fill="#F6B906"/>
<path d="M22.666 26.4434H20.7773V28.3321H22.666V26.4434Z" fill="#FFD31B"/>
<path d="M22.666 24.5547H20.7773V26.4434H22.666V24.5547Z" fill="#FFD31B"/>
<path d="M22.666 22.666H20.7773V24.5547H22.666V22.666Z" fill="white"/>
<path d="M22.666 20.7773H20.7773V22.666H22.666V20.7773Z" fill="white"/>
<path d="M22.666 18.8887H20.7773V20.7773H22.666V18.8887Z" fill="white"/>
<path d="M22.666 17H20.7773V18.8887H22.666V17Z" fill="white"/>
<path d="M22.666 15.1113H20.7773V17H22.666V15.1113Z" fill="white"/>
<path d="M22.666 13.2207H20.7773V15.1113H22.666V13.2207Z" fill="white"/>
<path d="M22.666 11.3321H20.7773V13.2207H22.666V11.3321Z" fill="white"/>
<path d="M22.666 9.44339H20.7773V11.3321H22.666V9.44339Z" fill="white"/>
<path d="M22.666 7.55472H20.7773V9.4434H22.666V7.55472Z" fill="#FFD31B"/>
<path d="M22.666 5.66602H20.7773V7.55469H22.666V5.66602Z" fill="#FFD31B"/>
<path d="M22.666 3.77734H20.7773V5.66602H22.666V3.77734Z" fill="#FEEA22"/>
<path d="M22.666 1.88867H20.7773V3.77735H22.666V1.88867Z" fill="#FEEA22"/>
<path d="M22.666 0H20.7773V1.88868H22.666V0Z" fill="#000101"/>
<path d="M20.7773 32.1094H18.8887V34H20.7773V32.1094Z" fill="#111111"/>
<path d="M20.7773 30.2207H18.8887V32.1094H20.7773V30.2207Z" fill="#F6B906"/>
<path d="M20.7773 28.3321H18.8887V30.2207H20.7773V28.3321Z" fill="#F6B906"/>
<path d="M20.7773 26.4434H18.8887V28.3321H20.7773V26.4434Z" fill="#FFD31B"/>
<path d="M20.7773 24.5547H18.8887V26.4434H20.7773V24.5547Z" fill="white"/>
<path d="M20.7773 22.666H18.8887V24.5547H20.7773V22.666Z" fill="#FFD31B"/>
<path d="M20.7773 20.7773H18.8887V22.666H20.7773V20.7773Z" fill="#FFD31B"/>
<path d="M20.7773 18.8887H18.8887V20.7773H20.7773V18.8887Z" fill="#FFD31B"/>
<path d="M20.7773 17H18.8887V18.8887H20.7773V17Z" fill="#FFD31B"/>
<path d="M20.7773 15.1113H18.8887V17H20.7773V15.1113Z" fill="#FFD31B"/>
<path d="M20.7773 13.2207H18.8887V15.1113H20.7773V13.2207Z" fill="#FFD31B"/>
<path d="M20.7773 11.3321H18.8887V13.2207H20.7773V11.3321Z" fill="#FFD31B"/>
<path d="M20.7773 9.44339H18.8887V11.3321H20.7773V9.44339Z" fill="#FFD31B"/>
<path d="M20.7773 7.55472H18.8887V9.4434H20.7773V7.55472Z" fill="#D19C00"/>
<path d="M20.7773 5.66602H18.8887V7.55469H20.7773V5.66602Z" fill="#FFD31B"/>
<path d="M20.7773 3.77734H18.8887V5.66602H20.7773V3.77734Z" fill="#FEEA22"/>
<path d="M20.7773 1.88867H18.8887V3.77735H20.7773V1.88867Z" fill="#FEEA22"/>
<path d="M20.7773 0H18.8887V1.88868H20.7773V0Z" fill="#000101"/>
<path d="M18.8887 32.1094H17V34H18.8887V32.1094Z" fill="#111111"/>
<path d="M18.8887 30.2207H17V32.1094H18.8887V30.2207Z" fill="#F6B906"/>
<path d="M18.8887 28.3321H17V30.2207H18.8887V28.3321Z" fill="#F6B906"/>
<path d="M18.8887 26.4434H17V28.3321H18.8887V26.4434Z" fill="#FFD31B"/>
<path d="M18.8887 24.5547H17V26.4434H18.8887V24.5547Z" fill="white"/>
<path d="M18.8887 22.666H17V24.5547H18.8887V22.666Z" fill="#FFD31B"/>
<path d="M18.8887 20.7773H17V22.666H18.8887V20.7773Z" fill="#FFD31B"/>
<path d="M18.8887 18.8887H17V20.7773H18.8887V18.8887Z" fill="#FFD31B"/>
<path d="M18.8887 17H17V18.8887H18.8887V17Z" fill="#FFD31B"/>
<path d="M18.8887 15.1113H17V17H18.8887V15.1113Z" fill="#FFD31B"/>
<path d="M18.8887 13.2207H17V15.1113H18.8887V13.2207Z" fill="#FFD31B"/>
<path d="M18.8887 11.3321H17V13.2207H18.8887V11.3321Z" fill="#FFD31B"/>
<path d="M18.8887 9.44339H17V11.3321H18.8887V9.44339Z" fill="#FFD31B"/>
<path d="M18.8887 7.55472H17V9.4434H18.8887V7.55472Z" fill="#D19C00"/>
<path d="M18.8887 5.66602H17V7.55469H18.8887V5.66602Z" fill="#FFD31B"/>
<path d="M18.8887 3.77734H17V5.66602H18.8887V3.77734Z" fill="#FEEA22"/>
<path d="M18.8887 1.88867H17V3.77735H18.8887V1.88867Z" fill="#FEEA22"/>
<path d="M18.8887 0H17V1.88868H18.8887V0Z" fill="#000101"/>
<path d="M17 32.1094H15.1113V34H17V32.1094Z" fill="#111111"/>
<path d="M17 30.2207H15.1113V32.1094H17V30.2207Z" fill="#F6B906"/>
<path d="M17 28.3321H15.1113V30.2207H17V28.3321Z" fill="#F6B906"/>
<path d="M17 26.4434H15.1113V28.3321H17V26.4434Z" fill="#FFD31B"/>
<path d="M17 24.5547H15.1113V26.4434H17V24.5547Z" fill="white"/>
<path d="M17 22.666H15.1113V24.5547H17V22.666Z" fill="#FFD31B"/>
<path d="M17 20.7773H15.1113V22.666H17V20.7773Z" fill="#FFD31B"/>
<path d="M17 18.8887H15.1113V20.7773H17V18.8887Z" fill="#FFD31B"/>
<path d="M17 17H15.1113V18.8887H17V17Z" fill="#FFD31B"/>
<path d="M17 15.1113H15.1113V17H17V15.1113Z" fill="#FFD31B"/>
<path d="M17 13.2207H15.1113V15.1113H17V13.2207Z" fill="#FFD31B"/>
<path d="M17 11.3321H15.1113V13.2207H17V11.3321Z" fill="#FFD31B"/>
<path d="M17 9.44339H15.1113V11.3321H17V9.44339Z" fill="#FFD31B"/>
<path d="M17 7.55472H15.1113V9.4434H17V7.55472Z" fill="#D19C00"/>
<path d="M17 5.66602H15.1113V7.55469H17V5.66602Z" fill="#FFD31B"/>
<path d="M17 3.77734H15.1113V5.66602H17V3.77734Z" fill="#FEEA22"/>
<path d="M17 1.88867H15.1113V3.77735H17V1.88867Z" fill="#FEEA22"/>
<path d="M17 0H15.1113V1.88868H17V0Z" fill="#000101"/>
<path d="M15.1113 32.1094H13.2227V34H15.1113V32.1094Z" fill="#111111"/>
<path d="M15.1113 30.2207H13.2227V32.1094H15.1113V30.2207Z" fill="#F6B906"/>
<path d="M15.1113 28.3321H13.2227V30.2207H15.1113V28.3321Z" fill="#F6B906"/>
<path d="M15.1113 26.4434H13.2227V28.3321H15.1113V26.4434Z" fill="#FFD31B"/>
<path d="M15.1113 24.5547H13.2227V26.4434H15.1113V24.5547Z" fill="white"/>
<path d="M15.1113 22.666H13.2227V24.5547H15.1113V22.666Z" fill="#FFD31B"/>
<path d="M15.1113 20.7773H13.2227V22.666H15.1113V20.7773Z" fill="#FFD31B"/>
<path d="M15.1113 18.8887H13.2227V20.7773H15.1113V18.8887Z" fill="#FFD31B"/>
<path d="M15.1113 17H13.2227V18.8887H15.1113V17Z" fill="#FFD31B"/>
<path d="M15.1113 15.1113H13.2227V17H15.1113V15.1113Z" fill="#FFD31B"/>
<path d="M15.1113 13.2207H13.2227V15.1113H15.1113V13.2207Z" fill="#FFD31B"/>
<path d="M15.1113 11.3321H13.2227V13.2207H15.1113V11.3321Z" fill="#FFD31B"/>
<path d="M15.1113 9.44339H13.2227V11.3321H15.1113V9.44339Z" fill="#FFD31B"/>
<path d="M15.1113 7.55472H13.2227V9.4434H15.1113V7.55472Z" fill="#D19C00"/>
<path d="M15.1113 5.66602H13.2227V7.55469H15.1113V5.66602Z" fill="#FFD31B"/>
<path d="M15.1113 3.77734H13.2227V5.66602H15.1113V3.77734Z" fill="#FEEA22"/>
<path d="M15.1113 1.88867H13.2227V3.77735H15.1113V1.88867Z" fill="#FEEA22"/>
<path d="M15.1113 0H13.2227V1.88868H15.1113V0Z" fill="#000101"/>
<path d="M13.2227 32.1094H11.334V34H13.2227V32.1094Z" fill="#111111"/>
<path d="M13.2227 30.2207H11.334V32.1094H13.2227V30.2207Z" fill="#F6B906"/>
<path d="M13.2227 28.3321H11.334V30.2207H13.2227V28.3321Z" fill="#F6B906"/>
<path d="M13.2227 26.4434H11.334V28.3321H13.2227V26.4434Z" fill="#FFD31B"/>
<path d="M13.2227 24.5547H11.334V26.4434H13.2227V24.5547Z" fill="#FFD31B"/>
<path d="M13.2227 22.666H11.334V24.5547H13.2227V22.666Z" fill="#D19C00"/>
<path d="M13.2227 20.7773H11.334V22.666H13.2227V20.7773Z" fill="#D19C00"/>
<path d="M13.2227 18.8887H11.334V20.7773H13.2227V18.8887Z" fill="#D19C00"/>
<path d="M13.2227 17H11.334V18.8887H13.2227V17Z" fill="#D19C00"/>
<path d="M13.2227 15.1113H11.334V17H13.2227V15.1113Z" fill="#D19C00"/>
<path d="M13.2227 13.2207H11.334V15.1113H13.2227V13.2207Z" fill="#D19C00"/>
<path d="M13.2227 11.3321H11.334V13.2207H13.2227V11.3321Z" fill="#D19C00"/>
<path d="M13.2227 9.44339H11.334V11.3321H13.2227V9.44339Z" fill="#D19C00"/>
<path d="M13.2227 7.55472H11.334V9.4434H13.2227V7.55472Z" fill="#FFD31B"/>
<path d="M13.2227 5.66602H11.334V7.55469H13.2227V5.66602Z" fill="#FEEA22"/>
<path d="M13.2227 3.77734H11.334V5.66602H13.2227V3.77734Z" fill="#FEEA22"/>
<path d="M13.2227 1.88867H11.334V3.77735H13.2227V1.88867Z" fill="#FEEA22"/>
<path d="M13.2227 0H11.334V1.88868H13.2227V0Z" fill="#000101"/>
<path d="M11.3339 32.1094H9.44336V34H11.3339V32.1094Z" fill="#111111"/>
<path d="M11.3339 30.2207H9.44336V32.1094H11.3339V30.2207Z" fill="#F6B906"/>
<path d="M11.3339 28.3321H9.44336V30.2207H11.3339V28.3321Z" fill="#F6B906"/>
<path d="M11.3339 26.4434H9.44336V28.3321H11.3339V26.4434Z" fill="#FFD31B"/>
<path d="M11.3339 24.5547H9.44336V26.4434H11.3339V24.5547Z" fill="#FFD31B"/>
<path d="M11.3339 22.666H9.44336V24.5547H11.3339V22.666Z" fill="#FFD31B"/>
<path d="M11.3339 20.7773H9.44336V22.666H11.3339V20.7773Z" fill="#FFD31B"/>
<path d="M11.3339 18.8887H9.44336V20.7773H11.3339V18.8887Z" fill="#FFD31B"/>
<path d="M11.3339 17H9.44336V18.8887H11.3339V17Z" fill="#FFD31B"/>
<path d="M11.3339 15.1113H9.44336V17H11.3339V15.1113Z" fill="#FFD31B"/>
<path d="M11.3339 13.2207H9.44336V15.1113H11.3339V13.2207Z" fill="#FFD31B"/>
<path d="M11.3339 11.3321H9.44336V13.2207H11.3339V11.3321Z" fill="#FFD31B"/>
<path d="M11.3339 9.44339H9.44336V11.3321H11.3339V9.44339Z" fill="#FFD31B"/>
<path d="M11.3339 7.55472H9.44336V9.4434H11.3339V7.55472Z" fill="#FFD31B"/>
<path d="M11.3339 5.66602H9.44336V7.55469H11.3339V5.66602Z" fill="#FEEA22"/>
<path d="M11.3339 3.77734H9.44336V5.66602H11.3339V3.77734Z" fill="#FEEA22"/>
<path d="M11.3339 1.88867H9.44336V3.77735H11.3339V1.88867Z" fill="#FEEA22"/>
<path d="M11.3339 0H9.44336V1.88868H11.3339V0Z" fill="#000101"/>
<path d="M9.44336 30.2207H7.55469V32.1094H9.44336V30.2207Z" fill="#000101"/>
<path d="M9.44336 28.3321H7.55469V30.2207H9.44336V28.3321Z" fill="#F6B906"/>
<path d="M9.44336 26.4434H7.55469V28.3321H9.44336V26.4434Z" fill="#FEEA22"/>
<path d="M9.44336 24.5547H7.55469V26.4434H9.44336V24.5547Z" fill="#FEEA22"/>
<path d="M9.44336 22.666H7.55469V24.5547H9.44336V22.666Z" fill="#FFD31B"/>
<path d="M9.44336 20.7773H7.55469V22.666H9.44336V20.7773Z" fill="#FFD31B"/>
<path d="M9.44336 18.8887H7.55469V20.7773H9.44336V18.8887Z" fill="#FFD31B"/>
<path d="M9.44336 17H7.55469V18.8887H9.44336V17Z" fill="#FFD31B"/>
<path d="M9.44336 15.1113H7.55469V17H9.44336V15.1113Z" fill="#FFD31B"/>
<path d="M9.44336 13.2207H7.55469V15.1113H9.44336V13.2207Z" fill="#FFD31B"/>
<path d="M9.44336 11.3321H7.55469V13.2207H9.44336V11.3321Z" fill="#FFD31B"/>
<path d="M9.44336 9.44339H7.55469V11.3321H9.44336V9.44339Z" fill="#FEEA22"/>
<path d="M9.44336 7.55472H7.55469V9.4434H9.44336V7.55472Z" fill="#FEEA22"/>
<path d="M9.44336 5.66602H7.55469V7.55469H9.44336V5.66602Z" fill="#FEEA22"/>
<path d="M9.44336 3.77734H7.55469V5.66602H9.44336V3.77734Z" fill="#FEEA22"/>
<path d="M9.44336 1.88867H7.55469V3.77735H9.44336V1.88867Z" fill="#000101"/>
<path d="M7.55469 28.3321H5.66602V30.2207H7.55469V28.3321Z" fill="#000101"/>
<path d="M7.55469 26.4434H5.66602V28.3321H7.55469V26.4434Z" fill="#FEEA22"/>
<path d="M7.55469 24.5547H5.66602V26.4434H7.55469V24.5547Z" fill="#FEEA22"/>
<path d="M7.55469 22.666H5.66602V24.5547H7.55469V22.666Z" fill="#FFD31B"/>
<path d="M7.55469 20.7773H5.66602V22.666H7.55469V20.7773Z" fill="#FFD31B"/>
<path d="M7.55469 18.8887H5.66602V20.7773H7.55469V18.8887Z" fill="#FFD31B"/>
<path d="M7.55469 17H5.66602V18.8887H7.55469V17Z" fill="#FFD31B"/>
<path d="M7.55469 15.1113H5.66602V17H7.55469V15.1113Z" fill="#FFD31B"/>
<path d="M7.55469 13.2207H5.66602V15.1113H7.55469V13.2207Z" fill="#FFD31B"/>
<path d="M7.55469 11.3321H5.66602V13.2207H7.55469V11.3321Z" fill="#FFD31B"/>
<path d="M7.55469 9.44339H5.66602V11.3321H7.55469V9.44339Z" fill="#FEEA22"/>
<path d="M7.55469 7.55472H5.66602V9.4434H7.55469V7.55472Z" fill="#FEEA22"/>
<path d="M7.55469 5.66602H5.66602V7.55469H7.55469V5.66602Z" fill="#FEEA22"/>
<path d="M7.55469 3.77734H5.66602V5.66602H7.55469V3.77734Z" fill="#000101"/>
<path d="M5.66602 26.4434H3.77734V28.3321H5.66602V26.4434Z" fill="#000101"/>
<path d="M5.66602 24.5547H3.77734V26.4434H5.66602V24.5547Z" fill="#FEEA22"/>
<path d="M5.66602 22.666H3.77734V24.5547H5.66602V22.666Z" fill="#FEEA22"/>
<path d="M5.66602 20.7773H3.77734V22.666H5.66602V20.7773Z" fill="#FEEA22"/>
<path d="M5.66602 18.8887H3.77734V20.7773H5.66602V18.8887Z" fill="#FEEA22"/>
<path d="M5.66602 17H3.77734V18.8887H5.66602V17Z" fill="#FEEA22"/>
<path d="M5.66602 15.1113H3.77734V17H5.66602V15.1113Z" fill="#FEEA22"/>
<path d="M5.66602 13.2207H3.77734V15.1113H5.66602V13.2207Z" fill="#FEEA22"/>
<path d="M5.66602 11.3321H3.77734V13.2207H5.66602V11.3321Z" fill="#FEEA22"/>
<path d="M5.66602 9.44339H3.77734V11.3321H5.66602V9.44339Z" fill="#FEEA22"/>
<path d="M5.66602 7.55472H3.77734V9.4434H5.66602V7.55472Z" fill="#FEEA22"/>
<path d="M5.66602 5.66602H3.77734V7.55469H5.66602V5.66602Z" fill="#000101"/>
<path d="M3.77735 24.5547H1.88867V26.4434H3.77735V24.5547Z" fill="#000101"/>
<path d="M3.77735 22.666H1.88867V24.5547H3.77735V22.666Z" fill="#FEEA22"/>
<path d="M3.77735 20.7773H1.88867V22.666H3.77735V20.7773Z" fill="#FEEA22"/>
<path d="M3.77735 18.8887H1.88867V20.7773H3.77735V18.8887Z" fill="#FEEA22"/>
<path d="M3.77735 17H1.88867V18.8887H3.77735V17Z" fill="#FEEA22"/>
<path d="M3.77735 15.1113H1.88867V17H3.77735V15.1113Z" fill="#FEEA22"/>
<path d="M3.77735 13.2207H1.88867V15.1113H3.77735V13.2207Z" fill="#FEEA22"/>
<path d="M3.77735 11.3321H1.88867V13.2207H3.77735V11.3321Z" fill="#FEEA22"/>
<path d="M3.77735 9.44339H1.88867V11.3321H3.77735V9.44339Z" fill="#FEEA22"/>
<path d="M3.77735 7.55472H1.88867V9.4434H3.77735V7.55472Z" fill="#000101"/>
<path d="M1.88868 22.666H0V24.5547H1.88868V22.666Z" fill="#000101"/>
<path d="M1.88868 20.7773H0V22.666H1.88868V20.7773Z" fill="#000101"/>
<path d="M1.88868 18.8887H0V20.7773H1.88868V18.8887Z" fill="#000101"/>
<path d="M1.88868 17H0V18.8887H1.88868V17Z" fill="#000101"/>
<path d="M1.88868 15.1113H0V17H1.88868V15.1113Z" fill="#000101"/>
<path d="M1.88868 13.2207H0V15.1113H1.88868V13.2207Z" fill="#000101"/>
<path d="M1.88868 11.3321H0V13.2207H1.88868V11.3321Z" fill="#000101"/>
<path d="M1.88868 9.44339H0V11.3321H1.88868V9.44339Z" fill="#000101"/>
</g>
<defs>
<clipPath id="clip0_500_8644">
<rect width="34" height="34" fill="white"/>
</clipPath>
</defs>
</svg>
