<svg width="22" height="26" viewBox="0 0 22 26" fill="none" xmlns="http://www.w3.org/2000/svg">
<g clip-path="url(#clip0_471_9164)">
<path d="M22 19.7131H20.4287V21.286H22V19.7131Z" fill="#111111"/>
<path d="M22 18.1418H20.4287V19.7132H22V18.1418Z" fill="#111111"/>
<path d="M22 16.5705H20.4287V18.1418H22V16.5705Z" fill="#111111"/>
<path d="M22 14.9992H20.4287V16.5705H22V14.9992Z" fill="#111111"/>
<path d="M22 13.4279H20.4287V14.9992H22V13.4279Z" fill="#111111"/>
<path d="M20.4287 21.2861H18.8574V22.8574H20.4287V21.2861Z" fill="#111111"/>
<path d="M20.4287 19.7131H18.8574V21.286H20.4287V19.7131Z" fill="#3DC55B"/>
<path d="M20.4287 18.1418H18.8574V19.7132H20.4287V18.1418Z" fill="#3DC55B"/>
<path d="M20.4287 16.5705H18.8574V18.1418H20.4287V16.5705Z" fill="#3DC55B"/>
<path d="M20.4287 14.9992H18.8574V16.5705H20.4287V14.9992Z" fill="#111111"/>
<path d="M20.4287 13.4279H18.8574V14.9992H20.4287V13.4279Z" fill="#FC373B"/>
<path d="M20.4287 11.8566H18.8574V13.4279H20.4287V11.8566Z" fill="#111111"/>
<path d="M18.8574 22.8574H17.2861V24.4287H18.8574V22.8574Z" fill="#111111"/>
<path d="M18.8574 21.2861H17.2861V22.8574H18.8574V21.2861Z" fill="#3DC55B"/>
<path d="M18.8574 19.7131H17.2861V21.286H18.8574V19.7131Z" fill="#3DC55B"/>
<path d="M18.8574 18.1418H17.2861V19.7132H18.8574V18.1418Z" fill="#3DC55B"/>
<path d="M18.8574 16.5705H17.2861V18.1418H18.8574V16.5705Z" fill="#3DC55B"/>
<path d="M18.8574 14.9992H17.2861V16.5705H18.8574V14.9992Z" fill="#111111"/>
<path d="M18.8574 13.4279H17.2861V14.9992H18.8574V13.4279Z" fill="#FC373B"/>
<path d="M18.8574 11.8566H17.2861V13.4279H18.8574V11.8566Z" fill="#FC373B"/>
<path d="M18.8574 10.2853H17.2861V11.8566H18.8574V10.2853Z" fill="#111111"/>
<path d="M18.8574 3.99841H17.2861V5.57132H18.8574V3.99841Z" fill="#111111"/>
<path d="M17.2862 24.4286H15.7148V26H17.2862V24.4286Z" fill="#111111"/>
<path d="M17.2862 22.8574H15.7148V24.4287H17.2862V22.8574Z" fill="#3D72FF"/>
<path d="M17.2862 21.2861H15.7148V22.8574H17.2862V21.2861Z" fill="#111111"/>
<path d="M17.2862 19.7131H15.7148V21.286H17.2862V19.7131Z" fill="#111111"/>
<path d="M17.2862 18.1418H15.7148V19.7132H17.2862V18.1418Z" fill="#3DC55B"/>
<path d="M17.2862 16.5705H15.7148V18.1418H17.2862V16.5705Z" fill="#111111"/>
<path d="M17.2862 14.9992H15.7148V16.5705H17.2862V14.9992Z" fill="#111111"/>
<path d="M17.2862 13.4279H15.7148V14.9992H17.2862V13.4279Z" fill="#FC373B"/>
<path d="M17.2862 11.8566H15.7148V13.4279H17.2862V11.8566Z" fill="#FC373B"/>
<path d="M17.2862 10.2853H15.7148V11.8566H17.2862V10.2853Z" fill="#FC373B"/>
<path d="M17.2862 8.71393H15.7148V10.2852H17.2862V8.71393Z" fill="#111111"/>
<path d="M17.2862 5.57129H15.7148V7.1426H17.2862V5.57129Z" fill="#111111"/>
<path d="M17.2862 3.99841H15.7148V5.57132H17.2862V3.99841Z" fill="#FC373B"/>
<path d="M17.2862 2.42706H15.7148V3.99838H17.2862V2.42706Z" fill="#111111"/>
<path d="M15.7146 24.4286H14.1433V26H15.7146V24.4286Z" fill="#111111"/>
<path d="M15.7146 22.8574H14.1433V24.4287H15.7146V22.8574Z" fill="#3D72FF"/>
<path d="M15.7146 21.2861H14.1433V22.8574H15.7146V21.2861Z" fill="#3D72FF"/>
<path d="M15.7146 19.7131H14.1433V21.286H15.7146V19.7131Z" fill="#3D72FF"/>
<path d="M15.7146 18.1418H14.1433V19.7132H15.7146V18.1418Z" fill="#111111"/>
<path d="M15.7146 16.5705H14.1433V18.1418H15.7146V16.5705Z" fill="#FFF271"/>
<path d="M15.7146 14.9992H14.1433V16.5705H15.7146V14.9992Z" fill="#FFF271"/>
<path d="M15.7146 13.4279H14.1433V14.9992H15.7146V13.4279Z" fill="#111111"/>
<path d="M15.7146 11.8566H14.1433V13.4279H15.7146V11.8566Z" fill="#FC373B"/>
<path d="M15.7146 10.2853H14.1433V11.8566H15.7146V10.2853Z" fill="#FC373B"/>
<path d="M15.7146 8.71393H14.1433V10.2852H15.7146V8.71393Z" fill="#111111"/>
<path d="M15.7146 7.14264H14.1433V8.71395H15.7146V7.14264Z" fill="#111111"/>
<path d="M15.7146 5.57129H14.1433V7.1426H15.7146V5.57129Z" fill="#FC373B"/>
<path d="M15.7146 3.99841H14.1433V5.57132H15.7146V3.99841Z" fill="#FC373B"/>
<path d="M15.7146 2.42706H14.1433V3.99838H15.7146V2.42706Z" fill="#111111"/>
<path d="M14.1433 24.4286H12.572V26H14.1433V24.4286Z" fill="#111111"/>
<path d="M14.1433 22.8574H12.572V24.4287H14.1433V22.8574Z" fill="#3D72FF"/>
<path d="M14.1433 21.2861H12.572V22.8574H14.1433V21.2861Z" fill="#3D72FF"/>
<path d="M14.1433 19.7131H12.572V21.286H14.1433V19.7131Z" fill="#111111"/>
<path d="M14.1433 18.1418H12.572V19.7132H14.1433V18.1418Z" fill="#FFF271"/>
<path d="M14.1433 16.5705H12.572V18.1418H14.1433V16.5705Z" fill="#FFF271"/>
<path d="M14.1433 14.9992H12.572V16.5705H14.1433V14.9992Z" fill="#FFF271"/>
<path d="M14.1433 13.4279H12.572V14.9992H14.1433V13.4279Z" fill="#FFF271"/>
<path d="M14.1433 11.8566H12.572V13.4279H14.1433V11.8566Z" fill="#111111"/>
<path d="M14.1433 10.2853H12.572V11.8566H14.1433V10.2853Z" fill="#FC373B"/>
<path d="M14.1433 8.71393H12.572V10.2852H14.1433V8.71393Z" fill="#FC373B"/>
<path d="M14.1433 7.14264H12.572V8.71395H14.1433V7.14264Z" fill="#111111"/>
<path d="M14.1433 5.57129H12.572V7.1426H14.1433V5.57129Z" fill="#FC373B"/>
<path d="M14.1433 3.99841H12.572V5.57132H14.1433V3.99841Z" fill="#111111"/>
<path d="M14.1433 2.42706H12.572V3.99838H14.1433V2.42706Z" fill="#111111"/>
<path d="M14.1433 0.855774H12.572V2.42709H14.1433V0.855774Z" fill="#111111"/>
<path d="M12.5722 24.4286H10.9993V26H12.5722V24.4286Z" fill="#111111"/>
<path d="M12.5722 22.8574H10.9993V24.4287H12.5722V22.8574Z" fill="#3D72FF"/>
<path d="M12.5722 21.2861H10.9993V22.8574H12.5722V21.2861Z" fill="#111111"/>
<path d="M12.5722 19.7131H10.9993V21.286H12.5722V19.7131Z" fill="#FFF271"/>
<path d="M12.5722 18.1418H10.9993V19.7132H12.5722V18.1418Z" fill="#FFF271"/>
<path d="M12.5722 16.5705H10.9993V18.1418H12.5722V16.5705Z" fill="#FFF271"/>
<path d="M12.5722 14.9992H10.9993V16.5705H12.5722V14.9992Z" fill="#FFF271"/>
<path d="M12.5722 13.4279H10.9993V14.9992H12.5722V13.4279Z" fill="#FFF271"/>
<path d="M12.5722 11.8566H10.9993V13.4279H12.5722V11.8566Z" fill="#FFF271"/>
<path d="M12.5722 10.2853H10.9993V11.8566H12.5722V10.2853Z" fill="#111111"/>
<path d="M12.5722 8.71393H10.9993V10.2852H12.5722V8.71393Z" fill="#FC373B"/>
<path d="M12.5722 7.14264H10.9993V8.71395H12.5722V7.14264Z" fill="#111111"/>
<path d="M12.5722 5.57129H10.9993V7.1426H12.5722V5.57129Z" fill="#FC373B"/>
<path d="M12.5722 3.99841H10.9993V5.57132H12.5722V3.99841Z" fill="#FC373B"/>
<path d="M12.5722 2.42706H10.9993V3.99838H12.5722V2.42706Z" fill="#FC373B"/>
<path d="M12.5722 0.855774H10.9993V2.42709H12.5722V0.855774Z" fill="#111111"/>
<path d="M10.9993 24.4286H9.42798V26H10.9993V24.4286Z" fill="#111111"/>
<path d="M10.9993 22.8574H9.42798V24.4287H10.9993V22.8574Z" fill="#3D72FF"/>
<path d="M10.9993 21.2861H9.42798V22.8574H10.9993V21.2861Z" fill="#111111"/>
<path d="M10.9993 19.7131H9.42798V21.286H10.9993V19.7131Z" fill="#FFF271"/>
<path d="M10.9993 18.1418H9.42798V19.7132H10.9993V18.1418Z" fill="#FFF271"/>
<path d="M10.9993 16.5705H9.42798V18.1418H10.9993V16.5705Z" fill="#FFF271"/>
<path d="M10.9993 14.9992H9.42798V16.5705H10.9993V14.9992Z" fill="#FFF271"/>
<path d="M10.9993 13.4279H9.42798V14.9992H10.9993V13.4279Z" fill="#FFF271"/>
<path d="M10.9993 11.8566H9.42798V13.4279H10.9993V11.8566Z" fill="#FFF271"/>
<path d="M10.9993 10.2853H9.42798V11.8566H10.9993V10.2853Z" fill="#111111"/>
<path d="M10.9993 8.71393H9.42798V10.2852H10.9993V8.71393Z" fill="#FC373B"/>
<path d="M10.9993 7.14264H9.42798V8.71395H10.9993V7.14264Z" fill="#111111"/>
<path d="M10.9993 5.57129H9.42798V7.1426H10.9993V5.57129Z" fill="#FC373B"/>
<path d="M10.9993 3.99841H9.42798V5.57132H10.9993V3.99841Z" fill="#FC373B"/>
<path d="M10.9993 2.42706H9.42798V3.99838H10.9993V2.42706Z" fill="#FC373B"/>
<path d="M10.9993 0.855774H9.42798V2.42709H10.9993V0.855774Z" fill="#111111"/>
<path d="M9.428 24.4286H7.85669V26H9.428V24.4286Z" fill="#111111"/>
<path d="M9.428 22.8574H7.85669V24.4287H9.428V22.8574Z" fill="#3D72FF"/>
<path d="M9.428 21.2861H7.85669V22.8574H9.428V21.2861Z" fill="#3D72FF"/>
<path d="M9.428 19.7131H7.85669V21.286H9.428V19.7131Z" fill="#111111"/>
<path d="M9.428 18.1418H7.85669V19.7132H9.428V18.1418Z" fill="#FFF271"/>
<path d="M9.428 16.5705H7.85669V18.1418H9.428V16.5705Z" fill="#FFF271"/>
<path d="M9.428 14.9992H7.85669V16.5705H9.428V14.9992Z" fill="#FFF271"/>
<path d="M9.428 13.4279H7.85669V14.9992H9.428V13.4279Z" fill="#FFF271"/>
<path d="M9.428 11.8566H7.85669V13.4279H9.428V11.8566Z" fill="#111111"/>
<path d="M9.428 10.2853H7.85669V11.8566H9.428V10.2853Z" fill="#FC373B"/>
<path d="M9.428 8.71393H7.85669V10.2852H9.428V8.71393Z" fill="#FC373B"/>
<path d="M9.428 7.14264H7.85669V8.71395H9.428V7.14264Z" fill="#111111"/>
<path d="M9.428 5.57129H7.85669V7.1426H9.428V5.57129Z" fill="#FC373B"/>
<path d="M9.428 3.99841H7.85669V5.57132H9.428V3.99841Z" fill="#111111"/>
<path d="M9.428 2.42706H7.85669V3.99838H9.428V2.42706Z" fill="#111111"/>
<path d="M9.428 0.855774H7.85669V2.42709H9.428V0.855774Z" fill="#111111"/>
<path d="M7.85647 24.4286H6.28516V26H7.85647V24.4286Z" fill="#111111"/>
<path d="M7.85647 22.8574H6.28516V24.4287H7.85647V22.8574Z" fill="#3D72FF"/>
<path d="M7.85647 21.2861H6.28516V22.8574H7.85647V21.2861Z" fill="#3D72FF"/>
<path d="M7.85647 19.7131H6.28516V21.286H7.85647V19.7131Z" fill="#3D72FF"/>
<path d="M7.85647 18.1418H6.28516V19.7132H7.85647V18.1418Z" fill="#111111"/>
<path d="M7.85647 16.5705H6.28516V18.1418H7.85647V16.5705Z" fill="#FFF271"/>
<path d="M7.85647 14.9992H6.28516V16.5705H7.85647V14.9992Z" fill="#FFF271"/>
<path d="M7.85647 13.4279H6.28516V14.9992H7.85647V13.4279Z" fill="#111111"/>
<path d="M7.85647 11.8566H6.28516V13.4279H7.85647V11.8566Z" fill="#FC373B"/>
<path d="M7.85647 10.2853H6.28516V11.8566H7.85647V10.2853Z" fill="#FC373B"/>
<path d="M7.85647 8.71393H6.28516V10.2852H7.85647V8.71393Z" fill="#111111"/>
<path d="M7.85647 7.14264H6.28516V8.71395H7.85647V7.14264Z" fill="#111111"/>
<path d="M7.85647 5.57129H6.28516V7.1426H7.85647V5.57129Z" fill="#FC373B"/>
<path d="M7.85647 3.99841H6.28516V5.57132H7.85647V3.99841Z" fill="#FC373B"/>
<path d="M7.85647 2.42706H6.28516V3.99838H7.85647V2.42706Z" fill="#111111"/>
<path d="M6.28518 24.4286H4.71387V26H6.28518V24.4286Z" fill="#111111"/>
<path d="M6.28518 22.8574H4.71387V24.4287H6.28518V22.8574Z" fill="#3D72FF"/>
<path d="M6.28518 21.2861H4.71387V22.8574H6.28518V21.2861Z" fill="#111111"/>
<path d="M6.28518 19.7131H4.71387V21.286H6.28518V19.7131Z" fill="#111111"/>
<path d="M6.28518 18.1418H4.71387V19.7132H6.28518V18.1418Z" fill="#3DC55B"/>
<path d="M6.28518 16.5705H4.71387V18.1418H6.28518V16.5705Z" fill="#111111"/>
<path d="M6.28518 14.9992H4.71387V16.5705H6.28518V14.9992Z" fill="#111111"/>
<path d="M6.28518 13.4279H4.71387V14.9992H6.28518V13.4279Z" fill="#FC373B"/>
<path d="M6.28518 11.8566H4.71387V13.4279H6.28518V11.8566Z" fill="#FC373B"/>
<path d="M6.28518 10.2853H4.71387V11.8566H6.28518V10.2853Z" fill="#FC373B"/>
<path d="M6.28518 8.71393H4.71387V10.2852H6.28518V8.71393Z" fill="#111111"/>
<path d="M6.28518 5.57129H4.71387V7.1426H6.28518V5.57129Z" fill="#111111"/>
<path d="M6.28518 3.99841H4.71387V5.57132H6.28518V3.99841Z" fill="#FC373B"/>
<path d="M6.28518 2.42706H4.71387V3.99838H6.28518V2.42706Z" fill="#111111"/>
<path d="M4.71389 22.8574H3.14258V24.4287H4.71389V22.8574Z" fill="#111111"/>
<path d="M4.71389 21.2861H3.14258V22.8574H4.71389V21.2861Z" fill="#3DC55B"/>
<path d="M4.71389 19.7131H3.14258V21.286H4.71389V19.7131Z" fill="#3DC55B"/>
<path d="M4.71389 18.1418H3.14258V19.7132H4.71389V18.1418Z" fill="#3DC55B"/>
<path d="M4.71389 16.5705H3.14258V18.1418H4.71389V16.5705Z" fill="#3DC55B"/>
<path d="M4.71389 14.9992H3.14258V16.5705H4.71389V14.9992Z" fill="#111111"/>
<path d="M4.71389 13.4279H3.14258V14.9992H4.71389V13.4279Z" fill="#FC373B"/>
<path d="M4.71389 11.8566H3.14258V13.4279H4.71389V11.8566Z" fill="#FC373B"/>
<path d="M4.71389 10.2853H3.14258V11.8566H4.71389V10.2853Z" fill="#111111"/>
<path d="M4.71389 3.99841H3.14258V5.57132H4.71389V3.99841Z" fill="#111111"/>
<path d="M3.1426 21.2861H1.57129V22.8574H3.1426V21.2861Z" fill="#111111"/>
<path d="M3.1426 19.7131H1.57129V21.286H3.1426V19.7131Z" fill="#3DC55B"/>
<path d="M3.1426 18.1418H1.57129V19.7132H3.1426V18.1418Z" fill="#3DC55B"/>
<path d="M3.1426 16.5705H1.57129V18.1418H3.1426V16.5705Z" fill="#3DC55B"/>
<path d="M3.1426 14.9992H1.57129V16.5705H3.1426V14.9992Z" fill="#111111"/>
<path d="M3.1426 13.4279H1.57129V14.9992H3.1426V13.4279Z" fill="#FC373B"/>
<path d="M3.1426 11.8566H1.57129V13.4279H3.1426V11.8566Z" fill="#111111"/>
<path d="M1.57132 19.7131H0V21.286H1.57132V19.7131Z" fill="#111111"/>
<path d="M1.57132 18.1418H0V19.7132H1.57132V18.1418Z" fill="#111111"/>
<path d="M1.57132 16.5705H0V18.1418H1.57132V16.5705Z" fill="#111111"/>
<path d="M1.57132 14.9992H0V16.5705H1.57132V14.9992Z" fill="#111111"/>
<path d="M1.57132 13.4279H0V14.9992H1.57132V13.4279Z" fill="#111111"/>
</g>
<defs>
<clipPath id="clip0_471_9164">
<rect width="22" height="25.1442" fill="white" transform="translate(0 0.855774)"/>
</clipPath>
</defs>
</svg>
