<svg width="22" height="22" viewBox="0 0 22 22" fill="none" xmlns="http://www.w3.org/2000/svg">
<g clip-path="url(#clip0_299_3573)">
<path d="M22.0001 16.0005H20.0002V18.0004H22.0001V16.0005Z" fill="#111111"/>
<path d="M22.0001 14.0007H20.0002V16.0005H22.0001V14.0007Z" fill="#111111"/>
<path d="M22.0001 12.0009H20.0002V14.0007H22.0001V12.0009Z" fill="#111111"/>
<path d="M22.0001 10.0011H20.0002V12.0009H22.0001V10.0011Z" fill="#111111"/>
<path d="M20.0003 18.0004H18.0005V20.0002H20.0003V18.0004Z" fill="#111111"/>
<path d="M20.0003 16.0005H18.0005V18.0004H20.0003V16.0005Z" fill="#FF5F2D"/>
<path d="M20.0003 14.0007H18.0005V16.0005H20.0003V14.0007Z" fill="#FF5F2D"/>
<path d="M20.0003 12.0009H18.0005V14.0007H20.0003V12.0009Z" fill="#FF5F2D"/>
<path d="M20.0003 10.0011H18.0005V12.0009H20.0003V10.0011Z" fill="#FF5F2D"/>
<path d="M20.0003 8.00128H18.0005V10.0011H20.0003V8.00128Z" fill="#111111"/>
<path d="M20.0003 1.99982H18.0005V3.99963H20.0003V1.99982Z" fill="#111111"/>
<path d="M20.0003 0H18.0005V1.99982H20.0003V0Z" fill="#111111"/>
<path d="M18.0003 20.0002H16.0005V22H18.0003V20.0002Z" fill="#111111"/>
<path d="M18.0003 18.0004H16.0005V20.0002H18.0003V18.0004Z" fill="#FF5F2D"/>
<path d="M18.0003 16.0005H16.0005V18.0004H18.0003V16.0005Z" fill="#FF5F2D"/>
<path d="M18.0003 14.0007H16.0005V16.0005H18.0003V14.0007Z" fill="#FF5F2D"/>
<path d="M18.0003 12.0009H16.0005V14.0007H18.0003V12.0009Z" fill="#FF5F2D"/>
<path d="M18.0003 10.0011H16.0005V12.0009H18.0003V10.0011Z" fill="#FF5F2D"/>
<path d="M18.0003 8.00128H16.0005V10.0011H18.0003V8.00128Z" fill="#FF5F2D"/>
<path d="M18.0003 6.00146H16.0005V8.00128H18.0003V6.00146Z" fill="#111111"/>
<path d="M18.0003 3.99963H16.0005V6.00147H18.0003V3.99963Z" fill="#111111"/>
<path d="M18.0003 1.99982H16.0005V3.99963H18.0003V1.99982Z" fill="#FF5F2D"/>
<path d="M18.0003 0H16.0005V1.99982H18.0003V0Z" fill="#111111"/>
<path d="M16.0005 20.0002H14.0007V22H16.0005V20.0002Z" fill="#111111"/>
<path d="M16.0005 18.0004H14.0007V20.0002H16.0005V18.0004Z" fill="#FF5F2D"/>
<path d="M16.0005 16.0005H14.0007V18.0004H16.0005V16.0005Z" fill="#FF5F2D"/>
<path d="M16.0005 14.0007H14.0007V16.0005H16.0005V14.0007Z" fill="#FF5F2D"/>
<path d="M16.0005 12.0009H14.0007V14.0007H16.0005V12.0009Z" fill="#111111"/>
<path d="M16.0005 10.0011H14.0007V12.0009H16.0005V10.0011Z" fill="#111111"/>
<path d="M16.0005 8.00128H14.0007V10.0011H16.0005V8.00128Z" fill="#FF5F2D"/>
<path d="M16.0005 6.00146H14.0007V8.00128H16.0005V6.00146Z" fill="#111111"/>
<path d="M16.0005 3.99963H14.0007V6.00147H16.0005V3.99963Z" fill="#FF5F2D"/>
<path d="M16.0005 1.99982H14.0007V3.99963H16.0005V1.99982Z" fill="#FF5F2D"/>
<path d="M16.0005 0H14.0007V1.99982H16.0005V0Z" fill="#111111"/>
<path d="M14.0008 20.0002H12.001V22H14.0008V20.0002Z" fill="#111111"/>
<path d="M14.0008 18.0004H12.001V20.0002H14.0008V18.0004Z" fill="#FF5F2D"/>
<path d="M14.0008 16.0005H12.001V18.0004H14.0008V16.0005Z" fill="#FF5F2D"/>
<path d="M14.0008 14.0007H12.001V16.0005H14.0008V14.0007Z" fill="#111111"/>
<path d="M14.0008 12.0009H12.001V14.0007H14.0008V12.0009Z" fill="#111111"/>
<path d="M14.0008 10.0011H12.001V12.0009H14.0008V10.0011Z" fill="#111111"/>
<path d="M14.0008 8.00128H12.001V10.0011H14.0008V8.00128Z" fill="#FF5F2D"/>
<path d="M14.0008 6.00146H12.001V8.00128H14.0008V6.00146Z" fill="#FF5F2D"/>
<path d="M14.0008 3.99963H12.001V6.00147H14.0008V3.99963Z" fill="#FF5F2D"/>
<path d="M14.0008 1.99982H12.001V3.99963H14.0008V1.99982Z" fill="#FF5F2D"/>
<path d="M14.0008 0H12.001V1.99982H14.0008V0Z" fill="#111111"/>
<path d="M12.0009 20.0002H9.99902V22H12.0009V20.0002Z" fill="#111111"/>
<path d="M12.0009 18.0004H9.99902V20.0002H12.0009V18.0004Z" fill="#FF5F2D"/>
<path d="M12.0009 16.0005H9.99902V18.0004H12.0009V16.0005Z" fill="#FF5F2D"/>
<path d="M12.0009 14.0007H9.99902V16.0005H12.0009V14.0007Z" fill="#111111"/>
<path d="M12.0009 12.0009H9.99902V14.0007H12.0009V12.0009Z" fill="#111111"/>
<path d="M12.0009 10.0011H9.99902V12.0009H12.0009V10.0011Z" fill="#FF5F2D"/>
<path d="M12.0009 8.00128H9.99902V10.0011H12.0009V8.00128Z" fill="#FF5F2D"/>
<path d="M12.0009 6.00146H9.99902V8.00128H12.0009V6.00146Z" fill="#FF5F2D"/>
<path d="M12.0009 3.99963H9.99902V6.00147H12.0009V3.99963Z" fill="#FF5F2D"/>
<path d="M12.0009 1.99982H9.99902V3.99963H12.0009V1.99982Z" fill="#FF5F2D"/>
<path d="M12.0009 0H9.99902V1.99982H12.0009V0Z" fill="#111111"/>
<path d="M9.99908 20.0002H7.99927V22H9.99908V20.0002Z" fill="#111111"/>
<path d="M9.99908 18.0004H7.99927V20.0002H9.99908V18.0004Z" fill="#FF5F2D"/>
<path d="M9.99908 16.0005H7.99927V18.0004H9.99908V16.0005Z" fill="#FF5F2D"/>
<path d="M9.99908 14.0007H7.99927V16.0005H9.99908V14.0007Z" fill="#111111"/>
<path d="M9.99908 12.0009H7.99927V14.0007H9.99908V12.0009Z" fill="#111111"/>
<path d="M9.99908 10.0011H7.99927V12.0009H9.99908V10.0011Z" fill="#111111"/>
<path d="M9.99908 8.00128H7.99927V10.0011H9.99908V8.00128Z" fill="#FF5F2D"/>
<path d="M9.99908 6.00146H7.99927V8.00128H9.99908V6.00146Z" fill="#FF5F2D"/>
<path d="M9.99908 3.99963H7.99927V6.00147H9.99908V3.99963Z" fill="#FF5F2D"/>
<path d="M9.99908 1.99982H7.99927V3.99963H9.99908V1.99982Z" fill="#FF5F2D"/>
<path d="M9.99908 0H7.99927V1.99982H9.99908V0Z" fill="#111111"/>
<path d="M7.99933 20.0002H5.99951V22H7.99933V20.0002Z" fill="#111111"/>
<path d="M7.99933 18.0004H5.99951V20.0002H7.99933V18.0004Z" fill="#FF5F2D"/>
<path d="M7.99933 16.0005H5.99951V18.0004H7.99933V16.0005Z" fill="#FF5F2D"/>
<path d="M7.99933 14.0007H5.99951V16.0005H7.99933V14.0007Z" fill="#FF5F2D"/>
<path d="M7.99933 12.0009H5.99951V14.0007H7.99933V12.0009Z" fill="#111111"/>
<path d="M7.99933 10.0011H5.99951V12.0009H7.99933V10.0011Z" fill="#111111"/>
<path d="M7.99933 8.00128H5.99951V10.0011H7.99933V8.00128Z" fill="#FF5F2D"/>
<path d="M7.99933 6.00146H5.99951V8.00128H7.99933V6.00146Z" fill="#111111"/>
<path d="M7.99933 3.99963H5.99951V6.00147H7.99933V3.99963Z" fill="#FF5F2D"/>
<path d="M7.99933 1.99982H5.99951V3.99963H7.99933V1.99982Z" fill="#FF5F2D"/>
<path d="M7.99933 0H5.99951V1.99982H7.99933V0Z" fill="#111111"/>
<path d="M5.99933 20.0002H3.99951V22H5.99933V20.0002Z" fill="#111111"/>
<path d="M5.99933 18.0004H3.99951V20.0002H5.99933V18.0004Z" fill="#FF5F2D"/>
<path d="M5.99933 16.0005H3.99951V18.0004H5.99933V16.0005Z" fill="#FF5F2D"/>
<path d="M5.99933 14.0007H3.99951V16.0005H5.99933V14.0007Z" fill="#FF5F2D"/>
<path d="M5.99933 12.0009H3.99951V14.0007H5.99933V12.0009Z" fill="#FF5F2D"/>
<path d="M5.99933 10.0011H3.99951V12.0009H5.99933V10.0011Z" fill="#FF5F2D"/>
<path d="M5.99933 8.00128H3.99951V10.0011H5.99933V8.00128Z" fill="#FF5F2D"/>
<path d="M5.99933 6.00146H3.99951V8.00128H5.99933V6.00146Z" fill="#111111"/>
<path d="M5.99933 3.99963H3.99951V6.00147H5.99933V3.99963Z" fill="#111111"/>
<path d="M5.99933 1.99982H3.99951V3.99963H5.99933V1.99982Z" fill="#FF5F2D"/>
<path d="M5.99933 0H3.99951V1.99982H5.99933V0Z" fill="#111111"/>
<path d="M3.99957 18.0004H1.99976V20.0002H3.99957V18.0004Z" fill="#111111"/>
<path d="M3.99957 16.0005H1.99976V18.0004H3.99957V16.0005Z" fill="#FF5F2D"/>
<path d="M3.99957 14.0007H1.99976V16.0005H3.99957V14.0007Z" fill="#FF5F2D"/>
<path d="M3.99957 12.0009H1.99976V14.0007H3.99957V12.0009Z" fill="#FF5F2D"/>
<path d="M3.99957 10.0011H1.99976V12.0009H3.99957V10.0011Z" fill="#FF5F2D"/>
<path d="M3.99957 8.00128H1.99976V10.0011H3.99957V8.00128Z" fill="#111111"/>
<path d="M3.99957 1.99982H1.99976V3.99963H3.99957V1.99982Z" fill="#111111"/>
<path d="M3.99957 0H1.99976V1.99982H3.99957V0Z" fill="#111111"/>
<path d="M1.99982 16.0005H0V18.0004H1.99982V16.0005Z" fill="#111111"/>
<path d="M1.99982 14.0007H0V16.0005H1.99982V14.0007Z" fill="#111111"/>
<path d="M1.99982 12.0009H0V14.0007H1.99982V12.0009Z" fill="#111111"/>
<path d="M1.99982 10.0011H0V12.0009H1.99982V10.0011Z" fill="#111111"/>
</g>
<defs>
<clipPath id="clip0_299_3573">
<rect width="22" height="22" fill="white"/>
</clipPath>
</defs>
</svg>
