<svg width="32" height="39" viewBox="0 0 32 39" fill="none" xmlns="http://www.w3.org/2000/svg">
<g clip-path="url(#clip0_1172_25033)">
<path d="M32 36.0002H30.4763V37.5001H32V36.0002Z" fill="#111111"/>
<path d="M32 34.499H30.4763V36.0004H32V34.499Z" fill="#111111"/>
<path d="M32 32.9993H30.4763V34.4991H32V32.9993Z" fill="#111111"/>
<path d="M32 31.4993H30.4763V32.9991H32V31.4993Z" fill="#111111"/>
<path d="M32 29.9995H30.4763V31.4993H32V29.9995Z" fill="#111111"/>
<path d="M32 28.4998H30.4763V29.9996H32V28.4998Z" fill="#111111"/>
<path d="M32 27H30.4763V28.4998H32V27Z" fill="#111111"/>
<path d="M32 25.5H30.4763V26.9998H32V25.5Z" fill="#111111"/>
<path d="M32 24.0002H30.4763V25.5001H32V24.0002Z" fill="#111111"/>
<path d="M32 22.5005H30.4763V24.0003H32V22.5005Z" fill="#111111"/>
<path d="M32 21.0005H30.4763V22.5003H32V21.0005Z" fill="#111111"/>
<path d="M32 19.4993H30.4763V21.0006H32V19.4993Z" fill="#111111"/>
<path d="M32 17.9995H30.4763V19.4993H32V17.9995Z" fill="#111111"/>
<path d="M30.4763 37.5002H28.9526V39.0001H30.4763V37.5002Z" fill="#111111"/>
<path d="M30.4763 36.0002H28.9526V37.5001H30.4763V36.0002Z" fill="#FFC885"/>
<path d="M30.4763 34.499H28.9526V36.0004H30.4763V34.499Z" fill="white"/>
<path d="M30.4763 32.9993H28.9526V34.4991H30.4763V32.9993Z" fill="white"/>
<path d="M30.4763 31.4993H28.9526V32.9991H30.4763V31.4993Z" fill="white"/>
<path d="M30.4763 29.9995H28.9526V31.4993H30.4763V29.9995Z" fill="white"/>
<path d="M30.4763 28.4998H28.9526V29.9996H30.4763V28.4998Z" fill="white"/>
<path d="M30.4763 27H28.9526V28.4998H30.4763V27Z" fill="white"/>
<path d="M30.4763 25.5H28.9526V26.9998H30.4763V25.5Z" fill="white"/>
<path d="M30.4763 24.0002H28.9526V25.5001H30.4763V24.0002Z" fill="white"/>
<path d="M30.4763 22.5005H28.9526V24.0003H30.4763V22.5005Z" fill="white"/>
<path d="M30.4763 21.0005H28.9526V22.5003H30.4763V21.0005Z" fill="white"/>
<path d="M30.4763 19.4993H28.9526V21.0006H30.4763V19.4993Z" fill="#FFC885"/>
<path d="M30.4763 17.9995H28.9526V19.4993H30.4763V17.9995Z" fill="#FFC885"/>
<path d="M30.4763 16.4995H28.9526V17.9993H30.4763V16.4995Z" fill="#111111"/>
<path d="M28.9526 37.5002H27.429V39.0001H28.9526V37.5002Z" fill="#111111"/>
<path d="M28.9526 36.0002H27.429V37.5001H28.9526V36.0002Z" fill="white"/>
<path d="M28.9526 34.499H27.429V36.0004H28.9526V34.499Z" fill="#FFC885"/>
<path d="M28.9526 32.9993H27.429V34.4991H28.9526V32.9993Z" fill="white"/>
<path d="M28.9526 31.4993H27.429V32.9991H28.9526V31.4993Z" fill="white"/>
<path d="M28.9526 29.9995H27.429V31.4993H28.9526V29.9995Z" fill="white"/>
<path d="M28.9526 28.4998H27.429V29.9996H28.9526V28.4998Z" fill="white"/>
<path d="M28.9526 27H27.429V28.4998H28.9526V27Z" fill="#111111"/>
<path d="M28.9526 25.5H27.429V26.9998H28.9526V25.5Z" fill="#111111"/>
<path d="M28.9526 24.0002H27.429V25.5001H28.9526V24.0002Z" fill="#111111"/>
<path d="M28.9526 22.5005H27.429V24.0003H28.9526V22.5005Z" fill="white"/>
<path d="M28.9526 21.0005H27.429V22.5003H28.9526V21.0005Z" fill="#FFC885"/>
<path d="M28.9526 19.4993H27.429V21.0006H28.9526V19.4993Z" fill="#FFC885"/>
<path d="M28.9526 17.9995H27.429V19.4993H28.9526V17.9995Z" fill="#FFC885"/>
<path d="M28.9526 16.4995H27.429V17.9993H28.9526V16.4995Z" fill="#FFC885"/>
<path d="M28.9526 14.9998H27.429V16.4996H28.9526V14.9998Z" fill="#111111"/>
<path d="M27.4289 37.5002H25.9053V39.0001H27.4289V37.5002Z" fill="#111111"/>
<path d="M27.4289 36.0002H25.9053V37.5001H27.4289V36.0002Z" fill="white"/>
<path d="M27.4289 34.499H25.9053V36.0004H27.4289V34.499Z" fill="white"/>
<path d="M27.4289 32.9993H25.9053V34.4991H27.4289V32.9993Z" fill="#FFC885"/>
<path d="M27.4289 31.4993H25.9053V32.9991H27.4289V31.4993Z" fill="white"/>
<path d="M27.4289 29.9995H25.9053V31.4993H27.4289V29.9995Z" fill="white"/>
<path d="M27.4289 28.4998H25.9053V29.9996H27.4289V28.4998Z" fill="white"/>
<path d="M27.4289 27H25.9053V28.4998H27.4289V27Z" fill="#111111"/>
<path d="M27.4289 25.5H25.9053V26.9998H27.4289V25.5Z" fill="#282828"/>
<path d="M27.4289 24.0002H25.9053V25.5001H27.4289V24.0002Z" fill="#111111"/>
<path d="M27.4289 22.5005H25.9053V24.0003H27.4289V22.5005Z" fill="#FFC885"/>
<path d="M27.4289 21.0005H25.9053V22.5003H27.4289V21.0005Z" fill="#FFC885"/>
<path d="M27.4289 19.4993H25.9053V21.0006H27.4289V19.4993Z" fill="#FFC885"/>
<path d="M27.4289 17.9995H25.9053V19.4993H27.4289V17.9995Z" fill="#FFC885"/>
<path d="M27.4289 16.4995H25.9053V17.9993H27.4289V16.4995Z" fill="#FFC885"/>
<path d="M27.4289 14.9998H25.9053V16.4996H27.4289V14.9998Z" fill="#FFC885"/>
<path d="M27.4289 13.5H25.9053V14.9998H27.4289V13.5Z" fill="#111111"/>
<path d="M25.9053 37.5002H24.3801V39.0001H25.9053V37.5002Z" fill="#111111"/>
<path d="M25.9053 36.0002H24.3801V37.5001H25.9053V36.0002Z" fill="white"/>
<path d="M25.9053 34.499H24.3801V36.0004H25.9053V34.499Z" fill="white"/>
<path d="M25.9053 32.9993H24.3801V34.4991H25.9053V32.9993Z" fill="white"/>
<path d="M25.9053 31.4993H24.3801V32.9991H25.9053V31.4993Z" fill="#FFC885"/>
<path d="M25.9053 29.9995H24.3801V31.4993H25.9053V29.9995Z" fill="white"/>
<path d="M25.9053 28.4998H24.3801V29.9996H25.9053V28.4998Z" fill="white"/>
<path d="M25.9053 27H24.3801V28.4998H25.9053V27Z" fill="#111111"/>
<path d="M25.9053 25.5H24.3801V26.9998H25.9053V25.5Z" fill="#282828"/>
<path d="M25.9053 24.0002H24.3801V25.5001H25.9053V24.0002Z" fill="#111111"/>
<path d="M25.9053 22.5005H24.3801V24.0003H25.9053V22.5005Z" fill="#FFC885"/>
<path d="M25.9053 21.0005H24.3801V22.5003H25.9053V21.0005Z" fill="#111111"/>
<path d="M25.9053 19.4993H24.3801V21.0006H25.9053V19.4993Z" fill="#111111"/>
<path d="M25.9053 17.9995H24.3801V19.4993H25.9053V17.9995Z" fill="#111111"/>
<path d="M25.9053 16.4995H24.3801V17.9993H25.9053V16.4995Z" fill="#FFC885"/>
<path d="M25.9053 14.9998H24.3801V16.4996H25.9053V14.9998Z" fill="#FFC885"/>
<path d="M25.9053 13.5H24.3801V14.9998H25.9053V13.5Z" fill="#FFC885"/>
<path d="M25.9053 12H24.3801V13.4998H25.9053V12Z" fill="#111111"/>
<path d="M24.3801 37.5002H22.8564V39.0001H24.3801V37.5002Z" fill="#111111"/>
<path d="M24.3801 36.0002H22.8564V37.5001H24.3801V36.0002Z" fill="white"/>
<path d="M24.3801 34.499H22.8564V36.0004H24.3801V34.499Z" fill="white"/>
<path d="M24.3801 32.9993H22.8564V34.4991H24.3801V32.9993Z" fill="white"/>
<path d="M24.3801 31.4993H22.8564V32.9991H24.3801V31.4993Z" fill="white"/>
<path d="M24.3801 29.9995H22.8564V31.4993H24.3801V29.9995Z" fill="#FFC885"/>
<path d="M24.3801 28.4998H22.8564V29.9996H24.3801V28.4998Z" fill="white"/>
<path d="M24.3801 27H22.8564V28.4998H24.3801V27Z" fill="white"/>
<path d="M24.3801 25.5H22.8564V26.9998H24.3801V25.5Z" fill="#111111"/>
<path d="M24.3801 24.0002H22.8564V25.5001H24.3801V24.0002Z" fill="#111111"/>
<path d="M24.3801 22.5005H22.8564V24.0003H24.3801V22.5005Z" fill="#111111"/>
<path d="M24.3801 21.0005H22.8564V22.5003H24.3801V21.0005Z" fill="#282828"/>
<path d="M24.3801 19.4993H22.8564V21.0006H24.3801V19.4993Z" fill="#282828"/>
<path d="M24.3801 17.9995H22.8564V19.4993H24.3801V17.9995Z" fill="#282828"/>
<path d="M24.3801 16.4995H22.8564V17.9993H24.3801V16.4995Z" fill="#111111"/>
<path d="M24.3801 14.9998H22.8564V16.4996H24.3801V14.9998Z" fill="#111111"/>
<path d="M24.3801 13.5H22.8564V14.9998H24.3801V13.5Z" fill="#FFC885"/>
<path d="M24.3801 12H22.8564V13.4998H24.3801V12Z" fill="#111111"/>
<path d="M24.3801 10.5002H22.8564V12.0001H24.3801V10.5002Z" fill="#111111"/>
<path d="M24.3801 9.00049H22.8564V10.5003H24.3801V9.00049Z" fill="#111111"/>
<path d="M24.3801 7.50073H22.8564V9.00056H24.3801V7.50073Z" fill="#111111"/>
<path d="M24.3801 6.00073H22.8564V7.50056H24.3801V6.00073Z" fill="#111111"/>
<path d="M24.3801 4.49951H22.8564V6.00085H24.3801V4.49951Z" fill="#111111"/>
<path d="M24.3801 2.99976H22.8564V4.49958H24.3801V2.99976Z" fill="#111111"/>
<path d="M24.3801 1.49976H22.8564V2.99958H24.3801V1.49976Z" fill="#111111"/>
<path d="M22.8564 37.5002H21.3328V39.0001H22.8564V37.5002Z" fill="#111111"/>
<path d="M22.8564 36.0002H21.3328V37.5001H22.8564V36.0002Z" fill="white"/>
<path d="M22.8564 34.499H21.3328V36.0004H22.8564V34.499Z" fill="white"/>
<path d="M22.8564 32.9993H21.3328V34.4991H22.8564V32.9993Z" fill="white"/>
<path d="M22.8564 31.4993H21.3328V32.9991H22.8564V31.4993Z" fill="white"/>
<path d="M22.8564 29.9995H21.3328V31.4993H22.8564V29.9995Z" fill="white"/>
<path d="M22.8564 28.4998H21.3328V29.9996H22.8564V28.4998Z" fill="white"/>
<path d="M22.8564 27H21.3328V28.4998H22.8564V27Z" fill="white"/>
<path d="M22.8564 25.5H21.3328V26.9998H22.8564V25.5Z" fill="white"/>
<path d="M22.8564 24.0002H21.3328V25.5001H22.8564V24.0002Z" fill="#111111"/>
<path d="M22.8564 22.5005H21.3328V24.0003H22.8564V22.5005Z" fill="#282828"/>
<path d="M22.8564 21.0005H21.3328V22.5003H22.8564V21.0005Z" fill="#282828"/>
<path d="M22.8564 19.4993H21.3328V21.0006H22.8564V19.4993Z" fill="#282828"/>
<path d="M22.8564 17.9995H21.3328V19.4993H22.8564V17.9995Z" fill="#282828"/>
<path d="M22.8564 16.4995H21.3328V17.9993H22.8564V16.4995Z" fill="#282828"/>
<path d="M22.8564 14.9998H21.3328V16.4996H22.8564V14.9998Z" fill="#282828"/>
<path d="M22.8564 13.5H21.3328V14.9998H22.8564V13.5Z" fill="#111111"/>
<path d="M22.8564 12H21.3328V13.4998H22.8564V12Z" fill="#282828"/>
<path d="M22.8564 10.5002H21.3328V12.0001H22.8564V10.5002Z" fill="#282828"/>
<path d="M22.8564 9.00049H21.3328V10.5003H22.8564V9.00049Z" fill="#282828"/>
<path d="M22.8564 7.50073H21.3328V9.00056H22.8564V7.50073Z" fill="#282828"/>
<path d="M22.8564 6.00073H21.3328V7.50056H22.8564V6.00073Z" fill="#282828"/>
<path d="M22.8564 4.49951H21.3328V6.00085H22.8564V4.49951Z" fill="#282828"/>
<path d="M22.8564 2.99976H21.3328V4.49958H22.8564V2.99976Z" fill="#282828"/>
<path d="M22.8564 1.49976H21.3328V2.99958H22.8564V1.49976Z" fill="white"/>
<path d="M22.8564 0H21.3328V1.49983H22.8564V0Z" fill="#111111"/>
<path d="M21.3327 37.5002H19.8091V39.0001H21.3327V37.5002Z" fill="#111111"/>
<path d="M21.3327 36.0002H19.8091V37.5001H21.3327V36.0002Z" fill="white"/>
<path d="M21.3327 34.499H19.8091V36.0004H21.3327V34.499Z" fill="white"/>
<path d="M21.3327 32.9993H19.8091V34.4991H21.3327V32.9993Z" fill="white"/>
<path d="M21.3327 31.4993H19.8091V32.9991H21.3327V31.4993Z" fill="white"/>
<path d="M21.3327 29.9995H19.8091V31.4993H21.3327V29.9995Z" fill="#FF0000"/>
<path d="M21.3327 28.4998H19.8091V29.9996H21.3327V28.4998Z" fill="#FF0000"/>
<path d="M21.3327 27H19.8091V28.4998H21.3327V27Z" fill="white"/>
<path d="M21.3327 25.5H19.8091V26.9998H21.3327V25.5Z" fill="white"/>
<path d="M21.3327 24.0002H19.8091V25.5001H21.3327V24.0002Z" fill="#111111"/>
<path d="M21.3327 22.5005H19.8091V24.0003H21.3327V22.5005Z" fill="#282828"/>
<path d="M21.3327 21.0005H19.8091V22.5003H21.3327V21.0005Z" fill="#282828"/>
<path d="M21.3327 19.4993H19.8091V21.0006H21.3327V19.4993Z" fill="white"/>
<path d="M21.3327 17.9995H19.8091V19.4993H21.3327V17.9995Z" fill="white"/>
<path d="M21.3327 16.4995H19.8091V17.9993H21.3327V16.4995Z" fill="#282828"/>
<path d="M21.3327 14.9998H19.8091V16.4996H21.3327V14.9998Z" fill="#282828"/>
<path d="M21.3327 13.5H19.8091V14.9998H21.3327V13.5Z" fill="#282828"/>
<path d="M21.3327 12H19.8091V13.4998H21.3327V12Z" fill="#282828"/>
<path d="M21.3327 10.5002H19.8091V12.0001H21.3327V10.5002Z" fill="#282828"/>
<path d="M21.3327 9.00049H19.8091V10.5003H21.3327V9.00049Z" fill="#282828"/>
<path d="M21.3327 7.50073H19.8091V9.00056H21.3327V7.50073Z" fill="#282828"/>
<path d="M21.3327 6.00073H19.8091V7.50056H21.3327V6.00073Z" fill="#282828"/>
<path d="M21.3327 4.49951H19.8091V6.00085H21.3327V4.49951Z" fill="#282828"/>
<path d="M21.3327 2.99976H19.8091V4.49958H21.3327V2.99976Z" fill="#282828"/>
<path d="M21.3327 1.49976H19.8091V2.99958H21.3327V1.49976Z" fill="white"/>
<path d="M21.3327 0H19.8091V1.49983H21.3327V0Z" fill="#111111"/>
<path d="M19.8091 37.5002H18.2854V39.0001H19.8091V37.5002Z" fill="#111111"/>
<path d="M19.8091 36.0002H18.2854V37.5001H19.8091V36.0002Z" fill="white"/>
<path d="M19.8091 34.499H18.2854V36.0004H19.8091V34.499Z" fill="white"/>
<path d="M19.8091 32.9993H18.2854V34.4991H19.8091V32.9993Z" fill="white"/>
<path d="M19.8091 31.4993H18.2854V32.9991H19.8091V31.4993Z" fill="#FF0000"/>
<path d="M19.8091 29.9995H18.2854V31.4993H19.8091V29.9995Z" fill="#FF0000"/>
<path d="M19.8091 28.4998H18.2854V29.9996H19.8091V28.4998Z" fill="#FF0000"/>
<path d="M19.8091 27H18.2854V28.4998H19.8091V27Z" fill="#FF0000"/>
<path d="M19.8091 25.5H18.2854V26.9998H19.8091V25.5Z" fill="white"/>
<path d="M19.8091 24.0002H18.2854V25.5001H19.8091V24.0002Z" fill="#111111"/>
<path d="M19.8091 22.5005H18.2854V24.0003H19.8091V22.5005Z" fill="#282828"/>
<path d="M19.8091 21.0005H18.2854V22.5003H19.8091V21.0005Z" fill="#282828"/>
<path d="M19.8091 19.4993H18.2854V21.0006H19.8091V19.4993Z" fill="#282828"/>
<path d="M19.8091 17.9995H18.2854V19.4993H19.8091V17.9995Z" fill="#282828"/>
<path d="M19.8091 16.4995H18.2854V17.9993H19.8091V16.4995Z" fill="#282828"/>
<path d="M19.8091 14.9998H18.2854V16.4996H19.8091V14.9998Z" fill="#282828"/>
<path d="M19.8091 13.5H18.2854V14.9998H19.8091V13.5Z" fill="#282828"/>
<path d="M19.8091 12H18.2854V13.4998H19.8091V12Z" fill="#282828"/>
<path d="M19.8091 10.5002H18.2854V12.0001H19.8091V10.5002Z" fill="#282828"/>
<path d="M19.8091 9.00049H18.2854V10.5003H19.8091V9.00049Z" fill="#282828"/>
<path d="M19.8091 7.50073H18.2854V9.00056H19.8091V7.50073Z" fill="#282828"/>
<path d="M19.8091 6.00073H18.2854V7.50056H19.8091V6.00073Z" fill="#282828"/>
<path d="M19.8091 4.49951H18.2854V6.00085H19.8091V4.49951Z" fill="#282828"/>
<path d="M19.8091 2.99976H18.2854V4.49958H19.8091V2.99976Z" fill="#282828"/>
<path d="M19.8091 1.49976H18.2854V2.99958H19.8091V1.49976Z" fill="white"/>
<path d="M19.8091 0H18.2854V1.49983H19.8091V0Z" fill="#111111"/>
<path d="M18.2854 37.5002H16.7617V39.0001H18.2854V37.5002Z" fill="#111111"/>
<path d="M18.2854 36.0002H16.7617V37.5001H18.2854V36.0002Z" fill="white"/>
<path d="M18.2854 34.499H16.7617V36.0004H18.2854V34.499Z" fill="white"/>
<path d="M18.2854 32.9993H16.7617V34.4991H18.2854V32.9993Z" fill="#FF0000"/>
<path d="M18.2854 31.4993H16.7617V32.9991H18.2854V31.4993Z" fill="#FF0000"/>
<path d="M18.2854 29.9995H16.7617V31.4993H18.2854V29.9995Z" fill="#FF0000"/>
<path d="M18.2854 28.4998H16.7617V29.9996H18.2854V28.4998Z" fill="#FF0000"/>
<path d="M18.2854 27H16.7617V28.4998H18.2854V27Z" fill="#FF0000"/>
<path d="M18.2854 25.5H16.7617V26.9998H18.2854V25.5Z" fill="white"/>
<path d="M18.2854 24.0002H16.7617V25.5001H18.2854V24.0002Z" fill="#111111"/>
<path d="M18.2854 22.5005H16.7617V24.0003H18.2854V22.5005Z" fill="#282828"/>
<path d="M18.2854 21.0005H16.7617V22.5003H18.2854V21.0005Z" fill="#282828"/>
<path d="M18.2854 19.4993H16.7617V21.0006H18.2854V19.4993Z" fill="#282828"/>
<path d="M18.2854 17.9995H16.7617V19.4993H18.2854V17.9995Z" fill="#282828"/>
<path d="M18.2854 16.4995H16.7617V17.9993H18.2854V16.4995Z" fill="#282828"/>
<path d="M18.2854 14.9998H16.7617V16.4996H18.2854V14.9998Z" fill="#282828"/>
<path d="M18.2854 13.5H16.7617V14.9998H18.2854V13.5Z" fill="#282828"/>
<path d="M18.2854 12H16.7617V13.4998H18.2854V12Z" fill="#282828"/>
<path d="M18.2854 10.5002H16.7617V12.0001H18.2854V10.5002Z" fill="#111111"/>
<path d="M18.2854 9.00049H16.7617V10.5003H18.2854V9.00049Z" fill="#111111"/>
<path d="M18.2854 7.50073H16.7617V9.00056H18.2854V7.50073Z" fill="#111111"/>
<path d="M18.2854 6.00073H16.7617V7.50056H18.2854V6.00073Z" fill="#111111"/>
<path d="M18.2854 4.49951H16.7617V6.00085H18.2854V4.49951Z" fill="#111111"/>
<path d="M18.2854 2.99976H16.7617V4.49958H18.2854V2.99976Z" fill="#111111"/>
<path d="M18.2854 1.49976H16.7617V2.99958H18.2854V1.49976Z" fill="#111111"/>
<path d="M16.7619 37.5002H15.2383V39.0001H16.7619V37.5002Z" fill="#111111"/>
<path d="M16.7619 36.0002H15.2383V37.5001H16.7619V36.0002Z" fill="white"/>
<path d="M16.7619 34.499H15.2383V36.0004H16.7619V34.499Z" fill="#FF0000"/>
<path d="M16.7619 32.9993H15.2383V34.4991H16.7619V32.9993Z" fill="#FF0000"/>
<path d="M16.7619 31.4993H15.2383V32.9991H16.7619V31.4993Z" fill="#FF0000"/>
<path d="M16.7619 29.9995H15.2383V31.4993H16.7619V29.9995Z" fill="#FF0000"/>
<path d="M16.7619 28.4998H15.2383V29.9996H16.7619V28.4998Z" fill="#FF0000"/>
<path d="M16.7619 27H15.2383V28.4998H16.7619V27Z" fill="white"/>
<path d="M16.7619 25.5H15.2383V26.9998H16.7619V25.5Z" fill="white"/>
<path d="M16.7619 24.0002H15.2383V25.5001H16.7619V24.0002Z" fill="#111111"/>
<path d="M16.7619 22.5005H15.2383V24.0003H16.7619V22.5005Z" fill="#282828"/>
<path d="M16.7619 21.0005H15.2383V22.5003H16.7619V21.0005Z" fill="#282828"/>
<path d="M16.7619 19.4993H15.2383V21.0006H16.7619V19.4993Z" fill="white"/>
<path d="M16.7619 17.9995H15.2383V19.4993H16.7619V17.9995Z" fill="#282828"/>
<path d="M16.7619 16.4995H15.2383V17.9993H16.7619V16.4995Z" fill="#282828"/>
<path d="M16.7619 14.9998H15.2383V16.4996H16.7619V14.9998Z" fill="#282828"/>
<path d="M16.7619 13.5H15.2383V14.9998H16.7619V13.5Z" fill="#282828"/>
<path d="M16.7619 12H15.2383V13.4998H16.7619V12Z" fill="#111111"/>
<path d="M16.7619 10.5002H15.2383V12.0001H16.7619V10.5002Z" fill="#FFC885"/>
<path d="M16.7619 9.00049H15.2383V10.5003H16.7619V9.00049Z" fill="#FFC885"/>
<path d="M16.7619 7.50073H15.2383V9.00056H16.7619V7.50073Z" fill="#111111"/>
<path d="M15.2383 37.5002H13.7146V39.0001H15.2383V37.5002Z" fill="#111111"/>
<path d="M15.2383 36.0002H13.7146V37.5001H15.2383V36.0002Z" fill="white"/>
<path d="M15.2383 34.499H13.7146V36.0004H15.2383V34.499Z" fill="white"/>
<path d="M15.2383 32.9993H13.7146V34.4991H15.2383V32.9993Z" fill="#FF0000"/>
<path d="M15.2383 31.4993H13.7146V32.9991H15.2383V31.4993Z" fill="#FF0000"/>
<path d="M15.2383 29.9995H13.7146V31.4993H15.2383V29.9995Z" fill="#FF0000"/>
<path d="M15.2383 28.4998H13.7146V29.9996H15.2383V28.4998Z" fill="#FF0000"/>
<path d="M15.2383 27H13.7146V28.4998H15.2383V27Z" fill="#FF0000"/>
<path d="M15.2383 25.5H13.7146V26.9998H15.2383V25.5Z" fill="white"/>
<path d="M15.2383 24.0002H13.7146V25.5001H15.2383V24.0002Z" fill="#111111"/>
<path d="M15.2383 22.5005H13.7146V24.0003H15.2383V22.5005Z" fill="#282828"/>
<path d="M15.2383 21.0005H13.7146V22.5003H15.2383V21.0005Z" fill="#282828"/>
<path d="M15.2383 19.4993H13.7146V21.0006H15.2383V19.4993Z" fill="#282828"/>
<path d="M15.2383 17.9995H13.7146V19.4993H15.2383V17.9995Z" fill="#282828"/>
<path d="M15.2383 16.4995H13.7146V17.9993H15.2383V16.4995Z" fill="#282828"/>
<path d="M15.2383 14.9998H13.7146V16.4996H15.2383V14.9998Z" fill="#282828"/>
<path d="M15.2383 13.5H13.7146V14.9998H15.2383V13.5Z" fill="#282828"/>
<path d="M15.2383 12H13.7146V13.4998H15.2383V12Z" fill="#111111"/>
<path d="M15.2383 10.5002H13.7146V12.0001H15.2383V10.5002Z" fill="#111111"/>
<path d="M15.2383 9.00049H13.7146V10.5003H15.2383V9.00049Z" fill="#111111"/>
<path d="M15.2383 7.50073H13.7146V9.00056H15.2383V7.50073Z" fill="#111111"/>
<path d="M15.2383 6.00073H13.7146V7.50056H15.2383V6.00073Z" fill="#111111"/>
<path d="M15.2383 4.49951H13.7146V6.00085H15.2383V4.49951Z" fill="#111111"/>
<path d="M15.2383 2.99976H13.7146V4.49958H15.2383V2.99976Z" fill="#111111"/>
<path d="M15.2383 1.49976H13.7146V2.99958H15.2383V1.49976Z" fill="#111111"/>
<path d="M13.7146 37.5002H12.1909V39.0001H13.7146V37.5002Z" fill="#111111"/>
<path d="M13.7146 36.0002H12.1909V37.5001H13.7146V36.0002Z" fill="white"/>
<path d="M13.7146 34.499H12.1909V36.0004H13.7146V34.499Z" fill="white"/>
<path d="M13.7146 32.9993H12.1909V34.4991H13.7146V32.9993Z" fill="white"/>
<path d="M13.7146 31.4993H12.1909V32.9991H13.7146V31.4993Z" fill="#FF0000"/>
<path d="M13.7146 29.9995H12.1909V31.4993H13.7146V29.9995Z" fill="#FF0000"/>
<path d="M13.7146 28.4998H12.1909V29.9996H13.7146V28.4998Z" fill="#FF0000"/>
<path d="M13.7146 27H12.1909V28.4998H13.7146V27Z" fill="#FF0000"/>
<path d="M13.7146 25.5H12.1909V26.9998H13.7146V25.5Z" fill="white"/>
<path d="M13.7146 24.0002H12.1909V25.5001H13.7146V24.0002Z" fill="#111111"/>
<path d="M13.7146 22.5005H12.1909V24.0003H13.7146V22.5005Z" fill="#282828"/>
<path d="M13.7146 21.0005H12.1909V22.5003H13.7146V21.0005Z" fill="#282828"/>
<path d="M13.7146 19.4993H12.1909V21.0006H13.7146V19.4993Z" fill="#282828"/>
<path d="M13.7146 17.9995H12.1909V19.4993H13.7146V17.9995Z" fill="#282828"/>
<path d="M13.7146 16.4995H12.1909V17.9993H13.7146V16.4995Z" fill="#282828"/>
<path d="M13.7146 14.9998H12.1909V16.4996H13.7146V14.9998Z" fill="#282828"/>
<path d="M13.7146 13.5H12.1909V14.9998H13.7146V13.5Z" fill="#282828"/>
<path d="M13.7146 12H12.1909V13.4998H13.7146V12Z" fill="#282828"/>
<path d="M13.7146 10.5002H12.1909V12.0001H13.7146V10.5002Z" fill="#282828"/>
<path d="M13.7146 9.00049H12.1909V10.5003H13.7146V9.00049Z" fill="#282828"/>
<path d="M13.7146 7.50073H12.1909V9.00056H13.7146V7.50073Z" fill="#282828"/>
<path d="M13.7146 6.00073H12.1909V7.50056H13.7146V6.00073Z" fill="#282828"/>
<path d="M13.7146 4.49951H12.1909V6.00085H13.7146V4.49951Z" fill="#282828"/>
<path d="M13.7146 2.99976H12.1909V4.49958H13.7146V2.99976Z" fill="#282828"/>
<path d="M13.7146 1.49976H12.1909V2.99958H13.7146V1.49976Z" fill="white"/>
<path d="M13.7146 0H12.1909V1.49983H13.7146V0Z" fill="#111111"/>
<path d="M12.1909 37.5002H10.6672V39.0001H12.1909V37.5002Z" fill="#111111"/>
<path d="M12.1909 36.0002H10.6672V37.5001H12.1909V36.0002Z" fill="white"/>
<path d="M12.1909 34.499H10.6672V36.0004H12.1909V34.499Z" fill="white"/>
<path d="M12.1909 32.9993H10.6672V34.4991H12.1909V32.9993Z" fill="white"/>
<path d="M12.1909 31.4993H10.6672V32.9991H12.1909V31.4993Z" fill="white"/>
<path d="M12.1909 29.9995H10.6672V31.4993H12.1909V29.9995Z" fill="#FF0000"/>
<path d="M12.1909 28.4998H10.6672V29.9996H12.1909V28.4998Z" fill="#FF0000"/>
<path d="M12.1909 27H10.6672V28.4998H12.1909V27Z" fill="white"/>
<path d="M12.1909 25.5H10.6672V26.9998H12.1909V25.5Z" fill="white"/>
<path d="M12.1909 24.0002H10.6672V25.5001H12.1909V24.0002Z" fill="#111111"/>
<path d="M12.1909 22.5005H10.6672V24.0003H12.1909V22.5005Z" fill="#282828"/>
<path d="M12.1909 21.0005H10.6672V22.5003H12.1909V21.0005Z" fill="#282828"/>
<path d="M12.1909 19.4993H10.6672V21.0006H12.1909V19.4993Z" fill="white"/>
<path d="M12.1909 17.9995H10.6672V19.4993H12.1909V17.9995Z" fill="white"/>
<path d="M12.1909 16.4995H10.6672V17.9993H12.1909V16.4995Z" fill="#282828"/>
<path d="M12.1909 14.9998H10.6672V16.4996H12.1909V14.9998Z" fill="#282828"/>
<path d="M12.1909 13.5H10.6672V14.9998H12.1909V13.5Z" fill="#282828"/>
<path d="M12.1909 12H10.6672V13.4998H12.1909V12Z" fill="#282828"/>
<path d="M12.1909 10.5002H10.6672V12.0001H12.1909V10.5002Z" fill="#282828"/>
<path d="M12.1909 9.00049H10.6672V10.5003H12.1909V9.00049Z" fill="#282828"/>
<path d="M12.1909 7.50073H10.6672V9.00056H12.1909V7.50073Z" fill="#282828"/>
<path d="M12.1909 6.00073H10.6672V7.50056H12.1909V6.00073Z" fill="#282828"/>
<path d="M12.1909 4.49951H10.6672V6.00085H12.1909V4.49951Z" fill="#282828"/>
<path d="M12.1909 2.99976H10.6672V4.49958H12.1909V2.99976Z" fill="#282828"/>
<path d="M12.1909 1.49976H10.6672V2.99958H12.1909V1.49976Z" fill="white"/>
<path d="M12.1909 0H10.6672V1.49983H12.1909V0Z" fill="#111111"/>
<path d="M10.6673 37.5002H9.14209V39.0001H10.6673V37.5002Z" fill="#111111"/>
<path d="M10.6673 36.0002H9.14209V37.5001H10.6673V36.0002Z" fill="white"/>
<path d="M10.6673 34.499H9.14209V36.0004H10.6673V34.499Z" fill="white"/>
<path d="M10.6673 32.9993H9.14209V34.4991H10.6673V32.9993Z" fill="white"/>
<path d="M10.6673 31.4993H9.14209V32.9991H10.6673V31.4993Z" fill="white"/>
<path d="M10.6673 29.9995H9.14209V31.4993H10.6673V29.9995Z" fill="white"/>
<path d="M10.6673 28.4998H9.14209V29.9996H10.6673V28.4998Z" fill="white"/>
<path d="M10.6673 27H9.14209V28.4998H10.6673V27Z" fill="white"/>
<path d="M10.6673 25.5H9.14209V26.9998H10.6673V25.5Z" fill="white"/>
<path d="M10.6673 24.0002H9.14209V25.5001H10.6673V24.0002Z" fill="#111111"/>
<path d="M10.6673 22.5005H9.14209V24.0003H10.6673V22.5005Z" fill="#282828"/>
<path d="M10.6673 21.0005H9.14209V22.5003H10.6673V21.0005Z" fill="#282828"/>
<path d="M10.6673 19.4993H9.14209V21.0006H10.6673V19.4993Z" fill="#282828"/>
<path d="M10.6673 17.9995H9.14209V19.4993H10.6673V17.9995Z" fill="#282828"/>
<path d="M10.6673 16.4995H9.14209V17.9993H10.6673V16.4995Z" fill="#282828"/>
<path d="M10.6673 14.9998H9.14209V16.4996H10.6673V14.9998Z" fill="#282828"/>
<path d="M10.6673 13.5H9.14209V14.9998H10.6673V13.5Z" fill="#111111"/>
<path d="M10.6673 12H9.14209V13.4998H10.6673V12Z" fill="#282828"/>
<path d="M10.6673 10.5002H9.14209V12.0001H10.6673V10.5002Z" fill="#282828"/>
<path d="M10.6673 9.00049H9.14209V10.5003H10.6673V9.00049Z" fill="#282828"/>
<path d="M10.6673 7.50073H9.14209V9.00056H10.6673V7.50073Z" fill="#282828"/>
<path d="M10.6673 6.00073H9.14209V7.50056H10.6673V6.00073Z" fill="#282828"/>
<path d="M10.6673 4.49951H9.14209V6.00085H10.6673V4.49951Z" fill="#282828"/>
<path d="M10.6673 2.99976H9.14209V4.49958H10.6673V2.99976Z" fill="#282828"/>
<path d="M10.6673 1.49976H9.14209V2.99958H10.6673V1.49976Z" fill="white"/>
<path d="M10.6673 0H9.14209V1.49983H10.6673V0Z" fill="#111111"/>
<path d="M9.14207 37.5002H7.61841V39.0001H9.14207V37.5002Z" fill="#111111"/>
<path d="M9.14207 36.0002H7.61841V37.5001H9.14207V36.0002Z" fill="white"/>
<path d="M9.14207 34.499H7.61841V36.0004H9.14207V34.499Z" fill="white"/>
<path d="M9.14207 32.9993H7.61841V34.4991H9.14207V32.9993Z" fill="white"/>
<path d="M9.14207 31.4993H7.61841V32.9991H9.14207V31.4993Z" fill="white"/>
<path d="M9.14207 29.9995H7.61841V31.4993H9.14207V29.9995Z" fill="#FFC885"/>
<path d="M9.14207 28.4998H7.61841V29.9996H9.14207V28.4998Z" fill="white"/>
<path d="M9.14207 27H7.61841V28.4998H9.14207V27Z" fill="white"/>
<path d="M9.14207 25.5H7.61841V26.9998H9.14207V25.5Z" fill="#111111"/>
<path d="M9.14207 24.0002H7.61841V25.5001H9.14207V24.0002Z" fill="#111111"/>
<path d="M9.14207 22.5005H7.61841V24.0003H9.14207V22.5005Z" fill="#111111"/>
<path d="M9.14207 21.0005H7.61841V22.5003H9.14207V21.0005Z" fill="#282828"/>
<path d="M9.14207 19.4993H7.61841V21.0006H9.14207V19.4993Z" fill="#282828"/>
<path d="M9.14207 17.9995H7.61841V19.4993H9.14207V17.9995Z" fill="#282828"/>
<path d="M9.14207 16.4995H7.61841V17.9993H9.14207V16.4995Z" fill="#111111"/>
<path d="M9.14207 14.9998H7.61841V16.4996H9.14207V14.9998Z" fill="#111111"/>
<path d="M9.14207 13.5H7.61841V14.9998H9.14207V13.5Z" fill="#FFC885"/>
<path d="M9.14207 12H7.61841V13.4998H9.14207V12Z" fill="#111111"/>
<path d="M9.14207 10.5002H7.61841V12.0001H9.14207V10.5002Z" fill="#111111"/>
<path d="M9.14207 9.00049H7.61841V10.5003H9.14207V9.00049Z" fill="#111111"/>
<path d="M9.14207 7.50073H7.61841V9.00056H9.14207V7.50073Z" fill="#111111"/>
<path d="M9.14207 6.00073H7.61841V7.50056H9.14207V6.00073Z" fill="#111111"/>
<path d="M9.14207 4.49951H7.61841V6.00085H9.14207V4.49951Z" fill="#111111"/>
<path d="M9.14207 2.99976H7.61841V4.49958H9.14207V2.99976Z" fill="#111111"/>
<path d="M9.14207 1.49976H7.61841V2.99958H9.14207V1.49976Z" fill="#111111"/>
<path d="M7.61839 37.5002H6.09473V39.0001H7.61839V37.5002Z" fill="#111111"/>
<path d="M7.61839 36.0002H6.09473V37.5001H7.61839V36.0002Z" fill="white"/>
<path d="M7.61839 34.499H6.09473V36.0004H7.61839V34.499Z" fill="white"/>
<path d="M7.61839 32.9993H6.09473V34.4991H7.61839V32.9993Z" fill="white"/>
<path d="M7.61839 31.4993H6.09473V32.9991H7.61839V31.4993Z" fill="#FFC885"/>
<path d="M7.61839 29.9995H6.09473V31.4993H7.61839V29.9995Z" fill="white"/>
<path d="M7.61839 28.4998H6.09473V29.9996H7.61839V28.4998Z" fill="white"/>
<path d="M7.61839 27H6.09473V28.4998H7.61839V27Z" fill="#111111"/>
<path d="M7.61839 25.5H6.09473V26.9998H7.61839V25.5Z" fill="#282828"/>
<path d="M7.61839 24.0002H6.09473V25.5001H7.61839V24.0002Z" fill="#111111"/>
<path d="M7.61839 22.5005H6.09473V24.0003H7.61839V22.5005Z" fill="#FFC885"/>
<path d="M7.61839 21.0005H6.09473V22.5003H7.61839V21.0005Z" fill="#111111"/>
<path d="M7.61839 19.4993H6.09473V21.0006H7.61839V19.4993Z" fill="#111111"/>
<path d="M7.61839 17.9995H6.09473V19.4993H7.61839V17.9995Z" fill="#111111"/>
<path d="M7.61839 16.4995H6.09473V17.9993H7.61839V16.4995Z" fill="#FFC885"/>
<path d="M7.61839 14.9998H6.09473V16.4996H7.61839V14.9998Z" fill="#FFC885"/>
<path d="M7.61839 13.5H6.09473V14.9998H7.61839V13.5Z" fill="#FFC885"/>
<path d="M7.61839 12H6.09473V13.4998H7.61839V12Z" fill="#111111"/>
<path d="M6.09471 37.5002H4.57104V39.0001H6.09471V37.5002Z" fill="#111111"/>
<path d="M6.09471 36.0002H4.57104V37.5001H6.09471V36.0002Z" fill="white"/>
<path d="M6.09471 34.499H4.57104V36.0004H6.09471V34.499Z" fill="white"/>
<path d="M6.09471 32.9993H4.57104V34.4991H6.09471V32.9993Z" fill="#FFC885"/>
<path d="M6.09471 31.4993H4.57104V32.9991H6.09471V31.4993Z" fill="white"/>
<path d="M6.09471 29.9995H4.57104V31.4993H6.09471V29.9995Z" fill="white"/>
<path d="M6.09471 28.4998H4.57104V29.9996H6.09471V28.4998Z" fill="white"/>
<path d="M6.09471 27H4.57104V28.4998H6.09471V27Z" fill="#111111"/>
<path d="M6.09471 25.5H4.57104V26.9998H6.09471V25.5Z" fill="#282828"/>
<path d="M6.09471 24.0002H4.57104V25.5001H6.09471V24.0002Z" fill="#111111"/>
<path d="M6.09471 22.5005H4.57104V24.0003H6.09471V22.5005Z" fill="#FFC885"/>
<path d="M6.09471 21.0005H4.57104V22.5003H6.09471V21.0005Z" fill="#FFC885"/>
<path d="M6.09471 19.4993H4.57104V21.0006H6.09471V19.4993Z" fill="#FFC885"/>
<path d="M6.09471 17.9995H4.57104V19.4993H6.09471V17.9995Z" fill="#FFC885"/>
<path d="M6.09471 16.4995H4.57104V17.9993H6.09471V16.4995Z" fill="#FFC885"/>
<path d="M6.09471 14.9998H4.57104V16.4996H6.09471V14.9998Z" fill="#FFC885"/>
<path d="M6.09471 13.5H4.57104V14.9998H6.09471V13.5Z" fill="#111111"/>
<path d="M4.57103 37.5002H3.04736V39.0001H4.57103V37.5002Z" fill="#111111"/>
<path d="M4.57103 36.0002H3.04736V37.5001H4.57103V36.0002Z" fill="white"/>
<path d="M4.57103 34.499H3.04736V36.0004H4.57103V34.499Z" fill="#FFC885"/>
<path d="M4.57103 32.9993H3.04736V34.4991H4.57103V32.9993Z" fill="white"/>
<path d="M4.57103 31.4993H3.04736V32.9991H4.57103V31.4993Z" fill="white"/>
<path d="M4.57103 29.9995H3.04736V31.4993H4.57103V29.9995Z" fill="white"/>
<path d="M4.57103 28.4998H3.04736V29.9996H4.57103V28.4998Z" fill="white"/>
<path d="M4.57103 27H3.04736V28.4998H4.57103V27Z" fill="#111111"/>
<path d="M4.57103 25.5H3.04736V26.9998H4.57103V25.5Z" fill="#111111"/>
<path d="M4.57103 24.0002H3.04736V25.5001H4.57103V24.0002Z" fill="#111111"/>
<path d="M4.57103 22.5005H3.04736V24.0003H4.57103V22.5005Z" fill="white"/>
<path d="M4.57103 21.0005H3.04736V22.5003H4.57103V21.0005Z" fill="#FFC885"/>
<path d="M4.57103 19.4993H3.04736V21.0006H4.57103V19.4993Z" fill="#FFC885"/>
<path d="M4.57103 17.9995H3.04736V19.4993H4.57103V17.9995Z" fill="#FFC885"/>
<path d="M4.57103 16.4995H3.04736V17.9993H4.57103V16.4995Z" fill="#FFC885"/>
<path d="M4.57103 14.9998H3.04736V16.4996H4.57103V14.9998Z" fill="#111111"/>
<path d="M3.04734 37.5002H1.52368V39.0001H3.04734V37.5002Z" fill="#111111"/>
<path d="M3.04734 36.0002H1.52368V37.5001H3.04734V36.0002Z" fill="#FFC885"/>
<path d="M3.04734 34.499H1.52368V36.0004H3.04734V34.499Z" fill="white"/>
<path d="M3.04734 32.9993H1.52368V34.4991H3.04734V32.9993Z" fill="white"/>
<path d="M3.04734 31.4993H1.52368V32.9991H3.04734V31.4993Z" fill="white"/>
<path d="M3.04734 29.9995H1.52368V31.4993H3.04734V29.9995Z" fill="white"/>
<path d="M3.04734 28.4998H1.52368V29.9996H3.04734V28.4998Z" fill="white"/>
<path d="M3.04734 27H1.52368V28.4998H3.04734V27Z" fill="white"/>
<path d="M3.04734 25.5H1.52368V26.9998H3.04734V25.5Z" fill="white"/>
<path d="M3.04734 24.0002H1.52368V25.5001H3.04734V24.0002Z" fill="white"/>
<path d="M3.04734 22.5005H1.52368V24.0003H3.04734V22.5005Z" fill="white"/>
<path d="M3.04734 21.0005H1.52368V22.5003H3.04734V21.0005Z" fill="white"/>
<path d="M3.04734 19.4993H1.52368V21.0006H3.04734V19.4993Z" fill="#FFC885"/>
<path d="M3.04734 17.9995H1.52368V19.4993H3.04734V17.9995Z" fill="#FFC885"/>
<path d="M3.04734 16.4995H1.52368V17.9993H3.04734V16.4995Z" fill="#111111"/>
<path d="M1.52366 36.0002H0V37.5001H1.52366V36.0002Z" fill="#111111"/>
<path d="M1.52366 34.499H0V36.0004H1.52366V34.499Z" fill="#111111"/>
<path d="M1.52366 32.9993H0V34.4991H1.52366V32.9993Z" fill="#111111"/>
<path d="M1.52366 31.4993H0V32.9991H1.52366V31.4993Z" fill="#111111"/>
<path d="M1.52366 29.9995H0V31.4993H1.52366V29.9995Z" fill="#111111"/>
<path d="M1.52366 28.4998H0V29.9996H1.52366V28.4998Z" fill="#111111"/>
<path d="M1.52366 27H0V28.4998H1.52366V27Z" fill="#111111"/>
<path d="M1.52366 25.5H0V26.9998H1.52366V25.5Z" fill="#111111"/>
<path d="M1.52366 24.0002H0V25.5001H1.52366V24.0002Z" fill="#111111"/>
<path d="M1.52366 22.5005H0V24.0003H1.52366V22.5005Z" fill="#111111"/>
<path d="M1.52366 21.0005H0V22.5003H1.52366V21.0005Z" fill="#111111"/>
<path d="M1.52366 19.4993H0V21.0006H1.52366V19.4993Z" fill="#111111"/>
<path d="M1.52366 17.9995H0V19.4993H1.52366V17.9995Z" fill="#111111"/>
</g>
<defs>
<clipPath id="clip0_1172_25033">
<rect width="32" height="39" fill="white"/>
</clipPath>
</defs>
</svg>
