<svg width="34" height="34" viewBox="0 0 34 34" fill="none" xmlns="http://www.w3.org/2000/svg">
<g clip-path="url(#clip0_504_2115)">
<path d="M34.0001 30.4213H32.1113V32.2106H34.0001V30.4213Z" fill="#111111"/>
<path d="M34.0001 28.6318H32.1113V30.4212H34.0001V28.6318Z" fill="#111111"/>
<path d="M34.0001 26.8425H32.1113V28.6318H34.0001V26.8425Z" fill="#111111"/>
<path d="M34.0001 25.0531H32.1113V26.8425H34.0001V25.0531Z" fill="#111111"/>
<path d="M34.0001 23.2637H32.1113V25.0531H34.0001V23.2637Z" fill="#111111"/>
<path d="M34.0001 21.4744H32.1113V23.2637H34.0001V21.4744Z" fill="#111111"/>
<path d="M34.0001 19.685H32.1113V21.4744H34.0001V19.685Z" fill="#111111"/>
<path d="M34.0001 17.8956H32.1113V19.6849H34.0001V17.8956Z" fill="#111111"/>
<path d="M34.0001 16.1044H32.1113V17.8956H34.0001V16.1044Z" fill="#111111"/>
<path d="M34.0001 14.315H32.1113V16.1044H34.0001V14.315Z" fill="#111111"/>
<path d="M34.0001 12.5256H32.1113V14.315H34.0001V12.5256Z" fill="#111111"/>
<path d="M32.1114 32.2106H30.2227V34H32.1114V32.2106Z" fill="#111111"/>
<path d="M32.1114 30.4213H30.2227V32.2106H32.1114V30.4213Z" fill="#FFC885"/>
<path d="M32.1114 28.6318H30.2227V30.4212H32.1114V28.6318Z" fill="white"/>
<path d="M32.1114 26.8425H30.2227V28.6318H32.1114V26.8425Z" fill="white"/>
<path d="M32.1114 25.0531H30.2227V26.8425H32.1114V25.0531Z" fill="white"/>
<path d="M32.1114 23.2637H30.2227V25.0531H32.1114V23.2637Z" fill="white"/>
<path d="M32.1114 21.4744H30.2227V23.2637H32.1114V21.4744Z" fill="white"/>
<path d="M32.1114 19.685H30.2227V21.4744H32.1114V19.685Z" fill="white"/>
<path d="M32.1114 17.8956H30.2227V19.6849H32.1114V17.8956Z" fill="white"/>
<path d="M32.1114 16.1044H30.2227V17.8956H32.1114V16.1044Z" fill="white"/>
<path d="M32.1114 14.315H30.2227V16.1044H32.1114V14.315Z" fill="white"/>
<path d="M32.1114 12.5256H30.2227V14.315H32.1114V12.5256Z" fill="#FFC885"/>
<path d="M32.1114 10.7363H30.2227V12.5256H32.1114V10.7363Z" fill="#111111"/>
<path d="M30.2223 32.2106H28.3335V34H30.2223V32.2106Z" fill="#111111"/>
<path d="M30.2223 30.4213H28.3335V32.2106H30.2223V30.4213Z" fill="white"/>
<path d="M30.2223 28.6318H28.3335V30.4212H30.2223V28.6318Z" fill="#FFC885"/>
<path d="M30.2223 26.8425H28.3335V28.6318H30.2223V26.8425Z" fill="white"/>
<path d="M30.2223 25.0531H28.3335V26.8425H30.2223V25.0531Z" fill="white"/>
<path d="M30.2223 23.2637H28.3335V25.0531H30.2223V23.2637Z" fill="white"/>
<path d="M30.2223 21.4744H28.3335V23.2637H30.2223V21.4744Z" fill="white"/>
<path d="M30.2223 19.685H28.3335V21.4744H30.2223V19.685Z" fill="white"/>
<path d="M30.2223 17.8956H28.3335V19.6849H30.2223V17.8956Z" fill="white"/>
<path d="M30.2223 16.1044H28.3335V17.8956H30.2223V16.1044Z" fill="white"/>
<path d="M30.2223 14.315H28.3335V16.1044H30.2223V14.315Z" fill="#FFC885"/>
<path d="M30.2223 12.5256H28.3335V14.315H30.2223V12.5256Z" fill="#FFC885"/>
<path d="M30.2223 10.7363H28.3335V12.5256H30.2223V10.7363Z" fill="#FFC885"/>
<path d="M30.2223 8.9469H28.3335V10.7363H30.2223V8.9469Z" fill="#111111"/>
<path d="M28.3336 32.2106H26.4448V34H28.3336V32.2106Z" fill="#111111"/>
<path d="M28.3336 30.4213H26.4448V32.2106H28.3336V30.4213Z" fill="white"/>
<path d="M28.3336 28.6318H26.4448V30.4212H28.3336V28.6318Z" fill="white"/>
<path d="M28.3336 26.8425H26.4448V28.6318H28.3336V26.8425Z" fill="#FFC885"/>
<path d="M28.3336 25.0531H26.4448V26.8425H28.3336V25.0531Z" fill="white"/>
<path d="M28.3336 23.2637H26.4448V25.0531H28.3336V23.2637Z" fill="white"/>
<path d="M28.3336 21.4744H26.4448V23.2637H28.3336V21.4744Z" fill="white"/>
<path d="M28.3336 19.685H26.4448V21.4744H28.3336V19.685Z" fill="white"/>
<path d="M28.3336 17.8956H26.4448V19.6849H28.3336V17.8956Z" fill="white"/>
<path d="M28.3336 16.1044H26.4448V17.8956H28.3336V16.1044Z" fill="#FFC885"/>
<path d="M28.3336 14.315H26.4448V16.1044H28.3336V14.315Z" fill="#FFC885"/>
<path d="M28.3336 12.5256H26.4448V14.315H28.3336V12.5256Z" fill="#FFC885"/>
<path d="M28.3336 10.7363H26.4448V12.5256H28.3336V10.7363Z" fill="#FFC885"/>
<path d="M28.3336 8.9469H26.4448V10.7363H28.3336V8.9469Z" fill="#FFC885"/>
<path d="M28.3336 7.15753H26.4448V8.94691H28.3336V7.15753Z" fill="#111111"/>
<path d="M26.4449 32.2106H24.5562V34H26.4449V32.2106Z" fill="#111111"/>
<path d="M26.4449 30.4213H24.5562V32.2106H26.4449V30.4213Z" fill="white"/>
<path d="M26.4449 28.6318H24.5562V30.4212H26.4449V28.6318Z" fill="white"/>
<path d="M26.4449 26.8425H24.5562V28.6318H26.4449V26.8425Z" fill="white"/>
<path d="M26.4449 25.0531H24.5562V26.8425H26.4449V25.0531Z" fill="#FFC885"/>
<path d="M26.4449 23.2637H24.5562V25.0531H26.4449V23.2637Z" fill="white"/>
<path d="M26.4449 21.4744H24.5562V23.2637H26.4449V21.4744Z" fill="white"/>
<path d="M26.4449 19.685H24.5562V21.4744H26.4449V19.685Z" fill="white"/>
<path d="M26.4449 17.8956H24.5562V19.6849H26.4449V17.8956Z" fill="#FFC885"/>
<path d="M26.4449 16.1044H24.5562V17.8956H26.4449V16.1044Z" fill="#FFC885"/>
<path d="M26.4449 14.315H24.5562V16.1044H26.4449V14.315Z" fill="#FFC885"/>
<path d="M26.4449 12.5256H24.5562V14.315H26.4449V12.5256Z" fill="#FFC885"/>
<path d="M26.4449 10.7363H24.5562V12.5256H26.4449V10.7363Z" fill="#FFC885"/>
<path d="M26.4449 8.9469H24.5562V10.7363H26.4449V8.9469Z" fill="#FFC885"/>
<path d="M26.4449 7.15753H24.5562V8.94691H26.4449V7.15753Z" fill="#FFC885"/>
<path d="M26.4449 5.36816H24.5562V7.15754H26.4449V5.36816Z" fill="#111111"/>
<path d="M24.5563 32.2106H22.6675V34H24.5563V32.2106Z" fill="#111111"/>
<path d="M24.5563 30.4213H22.6675V32.2106H24.5563V30.4213Z" fill="white"/>
<path d="M24.5563 28.6318H22.6675V30.4212H24.5563V28.6318Z" fill="white"/>
<path d="M24.5563 26.8425H22.6675V28.6318H24.5563V26.8425Z" fill="white"/>
<path d="M24.5563 25.0531H22.6675V26.8425H24.5563V25.0531Z" fill="white"/>
<path d="M24.5563 23.2637H22.6675V25.0531H24.5563V23.2637Z" fill="#FFC885"/>
<path d="M24.5563 21.4744H22.6675V23.2637H24.5563V21.4744Z" fill="white"/>
<path d="M24.5563 19.685H22.6675V21.4744H24.5563V19.685Z" fill="#FF0000"/>
<path d="M24.5563 17.8956H22.6675V19.6849H24.5563V17.8956Z" fill="#FF0000"/>
<path d="M24.5563 16.1044H22.6675V17.8956H24.5563V16.1044Z" fill="#FF0000"/>
<path d="M24.5563 14.315H22.6675V16.1044H24.5563V14.315Z" fill="#FFC885"/>
<path d="M24.5563 12.5256H22.6675V14.315H24.5563V12.5256Z" fill="#FFC885"/>
<path d="M24.5563 10.7363H22.6675V12.5256H24.5563V10.7363Z" fill="#FFC885"/>
<path d="M24.5563 8.9469H22.6675V10.7363H24.5563V8.9469Z" fill="#FFC885"/>
<path d="M24.5563 7.15753H22.6675V8.94691H24.5563V7.15753Z" fill="#FFC885"/>
<path d="M24.5563 5.36816H22.6675V7.15754H24.5563V5.36816Z" fill="#FFC885"/>
<path d="M24.5563 3.57874H22.6675V5.36811H24.5563V3.57874Z" fill="#111111"/>
<path d="M22.6671 32.2106H20.7783V34H22.6671V32.2106Z" fill="#111111"/>
<path d="M22.6671 30.4213H20.7783V32.2106H22.6671V30.4213Z" fill="white"/>
<path d="M22.6671 28.6318H20.7783V30.4212H22.6671V28.6318Z" fill="white"/>
<path d="M22.6671 26.8425H20.7783V28.6318H22.6671V26.8425Z" fill="white"/>
<path d="M22.6671 25.0531H20.7783V26.8425H22.6671V25.0531Z" fill="white"/>
<path d="M22.6671 23.2637H20.7783V25.0531H22.6671V23.2637Z" fill="white"/>
<path d="M22.6671 21.4744H20.7783V23.2637H22.6671V21.4744Z" fill="#FF0000"/>
<path d="M22.6671 19.685H20.7783V21.4744H22.6671V19.685Z" fill="#FF0000"/>
<path d="M22.6671 17.8956H20.7783V19.6849H22.6671V17.8956Z" fill="#FF0000"/>
<path d="M22.6671 16.1044H20.7783V17.8956H22.6671V16.1044Z" fill="#FF0000"/>
<path d="M22.6671 14.315H20.7783V16.1044H22.6671V14.315Z" fill="#FF0000"/>
<path d="M22.6671 12.5256H20.7783V14.315H22.6671V12.5256Z" fill="#FFC885"/>
<path d="M22.6671 10.7363H20.7783V12.5256H22.6671V10.7363Z" fill="#FFC885"/>
<path d="M22.6671 8.9469H20.7783V10.7363H22.6671V8.9469Z" fill="#FFC885"/>
<path d="M22.6671 7.15753H20.7783V8.94691H22.6671V7.15753Z" fill="#FFC885"/>
<path d="M22.6671 5.36816H20.7783V7.15754H22.6671V5.36816Z" fill="#FFC885"/>
<path d="M22.6671 3.57874H20.7783V5.36811H22.6671V3.57874Z" fill="#FFC885"/>
<path d="M22.6671 1.78937H20.7783V3.57875H22.6671V1.78937Z" fill="#111111"/>
<path d="M20.7784 32.2106H18.8896V34H20.7784V32.2106Z" fill="#111111"/>
<path d="M20.7784 30.4213H18.8896V32.2106H20.7784V30.4213Z" fill="white"/>
<path d="M20.7784 28.6318H18.8896V30.4212H20.7784V28.6318Z" fill="white"/>
<path d="M20.7784 26.8425H18.8896V28.6318H20.7784V26.8425Z" fill="white"/>
<path d="M20.7784 25.0531H18.8896V26.8425H20.7784V25.0531Z" fill="white"/>
<path d="M20.7784 23.2637H18.8896V25.0531H20.7784V23.2637Z" fill="#FF0000"/>
<path d="M20.7784 21.4744H18.8896V23.2637H20.7784V21.4744Z" fill="#FF0000"/>
<path d="M20.7784 19.685H18.8896V21.4744H20.7784V19.685Z" fill="#FF0000"/>
<path d="M20.7784 17.8956H18.8896V19.6849H20.7784V17.8956Z" fill="#FF0000"/>
<path d="M20.7784 16.1044H18.8896V17.8956H20.7784V16.1044Z" fill="#FF0000"/>
<path d="M20.7784 14.315H18.8896V16.1044H20.7784V14.315Z" fill="#FF0000"/>
<path d="M20.7784 12.5256H18.8896V14.315H20.7784V12.5256Z" fill="#FFC885"/>
<path d="M20.7784 10.7363H18.8896V12.5256H20.7784V10.7363Z" fill="#FFC885"/>
<path d="M20.7784 8.9469H18.8896V10.7363H20.7784V8.9469Z" fill="#FFC885"/>
<path d="M20.7784 7.15753H18.8896V8.94691H20.7784V7.15753Z" fill="#FFC885"/>
<path d="M20.7784 5.36816H18.8896V7.15754H20.7784V5.36816Z" fill="#FFC885"/>
<path d="M20.7784 3.57874H18.8896V5.36811H20.7784V3.57874Z" fill="#FFC885"/>
<path d="M20.7784 1.78937H18.8896V3.57875H20.7784V1.78937Z" fill="#FFC885"/>
<path d="M18.8898 32.2106H17.001V34H18.8898V32.2106Z" fill="#111111"/>
<path d="M18.8898 30.4213H17.001V32.2106H18.8898V30.4213Z" fill="white"/>
<path d="M18.8898 28.6318H17.001V30.4212H18.8898V28.6318Z" fill="white"/>
<path d="M18.8898 26.8425H17.001V28.6318H18.8898V26.8425Z" fill="white"/>
<path d="M18.8898 25.0531H17.001V26.8425H18.8898V25.0531Z" fill="white"/>
<path d="M18.8898 23.2637H17.001V25.0531H18.8898V23.2637Z" fill="#FF0000"/>
<path d="M18.8898 21.4744H17.001V23.2637H18.8898V21.4744Z" fill="#FF0000"/>
<path d="M18.8898 19.685H17.001V21.4744H18.8898V19.685Z" fill="#FF0000"/>
<path d="M18.8898 17.8956H17.001V19.6849H18.8898V17.8956Z" fill="#FF0000"/>
<path d="M18.8898 16.1044H17.001V17.8956H18.8898V16.1044Z" fill="#FF0000"/>
<path d="M18.8898 14.315H17.001V16.1044H18.8898V14.315Z" fill="#FFC885"/>
<path d="M18.8898 12.5256H17.001V14.315H18.8898V12.5256Z" fill="#FFC885"/>
<path d="M18.8898 10.7363H17.001V12.5256H18.8898V10.7363Z" fill="#FFC885"/>
<path d="M18.8898 8.9469H17.001V10.7363H18.8898V8.9469Z" fill="#FFC885"/>
<path d="M18.8898 7.15753H17.001V8.94691H18.8898V7.15753Z" fill="#FFC885"/>
<path d="M18.8898 5.36816H17.001V7.15754H18.8898V5.36816Z" fill="#FFC885"/>
<path d="M18.8898 3.57874H17.001V5.36811H18.8898V3.57874Z" fill="#FFC885"/>
<path d="M18.8898 1.78937H17.001V3.57875H18.8898V1.78937Z" fill="#FFC885"/>
<path d="M18.8898 0H17.001V1.78938H18.8898V0Z" fill="#111111"/>
<path d="M20.7784 0H18.8896V1.78938H20.7784V0Z" fill="#111111"/>
<path d="M17.001 32.2106H15.1104V34H17.001V32.2106Z" fill="#111111"/>
<path d="M17.001 30.4213H15.1104V32.2106H17.001V30.4213Z" fill="white"/>
<path d="M17.001 28.6318H15.1104V30.4212H17.001V28.6318Z" fill="white"/>
<path d="M17.001 26.8425H15.1104V28.6318H17.001V26.8425Z" fill="white"/>
<path d="M17.001 25.0531H15.1104V26.8425H17.001V25.0531Z" fill="white"/>
<path d="M17.001 23.2637H15.1104V25.0531H17.001V23.2637Z" fill="#FF0000"/>
<path d="M17.001 21.4744H15.1104V23.2637H17.001V21.4744Z" fill="#FF0000"/>
<path d="M17.001 19.685H15.1104V21.4744H17.001V19.685Z" fill="#FF0000"/>
<path d="M17.001 17.8956H15.1104V19.6849H17.001V17.8956Z" fill="#FF0000"/>
<path d="M17.001 16.1044H15.1104V17.8956H17.001V16.1044Z" fill="#FF0000"/>
<path d="M17.001 14.315H15.1104V16.1044H17.001V14.315Z" fill="#FFC885"/>
<path d="M17.001 12.5256H15.1104V14.315H17.001V12.5256Z" fill="#FFC885"/>
<path d="M17.001 10.7363H15.1104V12.5256H17.001V10.7363Z" fill="#FFC885"/>
<path d="M17.001 8.9469H15.1104V10.7363H17.001V8.9469Z" fill="#FFC885"/>
<path d="M17.001 7.15753H15.1104V8.94691H17.001V7.15753Z" fill="#FFC885"/>
<path d="M17.001 5.36816H15.1104V7.15754H17.001V5.36816Z" fill="#FFC885"/>
<path d="M17.001 3.57874H15.1104V5.36811H17.001V3.57874Z" fill="#FFC885"/>
<path d="M17.001 1.78937H15.1104V3.57875H17.001V1.78937Z" fill="#FFC885"/>
<path d="M17.001 0H15.1104V1.78938H17.001V0Z" fill="#111111"/>
<path d="M15.1105 32.2106H13.2217V34H15.1105V32.2106Z" fill="#111111"/>
<path d="M15.1105 30.4213H13.2217V32.2106H15.1105V30.4213Z" fill="white"/>
<path d="M15.1105 28.6318H13.2217V30.4212H15.1105V28.6318Z" fill="white"/>
<path d="M15.1105 26.8425H13.2217V28.6318H15.1105V26.8425Z" fill="white"/>
<path d="M15.1105 25.0531H13.2217V26.8425H15.1105V25.0531Z" fill="white"/>
<path d="M15.1105 23.2637H13.2217V25.0531H15.1105V23.2637Z" fill="#FF0000"/>
<path d="M15.1105 21.4744H13.2217V23.2637H15.1105V21.4744Z" fill="#FF0000"/>
<path d="M15.1105 19.685H13.2217V21.4744H15.1105V19.685Z" fill="#FF0000"/>
<path d="M15.1105 17.8956H13.2217V19.6849H15.1105V17.8956Z" fill="#FF0000"/>
<path d="M15.1105 16.1044H13.2217V17.8956H15.1105V16.1044Z" fill="#FF0000"/>
<path d="M15.1105 14.315H13.2217V16.1044H15.1105V14.315Z" fill="#FF0000"/>
<path d="M15.1105 12.5256H13.2217V14.315H15.1105V12.5256Z" fill="#FFC885"/>
<path d="M15.1105 10.7363H13.2217V12.5256H15.1105V10.7363Z" fill="#FFC885"/>
<path d="M15.1105 8.9469H13.2217V10.7363H15.1105V8.9469Z" fill="#FFC885"/>
<path d="M15.1105 7.15753H13.2217V8.94691H15.1105V7.15753Z" fill="#FFC885"/>
<path d="M15.1105 5.36816H13.2217V7.15754H15.1105V5.36816Z" fill="#FFC885"/>
<path d="M15.1105 3.57874H13.2217V5.36811H15.1105V3.57874Z" fill="#FFC885"/>
<path d="M15.1105 1.78937H13.2217V3.57875H15.1105V1.78937Z" fill="#FFC885"/>
<path d="M15.1105 0H13.2217V1.78938H15.1105V0Z" fill="#111111"/>
<path d="M13.2213 32.2106H11.3325V34H13.2213V32.2106Z" fill="#111111"/>
<path d="M13.2213 30.4213H11.3325V32.2106H13.2213V30.4213Z" fill="white"/>
<path d="M13.2213 28.6318H11.3325V30.4212H13.2213V28.6318Z" fill="white"/>
<path d="M13.2213 26.8425H11.3325V28.6318H13.2213V26.8425Z" fill="white"/>
<path d="M13.2213 25.0531H11.3325V26.8425H13.2213V25.0531Z" fill="white"/>
<path d="M13.2213 23.2637H11.3325V25.0531H13.2213V23.2637Z" fill="white"/>
<path d="M13.2213 21.4744H11.3325V23.2637H13.2213V21.4744Z" fill="#FF0000"/>
<path d="M13.2213 19.685H11.3325V21.4744H13.2213V19.685Z" fill="#FF0000"/>
<path d="M13.2213 17.8956H11.3325V19.6849H13.2213V17.8956Z" fill="#FF0000"/>
<path d="M13.2213 16.1044H11.3325V17.8956H13.2213V16.1044Z" fill="#FF0000"/>
<path d="M13.2213 14.315H11.3325V16.1044H13.2213V14.315Z" fill="#FF0000"/>
<path d="M13.2213 12.5256H11.3325V14.315H13.2213V12.5256Z" fill="#FFC885"/>
<path d="M13.2213 10.7363H11.3325V12.5256H13.2213V10.7363Z" fill="#FFC885"/>
<path d="M13.2213 8.9469H11.3325V10.7363H13.2213V8.9469Z" fill="#FFC885"/>
<path d="M13.2213 7.15753H11.3325V8.94691H13.2213V7.15753Z" fill="#FFC885"/>
<path d="M13.2213 5.36816H11.3325V7.15754H13.2213V5.36816Z" fill="#FFC885"/>
<path d="M13.2213 3.57874H11.3325V5.36811H13.2213V3.57874Z" fill="#FFC885"/>
<path d="M13.2213 1.78937H11.3325V3.57875H13.2213V1.78937Z" fill="#111111"/>
<path d="M11.3326 32.2106H9.44385V34H11.3326V32.2106Z" fill="#111111"/>
<path d="M11.3326 30.4213H9.44385V32.2106H11.3326V30.4213Z" fill="white"/>
<path d="M11.3326 28.6318H9.44385V30.4212H11.3326V28.6318Z" fill="white"/>
<path d="M11.3326 26.8425H9.44385V28.6318H11.3326V26.8425Z" fill="white"/>
<path d="M11.3326 25.0531H9.44385V26.8425H11.3326V25.0531Z" fill="white"/>
<path d="M11.3326 23.2637H9.44385V25.0531H11.3326V23.2637Z" fill="#FFC885"/>
<path d="M11.3326 21.4744H9.44385V23.2637H11.3326V21.4744Z" fill="white"/>
<path d="M11.3326 19.685H9.44385V21.4744H11.3326V19.685Z" fill="#FF0000"/>
<path d="M11.3326 17.8956H9.44385V19.6849H11.3326V17.8956Z" fill="#FF0000"/>
<path d="M11.3326 16.1044H9.44385V17.8956H11.3326V16.1044Z" fill="#FF0000"/>
<path d="M11.3326 14.315H9.44385V16.1044H11.3326V14.315Z" fill="#FFC885"/>
<path d="M11.3326 12.5256H9.44385V14.315H11.3326V12.5256Z" fill="#FFC885"/>
<path d="M11.3326 10.7363H9.44385V12.5256H11.3326V10.7363Z" fill="#FFC885"/>
<path d="M11.3326 8.9469H9.44385V10.7363H11.3326V8.9469Z" fill="#FFC885"/>
<path d="M11.3326 7.15753H9.44385V8.94691H11.3326V7.15753Z" fill="#FFC885"/>
<path d="M11.3326 5.36816H9.44385V7.15754H11.3326V5.36816Z" fill="#FFC885"/>
<path d="M11.3326 3.57874H9.44385V5.36811H11.3326V3.57874Z" fill="#111111"/>
<path d="M9.44396 32.2106H7.55518V34H9.44396V32.2106Z" fill="#111111"/>
<path d="M9.44396 30.4213H7.55518V32.2106H9.44396V30.4213Z" fill="white"/>
<path d="M9.44396 28.6318H7.55518V30.4212H9.44396V28.6318Z" fill="white"/>
<path d="M9.44396 26.8425H7.55518V28.6318H9.44396V26.8425Z" fill="white"/>
<path d="M9.44396 25.0531H7.55518V26.8425H9.44396V25.0531Z" fill="#FFC885"/>
<path d="M9.44396 23.2637H7.55518V25.0531H9.44396V23.2637Z" fill="white"/>
<path d="M9.44396 21.4744H7.55518V23.2637H9.44396V21.4744Z" fill="white"/>
<path d="M9.44396 19.685H7.55518V21.4744H9.44396V19.685Z" fill="white"/>
<path d="M9.44396 17.8956H7.55518V19.6849H9.44396V17.8956Z" fill="#FFC885"/>
<path d="M9.44396 16.1044H7.55518V17.8956H9.44396V16.1044Z" fill="#FFC885"/>
<path d="M9.44396 14.315H7.55518V16.1044H9.44396V14.315Z" fill="#FFC885"/>
<path d="M9.44396 12.5256H7.55518V14.315H9.44396V12.5256Z" fill="#FFC885"/>
<path d="M9.44396 10.7363H7.55518V12.5256H9.44396V10.7363Z" fill="#FFC885"/>
<path d="M9.44396 8.9469H7.55518V10.7363H9.44396V8.9469Z" fill="#FFC885"/>
<path d="M9.44396 7.15753H7.55518V8.94691H9.44396V7.15753Z" fill="#FFC885"/>
<path d="M9.44396 5.36816H7.55518V7.15754H9.44396V5.36816Z" fill="#111111"/>
<path d="M7.55529 32.2106H5.6665V34H7.55529V32.2106Z" fill="#111111"/>
<path d="M7.55529 30.4213H5.6665V32.2106H7.55529V30.4213Z" fill="white"/>
<path d="M7.55529 28.6318H5.6665V30.4212H7.55529V28.6318Z" fill="white"/>
<path d="M7.55529 26.8425H5.6665V28.6318H7.55529V26.8425Z" fill="#FFC885"/>
<path d="M7.55529 25.0531H5.6665V26.8425H7.55529V25.0531Z" fill="white"/>
<path d="M7.55529 23.2637H5.6665V25.0531H7.55529V23.2637Z" fill="white"/>
<path d="M7.55529 21.4744H5.6665V23.2637H7.55529V21.4744Z" fill="white"/>
<path d="M7.55529 19.685H5.6665V21.4744H7.55529V19.685Z" fill="white"/>
<path d="M7.55529 17.8956H5.6665V19.6849H7.55529V17.8956Z" fill="white"/>
<path d="M7.55529 16.1044H5.6665V17.8956H7.55529V16.1044Z" fill="#FFC885"/>
<path d="M7.55529 14.315H5.6665V16.1044H7.55529V14.315Z" fill="#FFC885"/>
<path d="M7.55529 12.5256H5.6665V14.315H7.55529V12.5256Z" fill="#FFC885"/>
<path d="M7.55529 10.7363H5.6665V12.5256H7.55529V10.7363Z" fill="#FFC885"/>
<path d="M7.55529 8.9469H5.6665V10.7363H7.55529V8.9469Z" fill="#FFC885"/>
<path d="M7.55529 7.15753H5.6665V8.94691H7.55529V7.15753Z" fill="#111111"/>
<path d="M5.66613 32.2106H3.77734V34H5.66613V32.2106Z" fill="#111111"/>
<path d="M5.66613 30.4213H3.77734V32.2106H5.66613V30.4213Z" fill="white"/>
<path d="M5.66613 28.6318H3.77734V30.4212H5.66613V28.6318Z" fill="#FFC885"/>
<path d="M5.66613 26.8425H3.77734V28.6318H5.66613V26.8425Z" fill="white"/>
<path d="M5.66613 25.0531H3.77734V26.8425H5.66613V25.0531Z" fill="white"/>
<path d="M5.66613 23.2637H3.77734V25.0531H5.66613V23.2637Z" fill="white"/>
<path d="M5.66613 21.4744H3.77734V23.2637H5.66613V21.4744Z" fill="white"/>
<path d="M5.66613 19.685H3.77734V21.4744H5.66613V19.685Z" fill="white"/>
<path d="M5.66613 17.8956H3.77734V19.6849H5.66613V17.8956Z" fill="white"/>
<path d="M5.66613 16.1044H3.77734V17.8956H5.66613V16.1044Z" fill="white"/>
<path d="M5.66613 14.315H3.77734V16.1044H5.66613V14.315Z" fill="#FFC885"/>
<path d="M5.66613 12.5256H3.77734V14.315H5.66613V12.5256Z" fill="#FFC885"/>
<path d="M5.66613 10.7363H3.77734V12.5256H5.66613V10.7363Z" fill="#FFC885"/>
<path d="M5.66613 8.9469H3.77734V10.7363H5.66613V8.9469Z" fill="#111111"/>
<path d="M3.77745 32.2106H1.88867V34H3.77745V32.2106Z" fill="#111111"/>
<path d="M3.77745 30.4213H1.88867V32.2106H3.77745V30.4213Z" fill="#FFC885"/>
<path d="M3.77745 28.6318H1.88867V30.4212H3.77745V28.6318Z" fill="white"/>
<path d="M3.77745 26.8425H1.88867V28.6318H3.77745V26.8425Z" fill="white"/>
<path d="M3.77745 25.0531H1.88867V26.8425H3.77745V25.0531Z" fill="white"/>
<path d="M3.77745 23.2637H1.88867V25.0531H3.77745V23.2637Z" fill="white"/>
<path d="M3.77745 21.4744H1.88867V23.2637H3.77745V21.4744Z" fill="white"/>
<path d="M3.77745 19.685H1.88867V21.4744H3.77745V19.685Z" fill="white"/>
<path d="M3.77745 17.8956H1.88867V19.6849H3.77745V17.8956Z" fill="white"/>
<path d="M3.77745 16.1044H1.88867V17.8956H3.77745V16.1044Z" fill="white"/>
<path d="M3.77745 14.315H1.88867V16.1044H3.77745V14.315Z" fill="white"/>
<path d="M3.77745 12.5256H1.88867V14.315H3.77745V12.5256Z" fill="#FFC885"/>
<path d="M3.77745 10.7363H1.88867V12.5256H3.77745V10.7363Z" fill="#111111"/>
<path d="M1.88878 30.4212H0V32.2106H1.88878V30.4212Z" fill="#111111"/>
<path d="M1.88878 28.6318H0V30.4212H1.88878V28.6318Z" fill="#111111"/>
<path d="M1.88878 26.8425H0V28.6318H1.88878V26.8425Z" fill="#111111"/>
<path d="M1.88878 25.0531H0V26.8425H1.88878V25.0531Z" fill="#111111"/>
<path d="M1.88878 23.2637H0V25.0531H1.88878V23.2637Z" fill="#111111"/>
<path d="M1.88878 21.4744H0V23.2637H1.88878V21.4744Z" fill="#111111"/>
<path d="M1.88878 19.6849H0V21.4743H1.88878V19.6849Z" fill="#111111"/>
<path d="M1.88878 17.8956H0V19.6849H1.88878V17.8956Z" fill="#111111"/>
<path d="M1.88878 16.1044H0V17.8956H1.88878V16.1044Z" fill="#111111"/>
<path d="M1.88878 14.315H0V16.1044H1.88878V14.315Z" fill="#111111"/>
<path d="M1.88878 12.5256H0V14.315H1.88878V12.5256Z" fill="#111111"/>
</g>
<defs>
<clipPath id="clip0_504_2115">
<rect width="34" height="34" fill="white"/>
</clipPath>
</defs>
</svg>
