<svg width="48" height="44" viewBox="0 0 48 44" fill="none" xmlns="http://www.w3.org/2000/svg">
<path d="M46.9991 30.8855H43.4609V34.4442H46.9991V30.8855Z" fill="#111111"/>
<path d="M46.9991 27.3308H43.4609V30.886H46.9991V27.3308Z" fill="#111111"/>
<path d="M46.9991 23.7751H43.4609V27.3303H46.9991V23.7751Z" fill="#111111"/>
<path d="M46.9991 20.2205H43.4609V23.7756H46.9991V20.2205Z" fill="#111111"/>
<path d="M46.9991 16.6648H43.4609V20.22H46.9991V16.6648Z" fill="#111111"/>
<path d="M46.9991 13.1101H43.4609V16.6653H46.9991V13.1101Z" fill="#111111"/>
<path d="M46.9991 9.55444H43.4609V13.1096H46.9991V9.55444Z" fill="#111111"/>
<path d="M43.462 34.4451H39.9238V38.0002H43.462V34.4451Z" fill="#111111"/>
<path d="M43.462 30.8855H39.9238V34.4442H43.462V30.8855Z" fill="white"/>
<path d="M43.462 27.3308H39.9238V30.886H43.462V27.3308Z" fill="white"/>
<path d="M43.462 23.7751H39.9238V27.3303H43.462V23.7751Z" fill="white"/>
<path d="M43.462 20.2205H39.9238V23.7756H43.462V20.2205Z" fill="white"/>
<path d="M43.462 16.6648H39.9238V20.22H43.462V16.6648Z" fill="white"/>
<path d="M43.462 13.1101H39.9238V16.6653H43.462V13.1101Z" fill="white"/>
<path d="M43.462 9.55444H39.9238V13.1096H43.462V9.55444Z" fill="#FFC885"/>
<path d="M43.462 5.99976H39.9238V9.55491H43.462V5.99976Z" fill="#111111"/>
<path d="M39.9249 34.4451H36.3867V38.0002H39.9249V34.4451Z" fill="#111111"/>
<path d="M39.9249 30.8855H36.3867V34.4442H39.9249V30.8855Z" fill="#FFC885"/>
<path d="M39.9249 27.3308H36.3867V30.886H39.9249V27.3308Z" fill="white"/>
<path d="M39.9249 23.7751H36.3867V27.3303H39.9249V23.7751Z" fill="white"/>
<path d="M39.9249 20.2205H36.3867V23.7756H39.9249V20.2205Z" fill="white"/>
<path d="M39.9249 16.6648H36.3867V20.22H39.9249V16.6648Z" fill="white"/>
<path d="M39.9249 13.1101H36.3867V16.6653H39.9249V13.1101Z" fill="#FFC885"/>
<path d="M39.9249 9.55444H36.3867V13.1096H39.9249V9.55444Z" fill="white"/>
<path d="M39.9249 5.99976H36.3867V9.55491H39.9249V5.99976Z" fill="#111111"/>
<path d="M36.3859 34.4451H32.8477V38.0002H36.3859V34.4451Z" fill="#111111"/>
<path d="M36.3859 30.8855H32.8477V34.4442H36.3859V30.8855Z" fill="white"/>
<path d="M36.3859 27.3308H32.8477V30.886H36.3859V27.3308Z" fill="white"/>
<path d="M36.3859 23.7751H32.8477V27.3303H36.3859V23.7751Z" fill="white"/>
<path d="M36.3859 20.2205H32.8477V23.7756H36.3859V20.2205Z" fill="white"/>
<path d="M36.3859 16.6648H32.8477V20.22H36.3859V16.6648Z" fill="white"/>
<path d="M36.3859 13.1101H32.8477V16.6653H36.3859V13.1101Z" fill="white"/>
<path d="M36.3859 9.55444H32.8477V13.1096H36.3859V9.55444Z" fill="white"/>
<path d="M36.3859 5.99976H32.8477V9.55491H36.3859V5.99976Z" fill="#111111"/>
<path d="M32.8487 34.4451H29.3105V38.0002H32.8487V34.4451Z" fill="#111111"/>
<path d="M32.8487 30.8855H29.3105V34.4442H32.8487V30.8855Z" fill="white"/>
<path d="M32.8487 13.1101H29.3105V16.6653H32.8487V13.1101Z" fill="white"/>
<path d="M32.8487 9.55444H29.3105V13.1096H32.8487V9.55444Z" fill="white"/>
<path d="M32.8487 5.99976H29.3105V9.55491H32.8487V5.99976Z" fill="#111111"/>
<path d="M29.3097 34.4451H25.7715V38.0002H29.3097V34.4451Z" fill="#111111"/>
<path d="M29.3097 30.8855H25.7715V34.4442H29.3097V30.8855Z" fill="white"/>
<path d="M29.3097 20.2205H25.7715V23.7756H29.3097V20.2205Z" fill="white"/>
<path d="M29.3097 16.6648H25.7715V20.22H29.3097V16.6648Z" fill="white"/>
<path d="M29.3097 13.1101H25.7715V16.6653H29.3097V13.1101Z" fill="white"/>
<path d="M29.3097 9.55444H25.7715V13.1096H29.3097V9.55444Z" fill="white"/>
<path d="M29.3097 5.99976H25.7715V9.55491H29.3097V5.99976Z" fill="#111111"/>
<path d="M25.7706 34.4451H22.2324V38.0002H25.7706V34.4451Z" fill="#111111"/>
<path d="M25.7706 30.8855H22.2324V34.4442H25.7706V30.8855Z" fill="white"/>
<path d="M25.7706 27.3308H22.2324V30.886H25.7706V27.3308Z" fill="white"/>
<path d="M25.7706 16.6648H22.2324V20.22H25.7706V16.6648Z" fill="white"/>
<path d="M25.7706 13.1101H22.2324V16.6653H25.7706V13.1101Z" fill="white"/>
<path d="M25.7706 9.55444H22.2324V13.1096H25.7706V9.55444Z" fill="white"/>
<path d="M25.7706 5.99976H22.2324V9.55491H25.7706V5.99976Z" fill="#111111"/>
<path d="M22.2332 34.4451H18.6914V38.0002H22.2332V34.4451Z" fill="#111111"/>
<path d="M22.2332 30.8855H18.6914V34.4442H22.2332V30.8855Z" fill="white"/>
<path d="M22.2332 27.3308H18.6914V30.886H22.2332V27.3308Z" fill="white"/>
<path d="M22.2332 23.7751H18.6914V27.3303H22.2332V23.7751Z" fill="white"/>
<path d="M22.2332 13.1101H18.6914V16.6653H22.2332V13.1101Z" fill="white"/>
<path d="M22.2332 9.55444H18.6914V13.1096H22.2332V9.55444Z" fill="white"/>
<path d="M22.2332 5.99976H18.6914V9.55491H22.2332V5.99976Z" fill="#111111"/>
<path d="M18.6905 34.4451H15.1523V38.0002H18.6905V34.4451Z" fill="#111111"/>
<path d="M18.6905 30.8855H15.1523V34.4442H18.6905V30.8855Z" fill="white"/>
<path d="M18.6905 13.1101H15.1523V16.6653H18.6905V13.1101Z" fill="white"/>
<path d="M18.6905 9.55444H15.1523V13.1096H18.6905V9.55444Z" fill="white"/>
<path d="M18.6905 5.99976H15.1523V9.55491H18.6905V5.99976Z" fill="#111111"/>
<path d="M15.1515 34.4451H11.6133V38.0002H15.1515V34.4451Z" fill="#111111"/>
<path d="M15.1515 30.8855H11.6133V34.4442H15.1515V30.8855Z" fill="white"/>
<path d="M15.1515 27.3308H11.6133V30.886H15.1515V27.3308Z" fill="white"/>
<path d="M15.1515 23.7751H11.6133V27.3303H15.1515V23.7751Z" fill="white"/>
<path d="M15.1515 20.2205H11.6133V23.7756H15.1515V20.2205Z" fill="white"/>
<path d="M15.1515 16.6648H11.6133V20.22H15.1515V16.6648Z" fill="white"/>
<path d="M15.1515 13.1101H11.6133V16.6653H15.1515V13.1101Z" fill="white"/>
<path d="M15.1515 9.55444H11.6133V13.1096H15.1515V9.55444Z" fill="white"/>
<path d="M15.1515 5.99976H11.6133V9.55491H15.1515V5.99976Z" fill="#111111"/>
<path d="M11.6144 34.4451H8.07617V38.0002H11.6144V34.4451Z" fill="#111111"/>
<path d="M11.6144 30.8855H8.07617V34.4442H11.6144V30.8855Z" fill="#FFC885"/>
<path d="M11.6144 27.3308H8.07617V30.886H11.6144V27.3308Z" fill="white"/>
<path d="M11.6144 23.7751H8.07617V27.3303H11.6144V23.7751Z" fill="white"/>
<path d="M11.6144 20.2205H8.07617V23.7756H11.6144V20.2205Z" fill="white"/>
<path d="M11.6144 16.6648H8.07617V20.22H11.6144V16.6648Z" fill="white"/>
<path d="M11.6144 13.1101H8.07617V16.6653H11.6144V13.1101Z" fill="#FFC885"/>
<path d="M11.6144 9.55444H8.07617V13.1096H11.6144V9.55444Z" fill="white"/>
<path d="M11.6144 5.99976H8.07617V9.55491H11.6144V5.99976Z" fill="#111111"/>
<path d="M8.07531 34.4451H4.53711V38.0002H8.07531V34.4451Z" fill="#111111"/>
<path d="M8.07531 30.8855H4.53711V34.4442H8.07531V30.8855Z" fill="white"/>
<path d="M8.07531 27.3308H4.53711V30.886H8.07531V27.3308Z" fill="white"/>
<path d="M8.07531 23.7751H4.53711V27.3303H8.07531V23.7751Z" fill="white"/>
<path d="M8.07531 20.2205H4.53711V23.7756H8.07531V20.2205Z" fill="white"/>
<path d="M8.07531 16.6648H4.53711V20.22H8.07531V16.6648Z" fill="white"/>
<path d="M8.07531 13.1101H4.53711V16.6653H8.07531V13.1101Z" fill="white"/>
<path d="M8.07531 9.55444H4.53711V13.1096H8.07531V9.55444Z" fill="#FFC885"/>
<path d="M8.07531 5.99976H4.53711V9.55491H8.07531V5.99976Z" fill="#111111"/>
<path d="M4.5382 30.8855H1V34.4442H4.5382V30.8855Z" fill="#111111"/>
<path d="M4.5382 27.3308H1V30.886H4.5382V27.3308Z" fill="#111111"/>
<path d="M4.5382 23.7751H1V27.3303H4.5382V23.7751Z" fill="#111111"/>
<path d="M4.5382 20.2205H1V23.7756H4.5382V20.2205Z" fill="#111111"/>
<path d="M4.5382 16.6648H1V20.22H4.5382V16.6648Z" fill="#111111"/>
<path d="M4.5382 13.1101H1V16.6653H4.5382V13.1101Z" fill="#111111"/>
<path d="M4.5382 9.55444H1V13.1096H4.5382V9.55444Z" fill="#111111"/>
<path d="M32.8487 25.9175H29.3105V29.3349H32.8487V25.9175Z" fill="#62D47C"/>
<path d="M32.8487 22.4995H29.3105V25.9169H32.8487V22.4995Z" fill="#62D47C"/>
<path d="M32.8487 19.0828H29.3105V22.5001H32.8487V19.0828Z" fill="#62D47C"/>
<path d="M32.8487 15.6648H29.3105V19.0822H32.8487V15.6648Z" fill="#62D47C"/>
<path d="M29.3097 25.9175H25.7715V29.3349H29.3097V25.9175Z" fill="#62D47C"/>
<path d="M29.3097 22.4995H25.7715V25.9169H29.3097V22.4995Z" fill="#62D47C"/>
<path d="M25.7706 22.4995H22.2324V25.9169H25.7706V22.4995Z" fill="#62D47C"/>
<path d="M25.7706 19.0828H22.2324V22.5001H25.7706V19.0828Z" fill="#62D47C"/>
<path d="M22.2332 19.0828H18.6914V22.5001H22.2332V19.0828Z" fill="#62D47C"/>
<path d="M22.2332 15.6648H18.6914V19.0822H22.2332V15.6648Z" fill="#62D47C"/>
<path d="M19 25.8198H14V29.6648H19V25.8198Z" fill="#62D47C"/>
<path d="M35 25.9165H30V29.3385H35V25.9165Z" fill="#62D47C"/>
<path d="M19 22.936H14V25.8198H19V22.936Z" fill="#62D47C"/>
<path d="M35 22.7156H30V26.5606H35V22.7156Z" fill="#62D47C"/>
<path d="M19 19.0911H14V22.936H19V19.0911Z" fill="#62D47C"/>
<path d="M35 19.0911H30V22.936H35V19.0911Z" fill="#62D47C"/>
<path d="M19 15.6697H14V19.0917H19V15.6697Z" fill="#62D47C"/>
<path d="M35 15.6697H30V19.0917H35V15.6697Z" fill="#62D47C"/>
</svg>
