<svg width="48" height="44" viewBox="0 0 48 44" fill="none" xmlns="http://www.w3.org/2000/svg">
<path d="M46.9991 30.886H43.4609V34.4447H46.9991V30.886Z" fill="#111111"/>
<path d="M46.9991 27.3311H43.4609V30.8862H46.9991V27.3311Z" fill="#111111"/>
<path d="M46.9991 23.7759H43.4609V27.331H46.9991V23.7759Z" fill="#111111"/>
<path d="M46.9991 20.2207H43.4609V23.7759H46.9991V20.2207Z" fill="#111111"/>
<path d="M46.9991 16.6655H43.4609V20.2207H46.9991V16.6655Z" fill="#111111"/>
<path d="M46.9991 13.1104H43.4609V16.6655H46.9991V13.1104Z" fill="#111111"/>
<path d="M46.9991 9.55518H43.4609V13.1103H46.9991V9.55518Z" fill="#111111"/>
<path d="M43.462 34.4448H39.9238V38H43.462V34.4448Z" fill="#111111"/>
<path d="M43.462 30.886H39.9238V34.4447H43.462V30.886Z" fill="white"/>
<path d="M43.462 27.3311H39.9238V30.8862H43.462V27.3311Z" fill="white"/>
<path d="M43.462 23.7759H39.9238V27.331H43.462V23.7759Z" fill="white"/>
<path d="M43.462 20.2207H39.9238V23.7759H43.462V20.2207Z" fill="white"/>
<path d="M43.462 16.6655H39.9238V20.2207H43.462V16.6655Z" fill="white"/>
<path d="M43.462 13.1104H39.9238V16.6655H43.462V13.1104Z" fill="white"/>
<path d="M43.462 9.55518H39.9238V13.1103H43.462V9.55518Z" fill="#FFC885"/>
<path d="M43.462 6H39.9238V9.55516H43.462V6Z" fill="#111111"/>
<path d="M39.9249 34.4448H36.3867V38H39.9249V34.4448Z" fill="#111111"/>
<path d="M39.9249 30.886H36.3867V34.4447H39.9249V30.886Z" fill="#FFC885"/>
<path d="M39.9249 27.3311H36.3867V30.8862H39.9249V27.3311Z" fill="white"/>
<path d="M39.9249 23.7759H36.3867V27.331H39.9249V23.7759Z" fill="white"/>
<path d="M39.9249 20.2207H36.3867V23.7759H39.9249V20.2207Z" fill="white"/>
<path d="M39.9249 16.6655H36.3867V20.2207H39.9249V16.6655Z" fill="white"/>
<path d="M39.9249 13.1104H36.3867V16.6655H39.9249V13.1104Z" fill="#FFC885"/>
<path d="M39.9249 9.55518H36.3867V13.1103H39.9249V9.55518Z" fill="white"/>
<path d="M39.9249 6H36.3867V9.55516H39.9249V6Z" fill="#111111"/>
<path d="M36.3859 34.4448H32.8477V38H36.3859V34.4448Z" fill="#111111"/>
<path d="M36.3859 30.886H32.8477V34.4447H36.3859V30.886Z" fill="white"/>
<path d="M36.3859 27.3311H32.8477V30.8862H36.3859V27.3311Z" fill="#FFC885"/>
<path d="M36.3859 23.7759H32.8477V27.331H36.3859V23.7759Z" fill="white"/>
<path d="M36.3859 20.2207H32.8477V23.7759H36.3859V20.2207Z" fill="white"/>
<path d="M36.3859 16.6655H32.8477V20.2207H36.3859V16.6655Z" fill="#FFC885"/>
<path d="M36.3859 13.1104H32.8477V16.6655H36.3859V13.1104Z" fill="white"/>
<path d="M36.3859 9.55518H32.8477V13.1103H36.3859V9.55518Z" fill="white"/>
<path d="M36.3859 6H32.8477V9.55516H36.3859V6Z" fill="#111111"/>
<path d="M32.8487 34.4448H29.3105V38H32.8487V34.4448Z" fill="#111111"/>
<path d="M32.8487 30.886H29.3105V34.4447H32.8487V30.886Z" fill="white"/>
<path d="M32.8487 27.3311H29.3105V30.8862H32.8487V27.3311Z" fill="white"/>
<path d="M32.8487 23.7759H29.3105V27.331H32.8487V23.7759Z" fill="white"/>
<path d="M32.8487 20.2207H29.3105V23.7759H32.8487V20.2207Z" fill="#FF7917"/>
<path d="M32.8487 16.6655H29.3105V20.2207H32.8487V16.6655Z" fill="white"/>
<path d="M32.8487 13.1104H29.3105V16.6655H32.8487V13.1104Z" fill="white"/>
<path d="M32.8487 9.55518H29.3105V13.1103H32.8487V9.55518Z" fill="white"/>
<path d="M32.8487 6H29.3105V9.55516H32.8487V6Z" fill="#111111"/>
<path d="M29.3097 34.4448H25.7715V38H29.3097V34.4448Z" fill="#111111"/>
<path d="M29.3097 30.886H25.7715V34.4447H29.3097V30.886Z" fill="white"/>
<path d="M29.3097 27.3311H25.7715V30.8862H29.3097V27.3311Z" fill="white"/>
<path d="M29.3097 23.7759H25.7715V27.331H29.3097V23.7759Z" fill="#FF7917"/>
<path d="M29.3097 20.2207H25.7715V23.7759H29.3097V20.2207Z" fill="#FF7917"/>
<path d="M29.3097 16.6655H25.7715V20.2207H29.3097V16.6655Z" fill="#FF7917"/>
<path d="M29.3097 13.1104H25.7715V16.6655H29.3097V13.1104Z" fill="white"/>
<path d="M29.3097 9.55518H25.7715V13.1103H29.3097V9.55518Z" fill="white"/>
<path d="M29.3097 6H25.7715V9.55516H29.3097V6Z" fill="#111111"/>
<path d="M25.7706 34.4448H22.2324V38H25.7706V34.4448Z" fill="#111111"/>
<path d="M25.7706 30.886H22.2324V34.4447H25.7706V30.886Z" fill="white"/>
<path d="M25.7706 27.3311H22.2324V30.8862H25.7706V27.3311Z" fill="#FF7917"/>
<path d="M25.7706 23.7759H22.2324V27.331H25.7706V23.7759Z" fill="#FF7917"/>
<path d="M25.7706 20.2207H22.2324V23.7759H25.7706V20.2207Z" fill="#FF7917"/>
<path d="M25.7706 16.6655H22.2324V20.2207H25.7706V16.6655Z" fill="white"/>
<path d="M25.7706 13.1104H22.2324V16.6655H25.7706V13.1104Z" fill="white"/>
<path d="M25.7706 9.55518H22.2324V13.1103H25.7706V9.55518Z" fill="white"/>
<path d="M25.7706 6H22.2324V9.55516H25.7706V6Z" fill="#111111"/>
<path d="M22.2332 34.4448H18.6914V38H22.2332V34.4448Z" fill="#111111"/>
<path d="M22.2332 30.886H18.6914V34.4447H22.2332V30.886Z" fill="white"/>
<path d="M22.2332 27.3311H18.6914V30.8862H22.2332V27.3311Z" fill="white"/>
<path d="M22.2332 23.7759H18.6914V27.331H22.2332V23.7759Z" fill="#FF7917"/>
<path d="M22.2332 20.2207H18.6914V23.7759H22.2332V20.2207Z" fill="#FF7917"/>
<path d="M22.2332 16.6655H18.6914V20.2207H22.2332V16.6655Z" fill="#FF7917"/>
<path d="M22.2332 13.1104H18.6914V16.6655H22.2332V13.1104Z" fill="white"/>
<path d="M22.2332 9.55518H18.6914V13.1103H22.2332V9.55518Z" fill="white"/>
<path d="M22.2332 6H18.6914V9.55516H22.2332V6Z" fill="#111111"/>
<path d="M18.6905 34.4448H15.1523V38H18.6905V34.4448Z" fill="#111111"/>
<path d="M18.6905 30.886H15.1523V34.4447H18.6905V30.886Z" fill="white"/>
<path d="M18.6905 27.3311H15.1523V30.8862H18.6905V27.3311Z" fill="white"/>
<path d="M18.6905 23.7759H15.1523V27.331H18.6905V23.7759Z" fill="white"/>
<path d="M18.6905 20.2207H15.1523V23.7759H18.6905V20.2207Z" fill="#FF7917"/>
<path d="M18.6905 16.6655H15.1523V20.2207H18.6905V16.6655Z" fill="white"/>
<path d="M18.6905 13.1104H15.1523V16.6655H18.6905V13.1104Z" fill="white"/>
<path d="M18.6905 9.55518H15.1523V13.1103H18.6905V9.55518Z" fill="white"/>
<path d="M18.6905 6H15.1523V9.55516H18.6905V6Z" fill="#111111"/>
<path d="M15.1515 34.4448H11.6133V38H15.1515V34.4448Z" fill="#111111"/>
<path d="M15.1515 30.886H11.6133V34.4447H15.1515V30.886Z" fill="white"/>
<path d="M15.1515 27.3311H11.6133V30.8862H15.1515V27.3311Z" fill="#FFC885"/>
<path d="M15.1515 23.7759H11.6133V27.331H15.1515V23.7759Z" fill="white"/>
<path d="M15.1515 20.2207H11.6133V23.7759H15.1515V20.2207Z" fill="white"/>
<path d="M15.1515 16.6655H11.6133V20.2207H15.1515V16.6655Z" fill="#FFC885"/>
<path d="M15.1515 13.1104H11.6133V16.6655H15.1515V13.1104Z" fill="white"/>
<path d="M15.1515 9.55518H11.6133V13.1103H15.1515V9.55518Z" fill="white"/>
<path d="M15.1515 6H11.6133V9.55516H15.1515V6Z" fill="#111111"/>
<path d="M11.6144 34.4448H8.07617V38H11.6144V34.4448Z" fill="#111111"/>
<path d="M11.6144 30.886H8.07617V34.4447H11.6144V30.886Z" fill="#FFC885"/>
<path d="M11.6144 27.3311H8.07617V30.8862H11.6144V27.3311Z" fill="white"/>
<path d="M11.6144 23.7759H8.07617V27.331H11.6144V23.7759Z" fill="white"/>
<path d="M11.6144 20.2207H8.07617V23.7759H11.6144V20.2207Z" fill="white"/>
<path d="M11.6144 16.6655H8.07617V20.2207H11.6144V16.6655Z" fill="white"/>
<path d="M11.6144 13.1104H8.07617V16.6655H11.6144V13.1104Z" fill="#FFC885"/>
<path d="M11.6144 9.55518H8.07617V13.1103H11.6144V9.55518Z" fill="white"/>
<path d="M11.6144 6H8.07617V9.55516H11.6144V6Z" fill="#111111"/>
<path d="M8.07531 34.4448H4.53711V38H8.07531V34.4448Z" fill="#111111"/>
<path d="M8.07531 30.886H4.53711V34.4447H8.07531V30.886Z" fill="white"/>
<path d="M8.07531 27.3311H4.53711V30.8862H8.07531V27.3311Z" fill="white"/>
<path d="M8.07531 23.7759H4.53711V27.331H8.07531V23.7759Z" fill="white"/>
<path d="M8.07531 20.2207H4.53711V23.7759H8.07531V20.2207Z" fill="white"/>
<path d="M8.07531 16.6655H4.53711V20.2207H8.07531V16.6655Z" fill="white"/>
<path d="M8.07531 13.1104H4.53711V16.6655H8.07531V13.1104Z" fill="white"/>
<path d="M8.07531 9.55518H4.53711V13.1103H8.07531V9.55518Z" fill="#FFC885"/>
<path d="M8.07531 6H4.53711V9.55516H8.07531V6Z" fill="#111111"/>
<path d="M4.5382 30.886H1V34.4447H4.5382V30.886Z" fill="#111111"/>
<path d="M4.5382 27.3311H1V30.8862H4.5382V27.3311Z" fill="#111111"/>
<path d="M4.5382 23.7759H1V27.331H4.5382V23.7759Z" fill="#111111"/>
<path d="M4.5382 20.2207H1V23.7759H4.5382V20.2207Z" fill="#111111"/>
<path d="M4.5382 16.6655H1V20.2207H4.5382V16.6655Z" fill="#111111"/>
<path d="M4.5382 13.1104H1V16.6655H4.5382V13.1104Z" fill="#111111"/>
<path d="M4.5382 9.55518H1V13.1103H4.5382V9.55518Z" fill="#111111"/>
</svg>
