<svg width="48" height="44" viewBox="0 0 48 44" fill="none" xmlns="http://www.w3.org/2000/svg">
<path d="M46.9991 30.886H43.4609V34.4447H46.9991V30.886Z" fill="#111111"/>
<path d="M46.9991 27.3311H43.4609V30.8862H46.9991V27.3311Z" fill="#111111"/>
<path d="M46.9991 23.7759H43.4609V27.331H46.9991V23.7759Z" fill="#111111"/>
<path d="M46.9991 20.2207H43.4609V23.7759H46.9991V20.2207Z" fill="#111111"/>
<path d="M46.9991 16.6655H43.4609V20.2207H46.9991V16.6655Z" fill="#111111"/>
<path d="M46.9991 13.1104H43.4609V16.6655H46.9991V13.1104Z" fill="#111111"/>
<path d="M46.9991 9.55518H43.4609V13.1103H46.9991V9.55518Z" fill="#111111"/>
<path d="M43.462 34.4448H39.9238V38H43.462V34.4448Z" fill="#111111"/>
<path d="M43.462 30.886H39.9238V34.4447H43.462V30.886Z" fill="white"/>
<path d="M43.462 27.3311H39.9238V30.8862H43.462V27.3311Z" fill="white"/>
<path d="M43.462 23.7759H39.9238V27.331H43.462V23.7759Z" fill="white"/>
<path d="M43.462 20.2207H39.9238V23.7759H43.462V20.2207Z" fill="white"/>
<path d="M43.462 16.6655H39.9238V20.2207H43.462V16.6655Z" fill="white"/>
<path d="M43.462 13.1104H39.9238V16.6655H43.462V13.1104Z" fill="white"/>
<path d="M43.462 9.55518H39.9238V13.1103H43.462V9.55518Z" fill="#FFC885"/>
<path d="M43.462 6H39.9238V9.55516H43.462V6Z" fill="#111111"/>
<path d="M39.9249 34.4448H36.3867V38H39.9249V34.4448Z" fill="#111111"/>
<path d="M39.9249 30.886H36.3867V34.4447H39.9249V30.886Z" fill="#FFC885"/>
<path d="M39.9249 27.3311H36.3867V30.8862H39.9249V27.3311Z" fill="white"/>
<path d="M39.9249 23.7759H36.3867V27.331H39.9249V23.7759Z" fill="white"/>
<path d="M39.9249 20.2207H36.3867V23.7759H39.9249V20.2207Z" fill="white"/>
<path d="M39.9249 16.6655H36.3867V20.2207H39.9249V16.6655Z" fill="white"/>
<path d="M39.9249 13.1104H36.3867V16.6655H39.9249V13.1104Z" fill="#FFC885"/>
<path d="M39.9249 9.55518H36.3867V13.1103H39.9249V9.55518Z" fill="white"/>
<path d="M39.9249 6H36.3867V9.55516H39.9249V6Z" fill="#111111"/>
<path d="M36.3859 34.4448H32.8477V38H36.3859V34.4448Z" fill="#111111"/>
<path d="M36.3859 30.886H32.8477V34.4447H36.3859V30.886Z" fill="white"/>
<path d="M36.3859 27.3311H32.8477V30.8862H36.3859V27.3311Z" fill="#FFC885"/>
<path d="M36.3859 23.7759H32.8477V27.331H36.3859V23.7759Z" fill="white"/>
<path d="M36.3859 20.2207H32.8477V23.7759H36.3859V20.2207Z" fill="white"/>
<path d="M36.3859 16.6655H32.8477V20.2207H36.3859V16.6655Z" fill="#FFC885"/>
<path d="M36.3859 13.1104H32.8477V16.6655H36.3859V13.1104Z" fill="white"/>
<path d="M36.3859 9.55518H32.8477V13.1103H36.3859V9.55518Z" fill="white"/>
<path d="M36.3859 6H32.8477V9.55516H36.3859V6Z" fill="#111111"/>
<path d="M32.8487 34.4448H29.3105V38H32.8487V34.4448Z" fill="#111111"/>
<path d="M32.8487 30.886H29.3105V34.4447H32.8487V30.886Z" fill="white"/>
<path d="M32.8487 27.3311H29.3105V30.8862H32.8487V27.3311Z" fill="white"/>
<path d="M32.8487 23.7759H29.3105V27.331H32.8487V23.7759Z" fill="white"/>
<path d="M32.8487 20.2207H29.3105V23.7759H32.8487V20.2207Z" fill="white"/>
<path d="M32.8487 16.6655H29.3105V20.2207H32.8487V16.6655Z" fill="white"/>
<path d="M32.8487 13.1104H29.3105V16.6655H32.8487V13.1104Z" fill="white"/>
<path d="M32.8487 9.55518H29.3105V13.1103H32.8487V9.55518Z" fill="white"/>
<path d="M32.8487 6H29.3105V9.55516H32.8487V6Z" fill="#111111"/>
<path d="M29.3097 34.4448H25.7715V38H29.3097V34.4448Z" fill="#111111"/>
<path d="M29.3097 30.886H25.7715V34.4447H29.3097V30.886Z" fill="white"/>
<path d="M29.3097 27.3311H25.7715V30.8862H29.3097V27.3311Z" fill="white"/>
<path d="M29.3097 23.7759H25.7715V27.331H29.3097V23.7759Z" fill="white"/>
<path d="M29.3097 20.2207H25.7715V23.7759H29.3097V20.2207Z" fill="white"/>
<path d="M29.3097 16.6655H25.7715V20.2207H29.3097V16.6655Z" fill="white"/>
<path d="M29.3097 13.1104H25.7715V16.6655H29.3097V13.1104Z" fill="white"/>
<path d="M29.3097 9.55518H25.7715V13.1103H29.3097V9.55518Z" fill="white"/>
<path d="M29.3097 6H25.7715V9.55516H29.3097V6Z" fill="#111111"/>
<path d="M25.7706 34.4448H22.2324V38H25.7706V34.4448Z" fill="#111111"/>
<path d="M25.7706 30.886H22.2324V34.4447H25.7706V30.886Z" fill="white"/>
<path d="M25.7706 27.3311H22.2324V30.8862H25.7706V27.3311Z" fill="white"/>
<path d="M25.7706 23.7759H22.2324V27.331H25.7706V23.7759Z" fill="white"/>
<path d="M25.7706 20.2207H22.2324V23.7759H25.7706V20.2207Z" fill="white"/>
<path d="M25.7706 16.6655H22.2324V20.2207H25.7706V16.6655Z" fill="white"/>
<path d="M25.7706 13.1104H22.2324V16.6655H25.7706V13.1104Z" fill="white"/>
<path d="M25.7706 9.55518H22.2324V13.1103H25.7706V9.55518Z" fill="white"/>
<path d="M25.7706 6H22.2324V9.55516H25.7706V6Z" fill="#111111"/>
<path d="M22.2332 34.4448H18.6914V38H22.2332V34.4448Z" fill="#111111"/>
<path d="M22.2332 30.886H18.6914V34.4447H22.2332V30.886Z" fill="white"/>
<path d="M22.2332 27.3311H18.6914V30.8862H22.2332V27.3311Z" fill="white"/>
<path d="M22.2332 23.7759H18.6914V27.331H22.2332V23.7759Z" fill="white"/>
<path d="M22.2332 20.2207H18.6914V23.7759H22.2332V20.2207Z" fill="white"/>
<path d="M22.2332 16.6655H18.6914V20.2207H22.2332V16.6655Z" fill="white"/>
<path d="M22.2332 13.1104H18.6914V16.6655H22.2332V13.1104Z" fill="white"/>
<path d="M22.2332 9.55518H18.6914V13.1103H22.2332V9.55518Z" fill="white"/>
<path d="M22.2332 6H18.6914V9.55516H22.2332V6Z" fill="#111111"/>
<path d="M18.6905 34.4448H15.1523V38H18.6905V34.4448Z" fill="#111111"/>
<path d="M18.6905 30.886H15.1523V34.4447H18.6905V30.886Z" fill="white"/>
<path d="M18.6905 27.3311H15.1523V30.8862H18.6905V27.3311Z" fill="white"/>
<path d="M18.6905 23.7759H15.1523V27.331H18.6905V23.7759Z" fill="white"/>
<path d="M18.6905 20.2207H15.1523V23.7759H18.6905V20.2207Z" fill="white"/>
<path d="M18.6905 16.6655H15.1523V20.2207H18.6905V16.6655Z" fill="white"/>
<path d="M18.6905 13.1104H15.1523V16.6655H18.6905V13.1104Z" fill="white"/>
<path d="M18.6905 9.55518H15.1523V13.1103H18.6905V9.55518Z" fill="white"/>
<path d="M18.6905 6H15.1523V9.55516H18.6905V6Z" fill="#111111"/>
<path d="M15.1515 34.4448H11.6133V38H15.1515V34.4448Z" fill="#111111"/>
<path d="M15.1515 30.886H11.6133V34.4447H15.1515V30.886Z" fill="white"/>
<path d="M15.1515 27.3311H11.6133V30.8862H15.1515V27.3311Z" fill="#FFC885"/>
<path d="M15.1515 23.7759H11.6133V27.331H15.1515V23.7759Z" fill="white"/>
<path d="M15.1515 20.2207H11.6133V23.7759H15.1515V20.2207Z" fill="white"/>
<path d="M15.1515 16.6655H11.6133V20.2207H15.1515V16.6655Z" fill="#FFC885"/>
<path d="M15.1515 13.1104H11.6133V16.6655H15.1515V13.1104Z" fill="white"/>
<path d="M15.1515 9.55518H11.6133V13.1103H15.1515V9.55518Z" fill="white"/>
<path d="M15.1515 6H11.6133V9.55516H15.1515V6Z" fill="#111111"/>
<path d="M11.6144 34.4448H8.07617V38H11.6144V34.4448Z" fill="#111111"/>
<path d="M11.6144 30.886H8.07617V34.4447H11.6144V30.886Z" fill="#FFC885"/>
<path d="M11.6144 27.3311H8.07617V30.8862H11.6144V27.3311Z" fill="white"/>
<path d="M11.6144 23.7759H8.07617V27.331H11.6144V23.7759Z" fill="white"/>
<path d="M11.6144 20.2207H8.07617V23.7759H11.6144V20.2207Z" fill="white"/>
<path d="M11.6144 16.6655H8.07617V20.2207H11.6144V16.6655Z" fill="white"/>
<path d="M11.6144 13.1104H8.07617V16.6655H11.6144V13.1104Z" fill="#FFC885"/>
<path d="M11.6144 9.55518H8.07617V13.1103H11.6144V9.55518Z" fill="white"/>
<path d="M11.6144 6H8.07617V9.55516H11.6144V6Z" fill="#111111"/>
<path d="M8.07531 34.4448H4.53711V38H8.07531V34.4448Z" fill="#111111"/>
<path d="M8.07531 30.886H4.53711V34.4447H8.07531V30.886Z" fill="white"/>
<path d="M8.07531 27.3311H4.53711V30.8862H8.07531V27.3311Z" fill="white"/>
<path d="M8.07531 23.7759H4.53711V27.331H8.07531V23.7759Z" fill="white"/>
<path d="M8.07531 20.2207H4.53711V23.7759H8.07531V20.2207Z" fill="white"/>
<path d="M8.07531 16.6655H4.53711V20.2207H8.07531V16.6655Z" fill="white"/>
<path d="M8.07531 13.1104H4.53711V16.6655H8.07531V13.1104Z" fill="white"/>
<path d="M8.07531 9.55518H4.53711V13.1103H8.07531V9.55518Z" fill="#FFC885"/>
<path d="M8.07531 6H4.53711V9.55516H8.07531V6Z" fill="#111111"/>
<path d="M4.5382 30.886H1V34.4447H4.5382V30.886Z" fill="#111111"/>
<path d="M4.5382 27.3311H1V30.8862H4.5382V27.3311Z" fill="#111111"/>
<path d="M4.5382 23.7759H1V27.331H4.5382V23.7759Z" fill="#111111"/>
<path d="M4.5382 20.2207H1V23.7759H4.5382V20.2207Z" fill="#111111"/>
<path d="M4.5382 16.6655H1V20.2207H4.5382V16.6655Z" fill="#111111"/>
<path d="M4.5382 13.1104H1V16.6655H4.5382V13.1104Z" fill="#111111"/>
<path d="M4.5382 9.55518H1V13.1103H4.5382V9.55518Z" fill="#111111"/>
<path d="M32.0004 28.2944H30.7686V29.5297H32.0004V28.2944Z" fill="white"/>
<path d="M32.0004 27.0591H30.7686V28.2943H32.0004V27.0591Z" fill="white"/>
<path d="M32.0004 25.824H30.7686V27.0592H32.0004V25.824Z" fill="white"/>
<path d="M30.7687 29.5295H29.5381V30.7648H30.7687V29.5295Z" fill="white"/>
<path d="M30.7687 28.2944H29.5381V29.5297H30.7687V28.2944Z" fill="#111111"/>
<path d="M30.7687 27.0591H29.5381V28.2943H30.7687V27.0591Z" fill="#111111"/>
<path d="M30.7687 25.824H29.5381V27.0592H30.7687V25.824Z" fill="#111111"/>
<path d="M30.7687 24.5886H29.5381V25.8238H30.7687V24.5886Z" fill="white"/>
<path d="M30.7687 23.3535H29.5381V24.5887H30.7687V23.3535Z" fill="white"/>
<path d="M30.7687 20.8818H29.5381V22.1183H30.7687V20.8818Z" fill="white"/>
<path d="M30.7687 19.6465H29.5381V20.8817H30.7687V19.6465Z" fill="white"/>
<path d="M30.7687 18.4114H29.5381V19.6466H30.7687V18.4114Z" fill="white"/>
<path d="M30.7687 17.176H29.5381V18.4112H30.7687V17.176Z" fill="white"/>
<path d="M30.7687 15.9409H29.5381V17.1761H30.7687V15.9409Z" fill="white"/>
<path d="M30.7687 14.7056H29.5381V15.9408H30.7687V14.7056Z" fill="white"/>
<path d="M30.7687 13.4705H29.5381V14.7057H30.7687V13.4705Z" fill="white"/>
<path d="M29.5372 30.7649H28.3066V32.0001H29.5372V30.7649Z" fill="white"/>
<path d="M29.5372 29.5295H28.3066V30.7648H29.5372V29.5295Z" fill="#111111"/>
<path d="M29.5372 28.2944H28.3066V29.5297H29.5372V28.2944Z" fill="#111111"/>
<path d="M29.5372 27.0591H28.3066V28.2943H29.5372V27.0591Z" fill="#111111"/>
<path d="M29.5372 25.824H28.3066V27.0592H29.5372V25.824Z" fill="#111111"/>
<path d="M29.5372 24.5886H28.3066V25.8238H29.5372V24.5886Z" fill="#111111"/>
<path d="M29.5372 23.3535H28.3066V24.5887H29.5372V23.3535Z" fill="#111111"/>
<path d="M29.5372 22.1182H28.3066V23.3534H29.5372V22.1182Z" fill="white"/>
<path d="M29.5372 20.8818H28.3066V22.1183H29.5372V20.8818Z" fill="#111111"/>
<path d="M29.5372 19.6465H28.3066V20.8817H29.5372V19.6465Z" fill="#111111"/>
<path d="M29.5372 18.4114H28.3066V19.6466H29.5372V18.4114Z" fill="#111111"/>
<path d="M29.5372 17.176H28.3066V18.4112H29.5372V17.176Z" fill="#111111"/>
<path d="M29.5372 15.9409H28.3066V17.1761H29.5372V15.9409Z" fill="#111111"/>
<path d="M29.5372 14.7056H28.3066V15.9408H29.5372V14.7056Z" fill="#111111"/>
<path d="M29.5372 13.4705H28.3066V14.7057H29.5372V13.4705Z" fill="#111111"/>
<path d="M29.5372 12.2351H28.3066V13.4703H29.5372V12.2351Z" fill="white"/>
<path d="M28.3068 30.7649H27.0762V32.0001H28.3068V30.7649Z" fill="white"/>
<path d="M28.3068 29.5295H27.0762V30.7648H28.3068V29.5295Z" fill="#111111"/>
<path d="M28.3068 28.2944H27.0762V29.5297H28.3068V28.2944Z" fill="#111111"/>
<path d="M28.3068 27.0591H27.0762V28.2943H28.3068V27.0591Z" fill="white"/>
<path d="M28.3068 25.824H27.0762V27.0592H28.3068V25.824Z" fill="white"/>
<path d="M28.3068 24.5886H27.0762V25.8238H28.3068V24.5886Z" fill="#111111"/>
<path d="M28.3068 23.3535H27.0762V24.5887H28.3068V23.3535Z" fill="#111111"/>
<path d="M28.3068 22.1182H27.0762V23.3534H28.3068V22.1182Z" fill="#111111"/>
<path d="M28.3068 20.8818H27.0762V22.1183H28.3068V20.8818Z" fill="#111111"/>
<path d="M28.3068 19.6465H27.0762V20.8817H28.3068V19.6465Z" fill="#111111"/>
<path d="M28.3068 18.4114H27.0762V19.6466H28.3068V18.4114Z" fill="#111111"/>
<path d="M28.3068 17.176H27.0762V18.4112H28.3068V17.176Z" fill="#111111"/>
<path d="M28.3068 15.9409H27.0762V17.1761H28.3068V15.9409Z" fill="#111111"/>
<path d="M28.3068 14.7056H27.0762V15.9408H28.3068V14.7056Z" fill="#111111"/>
<path d="M28.3068 13.4705H27.0762V14.7057H28.3068V13.4705Z" fill="#111111"/>
<path d="M28.3068 12.2351H27.0762V13.4703H28.3068V12.2351Z" fill="white"/>
<path d="M27.0763 30.7649H25.8457V32.0001H27.0763V30.7649Z" fill="white"/>
<path d="M27.0763 29.5295H25.8457V30.7648H27.0763V29.5295Z" fill="#111111"/>
<path d="M27.0763 28.2944H25.8457V29.5297H27.0763V28.2944Z" fill="#111111"/>
<path d="M27.0763 27.0591H25.8457V28.2943H27.0763V27.0591Z" fill="#111111"/>
<path d="M27.0763 25.824H25.8457V27.0592H27.0763V25.824Z" fill="#111111"/>
<path d="M27.0763 24.5886H25.8457V25.8238H27.0763V24.5886Z" fill="#111111"/>
<path d="M27.0763 23.3535H25.8457V24.5887H27.0763V23.3535Z" fill="#111111"/>
<path d="M27.0763 22.1182H25.8457V23.3534H27.0763V22.1182Z" fill="#111111"/>
<path d="M27.0763 20.8818H25.8457V22.1183H27.0763V20.8818Z" fill="#111111"/>
<path d="M27.0763 19.6465H25.8457V20.8817H27.0763V19.6465Z" fill="#111111"/>
<path d="M27.0763 18.4114H25.8457V19.6466H27.0763V18.4114Z" fill="#111111"/>
<path d="M27.0763 17.176H25.8457V18.4112H27.0763V17.176Z" fill="#111111"/>
<path d="M27.0763 15.9409H25.8457V17.1761H27.0763V15.9409Z" fill="#111111"/>
<path d="M27.0763 14.7056H25.8457V15.9408H27.0763V14.7056Z" fill="#111111"/>
<path d="M27.0763 13.4705H25.8457V14.7057H27.0763V13.4705Z" fill="#111111"/>
<path d="M27.0763 12.2351H25.8457V13.4703H27.0763V12.2351Z" fill="white"/>
<path d="M25.8458 30.7649H24.6152V32.0001H25.8458V30.7649Z" fill="white"/>
<path d="M25.8458 29.5295H24.6152V30.7648H25.8458V29.5295Z" fill="#111111"/>
<path d="M25.8458 28.2944H24.6152V29.5297H25.8458V28.2944Z" fill="#111111"/>
<path d="M25.8458 27.0591H24.6152V28.2943H25.8458V27.0591Z" fill="#111111"/>
<path d="M25.8458 25.824H24.6152V27.0592H25.8458V25.824Z" fill="#111111"/>
<path d="M25.8458 24.5886H24.6152V25.8238H25.8458V24.5886Z" fill="#111111"/>
<path d="M25.8458 23.3535H24.6152V24.5887H25.8458V23.3535Z" fill="#111111"/>
<path d="M25.8458 22.1182H24.6152V23.3534H25.8458V22.1182Z" fill="#111111"/>
<path d="M25.8458 20.8818H24.6152V22.1183H25.8458V20.8818Z" fill="white"/>
<path d="M25.8458 19.6465H24.6152V20.8817H25.8458V19.6465Z" fill="white"/>
<path d="M25.8458 18.4114H24.6152V19.6466H25.8458V18.4114Z" fill="white"/>
<path d="M25.8458 17.176H24.6152V18.4112H25.8458V17.176Z" fill="white"/>
<path d="M25.8458 15.9409H24.6152V17.1761H25.8458V15.9409Z" fill="white"/>
<path d="M25.8458 14.7056H24.6152V15.9408H25.8458V14.7056Z" fill="white"/>
<path d="M25.8458 13.4705H24.6152V14.7057H25.8458V13.4705Z" fill="white"/>
<path d="M24.6153 30.7649H23.3848V32.0001H24.6153V30.7649Z" fill="white"/>
<path d="M24.6153 29.5295H23.3848V30.7648H24.6153V29.5295Z" fill="#111111"/>
<path d="M24.6153 28.2944H23.3848V29.5297H24.6153V28.2944Z" fill="#111111"/>
<path d="M24.6153 27.0591H23.3848V28.2943H24.6153V27.0591Z" fill="white"/>
<path d="M24.6153 25.824H23.3848V27.0592H24.6153V25.824Z" fill="#111111"/>
<path d="M24.6153 24.5886H23.3848V25.8238H24.6153V24.5886Z" fill="#111111"/>
<path d="M24.6153 23.3535H23.3848V24.5887H24.6153V23.3535Z" fill="#111111"/>
<path d="M24.6153 22.1182H23.3848V23.3534H24.6153V22.1182Z" fill="#111111"/>
<path d="M24.6859 20.8H23.3145V22.6667H24.6859V20.8Z" fill="#111111"/>
<path d="M24.6153 19.6465H23.3848V20.8817H24.6153V19.6465Z" fill="white"/>
<path d="M23.3849 30.7649H22.1543V32.0001H23.3849V30.7649Z" fill="white"/>
<path d="M23.3849 29.5295H22.1543V30.7648H23.3849V29.5295Z" fill="#111111"/>
<path d="M23.3849 28.2944H22.1543V29.5297H23.3849V28.2944Z" fill="#111111"/>
<path d="M23.3849 27.0591H22.1543V28.2943H23.3849V27.0591Z" fill="#111111"/>
<path d="M23.3849 25.824H22.1543V27.0592H23.3849V25.824Z" fill="#111111"/>
<path d="M23.3849 24.5886H22.1543V25.8238H23.3849V24.5886Z" fill="#111111"/>
<path d="M23.3849 23.3535H22.1543V24.5887H23.3849V23.3535Z" fill="#111111"/>
<path d="M23.3849 22.1182H22.1543V23.3534H23.3849V22.1182Z" fill="#111111"/>
<path d="M23.3849 20.8818H22.1543V22.1183H23.3849V20.8818Z" fill="white"/>
<path d="M23.3849 19.6465H22.1543V20.8817H23.3849V19.6465Z" fill="white"/>
<path d="M23.3849 18.4114H22.1543V19.6466H23.3849V18.4114Z" fill="white"/>
<path d="M23.3849 17.176H22.1543V18.4112H23.3849V17.176Z" fill="white"/>
<path d="M23.3849 15.9409H22.1543V17.1761H23.3849V15.9409Z" fill="white"/>
<path d="M23.3849 14.7056H22.1543V15.9408H23.3849V14.7056Z" fill="white"/>
<path d="M23.3849 13.4705H22.1543V14.7057H23.3849V13.4705Z" fill="white"/>
<path d="M22.1544 30.7649H20.9238V32.0001H22.1544V30.7649Z" fill="white"/>
<path d="M22.1544 29.5295H20.9238V30.7648H22.1544V29.5295Z" fill="#111111"/>
<path d="M22.1544 28.2944H20.9238V29.5297H22.1544V28.2944Z" fill="#111111"/>
<path d="M22.1544 27.0591H20.9238V28.2943H22.1544V27.0591Z" fill="#111111"/>
<path d="M22.1544 25.824H20.9238V27.0592H22.1544V25.824Z" fill="#111111"/>
<path d="M22.1544 24.5886H20.9238V25.8238H22.1544V24.5886Z" fill="#111111"/>
<path d="M22.1544 23.3535H20.9238V24.5887H22.1544V23.3535Z" fill="#111111"/>
<path d="M22.1544 22.1182H20.9238V23.3534H22.1544V22.1182Z" fill="#111111"/>
<path d="M22.1544 20.8818H20.9238V22.1183H22.1544V20.8818Z" fill="#111111"/>
<path d="M22.1544 19.6465H20.9238V20.8817H22.1544V19.6465Z" fill="#111111"/>
<path d="M22.1544 18.4114H20.9238V19.6466H22.1544V18.4114Z" fill="#111111"/>
<path d="M22.1544 17.176H20.9238V18.4112H22.1544V17.176Z" fill="#111111"/>
<path d="M22.1544 15.9409H20.9238V17.1761H22.1544V15.9409Z" fill="#111111"/>
<path d="M22.1544 14.7056H20.9238V15.9408H22.1544V14.7056Z" fill="#111111"/>
<path d="M22.1544 13.4705H20.9238V14.7057H22.1544V13.4705Z" fill="#111111"/>
<path d="M22.1544 12.2351H20.9238V13.4703H22.1544V12.2351Z" fill="white"/>
<path d="M20.9239 30.7649H19.6934V32.0001H20.9239V30.7649Z" fill="white"/>
<path d="M20.9239 29.5295H19.6934V30.7648H20.9239V29.5295Z" fill="#111111"/>
<path d="M20.9239 28.2944H19.6934V29.5297H20.9239V28.2944Z" fill="#111111"/>
<path d="M20.9239 27.0591H19.6934V28.2943H20.9239V27.0591Z" fill="white"/>
<path d="M20.9239 25.824H19.6934V27.0592H20.9239V25.824Z" fill="white"/>
<path d="M20.9239 24.5886H19.6934V25.8238H20.9239V24.5886Z" fill="#111111"/>
<path d="M20.9239 23.3535H19.6934V24.5887H20.9239V23.3535Z" fill="#111111"/>
<path d="M20.9239 22.1182H19.6934V23.3534H20.9239V22.1182Z" fill="#111111"/>
<path d="M20.9239 20.8818H19.6934V22.1183H20.9239V20.8818Z" fill="#111111"/>
<path d="M20.9239 19.6465H19.6934V20.8817H20.9239V19.6465Z" fill="#111111"/>
<path d="M20.9239 18.4114H19.6934V19.6466H20.9239V18.4114Z" fill="#111111"/>
<path d="M20.9239 17.176H19.6934V18.4112H20.9239V17.176Z" fill="#111111"/>
<path d="M20.9239 15.9409H19.6934V17.1761H20.9239V15.9409Z" fill="#111111"/>
<path d="M20.9239 14.7056H19.6934V15.9408H20.9239V14.7056Z" fill="#111111"/>
<path d="M20.9239 13.4705H19.6934V14.7057H20.9239V13.4705Z" fill="#111111"/>
<path d="M20.9239 12.2351H19.6934V13.4703H20.9239V12.2351Z" fill="white"/>
<path d="M19.6928 30.7649H18.4609V32.0001H19.6928V30.7649Z" fill="white"/>
<path d="M19.6928 29.5295H18.4609V30.7648H19.6928V29.5295Z" fill="#111111"/>
<path d="M19.6928 28.2944H18.4609V29.5297H19.6928V28.2944Z" fill="#111111"/>
<path d="M19.6928 27.0591H18.4609V28.2943H19.6928V27.0591Z" fill="#111111"/>
<path d="M19.6928 25.824H18.4609V27.0592H19.6928V25.824Z" fill="#111111"/>
<path d="M19.6928 24.5886H18.4609V25.8238H19.6928V24.5886Z" fill="#111111"/>
<path d="M19.6928 23.3535H18.4609V24.5887H19.6928V23.3535Z" fill="#111111"/>
<path d="M19.6928 22.1182H18.4609V23.3534H19.6928V22.1182Z" fill="white"/>
<path d="M19.6928 20.8818H18.4609V22.1183H19.6928V20.8818Z" fill="#111111"/>
<path d="M19.6928 19.6465H18.4609V20.8817H19.6928V19.6465Z" fill="#111111"/>
<path d="M19.6928 18.4114H18.4609V19.6466H19.6928V18.4114Z" fill="#111111"/>
<path d="M19.6928 17.176H18.4609V18.4112H19.6928V17.176Z" fill="#111111"/>
<path d="M19.6928 15.9409H18.4609V17.1761H19.6928V15.9409Z" fill="#111111"/>
<path d="M19.6928 14.7056H18.4609V15.9408H19.6928V14.7056Z" fill="#111111"/>
<path d="M19.6928 13.4705H18.4609V14.7057H19.6928V13.4705Z" fill="#111111"/>
<path d="M19.6928 12.2351H18.4609V13.4703H19.6928V12.2351Z" fill="white"/>
<path d="M18.461 29.5295H17.2305V30.7648H18.461V29.5295Z" fill="white"/>
<path d="M18.461 28.2944H17.2305V29.5297H18.461V28.2944Z" fill="#111111"/>
<path d="M18.461 27.0591H17.2305V28.2943H18.461V27.0591Z" fill="#111111"/>
<path d="M18.461 25.824H17.2305V27.0592H18.461V25.824Z" fill="#111111"/>
<path d="M18.461 24.5886H17.2305V25.8238H18.461V24.5886Z" fill="white"/>
<path d="M18.461 23.3535H17.2305V24.5887H18.461V23.3535Z" fill="white"/>
<path d="M18.461 20.8818H17.2305V22.1183H18.461V20.8818Z" fill="white"/>
<path d="M18.461 19.6465H17.2305V20.8817H18.461V19.6465Z" fill="white"/>
<path d="M18.461 18.4114H17.2305V19.6466H18.461V18.4114Z" fill="white"/>
<path d="M18.461 17.176H17.2305V18.4112H18.461V17.176Z" fill="white"/>
<path d="M18.461 15.9409H17.2305V17.1761H18.461V15.9409Z" fill="white"/>
<path d="M18.461 14.7056H17.2305V15.9408H18.461V14.7056Z" fill="white"/>
<path d="M18.461 13.4705H17.2305V14.7057H18.461V13.4705Z" fill="white"/>
<path d="M17.2306 28.2944H16V29.5297H17.2306V28.2944Z" fill="white"/>
<path d="M17.2306 27.0591H16V28.2943H17.2306V27.0591Z" fill="white"/>
<path d="M17.2306 25.824H16V27.0592H17.2306V25.824Z" fill="white"/>
</svg>
