<svg width="17" height="13" viewBox="0 0 17 13" fill="none" xmlns="http://www.w3.org/2000/svg">
<path d="M17.0001 3.5H13.8013V6.49991H17.0001V3.5Z" fill="#FF6500"/>
<path d="M13.7969 6.5H10.5981V9.49991H13.7969V6.5Z" fill="#FF6500"/>
<path d="M13.7969 3.5H10.5981V6.49991H13.7969V3.5Z" fill="#FF6500"/>
<path d="M13.7969 0.5H10.5981V3.49991H13.7969V0.5Z" fill="#FF6500"/>
<path d="M10.5977 9.5H7.39893V12.4999H10.5977V9.5Z" fill="#FF6500"/>
<path d="M10.5977 6.5H7.39893V9.49991H10.5977V6.5Z" fill="#FF6500"/>
<path d="M10.5977 3.5H7.39893V6.49991H10.5977V3.5Z" fill="#FF6500"/>
<path d="M7.39979 6.5H4.19775V9.49991H7.39979V6.5Z" fill="#FF6500"/>
<path d="M7.39979 3.5H4.19775V6.49991H7.39979V3.5Z" fill="#FF6500"/>
<path d="M7.39979 0.5H4.19775V3.49991H7.39979V0.5Z" fill="#FF6500"/>
<path d="M4.19734 3.5H0.998535V6.49991H4.19734V3.5Z" fill="#FF6500"/>
</svg>
