<svg width="17" height="13" viewBox="0 0 17 13" fill="none" xmlns="http://www.w3.org/2000/svg">
<path d="M16.9996 3.5H13.8008V6.49991H16.9996V3.5Z" fill="#3867D6"/>
<path d="M13.7965 6.5H10.5977V9.49991H13.7965V6.5Z" fill="#3867D6"/>
<path d="M13.7965 3.5H10.5977V6.49991H13.7965V3.5Z" fill="#3867D6"/>
<path d="M13.7965 0.5H10.5977V3.49991H13.7965V0.5Z" fill="#3867D6"/>
<path d="M10.5972 9.5H7.39844V12.4999H10.5972V9.5Z" fill="#3867D6"/>
<path d="M10.5972 6.5H7.39844V9.49991H10.5972V6.5Z" fill="#3867D6"/>
<path d="M10.5972 3.5H7.39844V6.49991H10.5972V3.5Z" fill="#3867D6"/>
<path d="M7.3993 6.5H4.19727V9.49991H7.3993V6.5Z" fill="#3867D6"/>
<path d="M7.3993 3.5H4.19727V6.49991H7.3993V3.5Z" fill="#3867D6"/>
<path d="M7.3993 0.5H4.19727V3.49991H7.3993V0.5Z" fill="#3867D6"/>
<path d="M4.19685 3.5H0.998047V6.49991H4.19685V3.5Z" fill="#3867D6"/>
</svg>
