<svg width="48" height="44" viewBox="0 0 48 44" fill="none" xmlns="http://www.w3.org/2000/svg">
<g clip-path="url(#clip0_1188_20020)">
<path d="M45.4996 35.334H42.1924V38.667H45.4996V35.334Z" fill="#111111"/>
<path d="M45.4996 32.0007H42.1924V35.3338H45.4996V32.0007Z" fill="#111111"/>
<path d="M45.4996 28.6677H42.1924V32.0008H45.4996V28.6677Z" fill="#111111"/>
<path d="M45.4996 25.3347H42.1924V28.6678H45.4996V25.3347Z" fill="#111111"/>
<path d="M45.4996 22.0017H42.1924V25.3348H45.4996V22.0017Z" fill="#111111"/>
<path d="M45.4996 18.6687H42.1924V22.0018H45.4996V18.6687Z" fill="#111111"/>
<path d="M45.4996 15.3323H42.1924V18.6687H45.4996V15.3323Z" fill="#111111"/>
<path d="M42.1929 38.667H38.8857V42H42.1929V38.667Z" fill="#111111"/>
<path d="M42.1929 35.334H38.8857V38.667H42.1929V35.334Z" fill="#FFC885"/>
<path d="M42.1929 32.0007H38.8857V35.3338H42.1929V32.0007Z" fill="white"/>
<path d="M42.1929 28.6677H38.8857V32.0008H42.1929V28.6677Z" fill="white"/>
<path d="M42.1929 25.3347H38.8857V28.6678H42.1929V25.3347Z" fill="white"/>
<path d="M42.1929 22.0017H38.8857V25.3348H42.1929V22.0017Z" fill="white"/>
<path d="M42.1929 18.6687H38.8857V22.0018H42.1929V18.6687Z" fill="white"/>
<path d="M42.1929 15.3323H38.8857V18.6687H42.1929V15.3323Z" fill="#FFC885"/>
<path d="M42.1929 11.9993H38.8857V15.3323H42.1929V11.9993Z" fill="#111111"/>
<path d="M38.8857 38.667H35.5752V42H38.8857V38.667Z" fill="#111111"/>
<path d="M38.8857 35.334H35.5752V38.667H38.8857V35.334Z" fill="white"/>
<path d="M38.8857 32.0007H35.5752V35.3338H38.8857V32.0007Z" fill="#FFC885"/>
<path d="M38.8857 28.6677H35.5752V32.0008H38.8857V28.6677Z" fill="white"/>
<path d="M38.8857 25.3347H35.5752V28.6678H38.8857V25.3347Z" fill="white"/>
<path d="M38.8857 22.0017H35.5752V25.3348H38.8857V22.0017Z" fill="white"/>
<path d="M38.8857 18.6687H35.5752V22.0018H38.8857V18.6687Z" fill="#FFC885"/>
<path d="M38.8857 15.3323H35.5752V18.6687H38.8857V15.3323Z" fill="#FFC885"/>
<path d="M38.8857 11.9993H35.5752V15.3323H38.8857V11.9993Z" fill="#FFC885"/>
<path d="M38.8857 8.66602H35.5752V11.9991H38.8857V8.66602Z" fill="#111111"/>
<path d="M35.5748 38.667H32.2676V42H35.5748V38.667Z" fill="#111111"/>
<path d="M35.5748 35.334H32.2676V38.667H35.5748V35.334Z" fill="white"/>
<path d="M35.5748 32.0007H32.2676V35.3338H35.5748V32.0007Z" fill="white"/>
<path d="M35.5748 28.6677H32.2676V32.0008H35.5748V28.6677Z" fill="#FFC885"/>
<path d="M35.5748 25.3347H32.2676V28.6678H35.5748V25.3347Z" fill="white"/>
<path d="M35.5748 22.0017H32.2676V25.3348H35.5748V22.0017Z" fill="#FFC885"/>
<path d="M35.5748 18.6687H32.2676V22.0018H35.5748V18.6687Z" fill="#FFC885"/>
<path d="M35.5748 15.3323H32.2676V18.6687H35.5748V15.3323Z" fill="#FFC885"/>
<path d="M35.5748 11.9993H32.2676V15.3323H35.5748V11.9993Z" fill="#FFC885"/>
<path d="M35.5748 8.66602H32.2676V11.9991H35.5748V8.66602Z" fill="#FFC885"/>
<path d="M35.5748 5.33301H32.2676V8.66606H35.5748V5.33301Z" fill="#111111"/>
<path d="M32.2681 38.667H28.9609V42H32.2681V38.667Z" fill="#111111"/>
<path d="M32.2681 35.334H28.9609V38.667H32.2681V35.334Z" fill="white"/>
<path d="M32.2681 32.0007H28.9609V35.3338H32.2681V32.0007Z" fill="white"/>
<path d="M32.2681 28.6677H28.9609V32.0008H32.2681V28.6677Z" fill="white"/>
<path d="M32.2681 25.3347H28.9609V28.6678H32.2681V25.3347Z" fill="white"/>
<path d="M32.2681 22.0017H28.9609V25.3348H32.2681V22.0017Z" fill="#FFC885"/>
<path d="M32.2681 18.6687H28.9609V22.0018H32.2681V18.6687Z" fill="#3867D6"/>
<path d="M32.2681 15.3323H28.9609V18.6687H32.2681V15.3323Z" fill="#3867D6"/>
<path d="M32.2681 11.9993H28.9609V15.3323H32.2681V11.9993Z" fill="#FFC885"/>
<path d="M32.2681 8.66602H28.9609V11.9991H32.2681V8.66602Z" fill="#FFC885"/>
<path d="M32.2681 5.33301H28.9609V8.66606H32.2681V5.33301Z" fill="#FFC885"/>
<path d="M32.2681 2H28.9609V5.33305H32.2681V2Z" fill="#111111"/>
<path d="M28.9605 38.667H25.6533V42H28.9605V38.667Z" fill="#111111"/>
<path d="M28.9605 35.334H25.6533V38.667H28.9605V35.334Z" fill="white"/>
<path d="M28.9605 32.0007H25.6533V35.3338H28.9605V32.0007Z" fill="white"/>
<path d="M28.9605 28.6677H25.6533V32.0008H28.9605V28.6677Z" fill="white"/>
<path d="M28.9605 25.3347H25.6533V28.6678H28.9605V25.3347Z" fill="white"/>
<path d="M28.9605 22.0017H25.6533V25.3348H28.9605V22.0017Z" fill="#3867D6"/>
<path d="M28.9605 18.6687H25.6533V22.0018H28.9605V18.6687Z" fill="#3867D6"/>
<path d="M28.9605 15.3323H25.6533V18.6687H28.9605V15.3323Z" fill="#3867D6"/>
<path d="M28.9605 11.9993H25.6533V15.3323H28.9605V11.9993Z" fill="#3867D6"/>
<path d="M28.9605 8.66602H25.6533V11.9991H28.9605V8.66602Z" fill="#FFC885"/>
<path d="M28.9605 5.33301H25.6533V8.66606H28.9605V5.33301Z" fill="#FFC885"/>
<path d="M28.9605 2H25.6533V5.33305H28.9605V2Z" fill="#111111"/>
<path d="M25.6539 38.667H22.3467V42H25.6539V38.667Z" fill="#111111"/>
<path d="M25.6539 35.334H22.3467V38.667H25.6539V35.334Z" fill="white"/>
<path d="M25.6539 32.0007H22.3467V35.3338H25.6539V32.0007Z" fill="white"/>
<path d="M25.6539 28.6677H22.3467V32.0008H25.6539V28.6677Z" fill="white"/>
<path d="M25.6539 25.3347H22.3467V28.6678H25.6539V25.3347Z" fill="#3867D6"/>
<path d="M25.6539 22.0017H22.3467V25.3348H25.6539V22.0017Z" fill="#3867D6"/>
<path d="M25.6539 18.6687H22.3467V22.0018H25.6539V18.6687Z" fill="#3867D6"/>
<path d="M25.6539 15.3323H22.3467V18.6687H25.6539V15.3323Z" fill="#3867D6"/>
<path d="M25.6539 11.9993H22.3467V15.3323H25.6539V11.9993Z" fill="#FFC885"/>
<path d="M25.6539 8.66602H22.3467V11.9991H25.6539V8.66602Z" fill="#FFC885"/>
<path d="M25.6539 5.33301H22.3467V8.66606H25.6539V5.33301Z" fill="#FFC885"/>
<path d="M25.6539 2H22.3467V5.33305H25.6539V2Z" fill="#111111"/>
<path d="M22.3462 38.667H19.0391V42H22.3462V38.667Z" fill="#111111"/>
<path d="M22.3462 35.334H19.0391V38.667H22.3462V35.334Z" fill="white"/>
<path d="M22.3462 32.0007H19.0391V35.3338H22.3462V32.0007Z" fill="white"/>
<path d="M22.3462 28.6677H19.0391V32.0008H22.3462V28.6677Z" fill="white"/>
<path d="M22.3462 25.3347H19.0391V28.6678H22.3462V25.3347Z" fill="white"/>
<path d="M22.3462 22.0017H19.0391V25.3348H22.3462V22.0017Z" fill="#3867D6"/>
<path d="M22.3462 18.6687H19.0391V22.0018H22.3462V18.6687Z" fill="#3867D6"/>
<path d="M22.3462 15.3323H19.0391V18.6687H22.3462V15.3323Z" fill="#3867D6"/>
<path d="M22.3462 11.9993H19.0391V15.3323H22.3462V11.9993Z" fill="#3867D6"/>
<path d="M22.3462 8.66602H19.0391V11.9991H22.3462V8.66602Z" fill="#FFC885"/>
<path d="M22.3462 5.33301H19.0391V8.66606H22.3462V5.33301Z" fill="#FFC885"/>
<path d="M22.3462 2H19.0391V5.33305H22.3462V2Z" fill="#111111"/>
<path d="M19.0396 38.667H15.7324V42H19.0396V38.667Z" fill="#111111"/>
<path d="M19.0396 35.334H15.7324V38.667H19.0396V35.334Z" fill="white"/>
<path d="M19.0396 32.0007H15.7324V35.3338H19.0396V32.0007Z" fill="white"/>
<path d="M19.0396 28.6677H15.7324V32.0008H19.0396V28.6677Z" fill="white"/>
<path d="M19.0396 25.3347H15.7324V28.6678H19.0396V25.3347Z" fill="white"/>
<path d="M19.0396 22.0017H15.7324V25.3348H19.0396V22.0017Z" fill="#FFC885"/>
<path d="M19.0396 18.6687H15.7324V22.0018H19.0396V18.6687Z" fill="#3867D6"/>
<path d="M19.0396 15.3323H15.7324V18.6687H19.0396V15.3323Z" fill="#3867D6"/>
<path d="M19.0396 11.9993H15.7324V15.3323H19.0396V11.9993Z" fill="#FFC885"/>
<path d="M19.0396 8.66602H15.7324V11.9991H19.0396V8.66602Z" fill="#FFC885"/>
<path d="M19.0396 5.33301H15.7324V8.66606H19.0396V5.33301Z" fill="#FFC885"/>
<path d="M19.0396 2H15.7324V5.33305H19.0396V2Z" fill="#111111"/>
<path d="M15.732 38.667H12.4248V42H15.732V38.667Z" fill="#111111"/>
<path d="M15.732 35.334H12.4248V38.667H15.732V35.334Z" fill="white"/>
<path d="M15.732 32.0007H12.4248V35.3338H15.732V32.0007Z" fill="white"/>
<path d="M15.732 28.6677H12.4248V32.0008H15.732V28.6677Z" fill="#FFC885"/>
<path d="M15.732 25.3347H12.4248V28.6678H15.732V25.3347Z" fill="white"/>
<path d="M15.732 22.0017H12.4248V25.3348H15.732V22.0017Z" fill="#FFC885"/>
<path d="M15.732 18.6687H12.4248V22.0018H15.732V18.6687Z" fill="#FFC885"/>
<path d="M15.732 15.3323H12.4248V18.6687H15.732V15.3323Z" fill="#FFC885"/>
<path d="M15.732 11.9993H12.4248V15.3323H15.732V11.9993Z" fill="#FFC885"/>
<path d="M15.732 8.66602H12.4248V11.9991H15.732V8.66602Z" fill="#FFC885"/>
<path d="M15.732 5.33301H12.4248V8.66606H15.732V5.33301Z" fill="#111111"/>
<path d="M12.4253 38.667H9.11816V42H12.4253V38.667Z" fill="#111111"/>
<path d="M12.4253 35.334H9.11816V38.667H12.4253V35.334Z" fill="white"/>
<path d="M12.4253 32.0007H9.11816V35.3338H12.4253V32.0007Z" fill="#FFC885"/>
<path d="M12.4253 28.6677H9.11816V32.0008H12.4253V28.6677Z" fill="white"/>
<path d="M12.4253 25.3347H9.11816V28.6678H12.4253V25.3347Z" fill="white"/>
<path d="M12.4253 22.0017H9.11816V25.3348H12.4253V22.0017Z" fill="white"/>
<path d="M12.4253 18.6687H9.11816V22.0018H12.4253V18.6687Z" fill="#FFC885"/>
<path d="M12.4253 15.3323H9.11816V18.6687H12.4253V15.3323Z" fill="#FFC885"/>
<path d="M12.4253 11.9993H9.11816V15.3323H12.4253V11.9993Z" fill="#FFC885"/>
<path d="M12.4253 8.66602H9.11816V11.9991H12.4253V8.66602Z" fill="#111111"/>
<path d="M9.11772 38.667H5.81055V42H9.11772V38.667Z" fill="#111111"/>
<path d="M9.11772 35.334H5.81055V38.667H9.11772V35.334Z" fill="#FFC885"/>
<path d="M9.11772 32.0007H5.81055V35.3338H9.11772V32.0007Z" fill="white"/>
<path d="M9.11772 28.6677H5.81055V32.0008H9.11772V28.6677Z" fill="white"/>
<path d="M9.11772 25.3347H5.81055V28.6678H9.11772V25.3347Z" fill="white"/>
<path d="M9.11772 22.0017H5.81055V25.3348H9.11772V22.0017Z" fill="white"/>
<path d="M9.11772 18.6687H5.81055V22.0018H9.11772V18.6687Z" fill="white"/>
<path d="M9.11772 15.3323H5.81055V18.6687H9.11772V15.3323Z" fill="#FFC885"/>
<path d="M9.11772 11.9993H5.81055V15.3323H9.11772V11.9993Z" fill="#111111"/>
<path d="M5.81052 35.334H2.5V38.667H5.81052V35.334Z" fill="#111111"/>
<path d="M5.81052 32.0007H2.5V35.3338H5.81052V32.0007Z" fill="#111111"/>
<path d="M5.81052 28.6677H2.5V32.0008H5.81052V28.6677Z" fill="#111111"/>
<path d="M5.81052 25.3347H2.5V28.6678H5.81052V25.3347Z" fill="#111111"/>
<path d="M5.81052 22.0017H2.5V25.3348H5.81052V22.0017Z" fill="#111111"/>
<path d="M5.81052 18.6687H2.5V22.0018H5.81052V18.6687Z" fill="#111111"/>
<path d="M5.81052 15.3323H2.5V18.6687H5.81052V15.3323Z" fill="#111111"/>
</g>
<defs>
<clipPath id="clip0_1188_20020">
<rect width="43" height="40" fill="white" transform="translate(2.5 2)"/>
</clipPath>
</defs>
</svg>
