<svg width="48" height="44" viewBox="0 0 48 44" fill="none" xmlns="http://www.w3.org/2000/svg">
<path d="M45.4996 37.407H42.1924V40.7032H45.4996V37.407Z" fill="#111111"/>
<path d="M45.4996 34.1111H42.1924V37.4073H45.4996V34.1111Z" fill="#111111"/>
<path d="M45.4996 30.8154H42.1924V34.1116H45.4996V30.8154Z" fill="#111111"/>
<path d="M45.4996 27.5188H42.1924V30.815H45.4996V27.5188Z" fill="#111111"/>
<path d="M45.4996 24.2229H42.1924V27.5191H45.4996V24.2229Z" fill="#111111"/>
<path d="M45.4996 20.9268H42.1924V24.223H45.4996V20.9268Z" fill="#111111"/>
<path d="M45.4996 17.6262H42.1924V20.9258H45.4996V17.6262Z" fill="#111111"/>
<path d="M42.192 40.7036H38.8848V43.9998H42.192V40.7036Z" fill="#111111"/>
<path d="M42.192 37.407H38.8848V40.7032H42.192V37.407Z" fill="#FFC885"/>
<path d="M42.192 34.1111H38.8848V37.4073H42.192V34.1111Z" fill="white"/>
<path d="M42.192 30.8154H38.8848V34.1116H42.192V30.8154Z" fill="white"/>
<path d="M42.192 27.5188H38.8848V30.815H42.192V27.5188Z" fill="white"/>
<path d="M42.192 24.2229H38.8848V27.5191H42.192V24.2229Z" fill="white"/>
<path d="M42.192 20.9268H38.8848V24.223H42.192V20.9268Z" fill="white"/>
<path d="M42.192 17.6262H38.8848V20.9258H42.192V17.6262Z" fill="#FFC885"/>
<path d="M42.192 14.3303H38.8848V17.6265H42.192V14.3303Z" fill="#111111"/>
<path d="M38.8838 40.7036H35.5732V43.9998H38.8838V40.7036Z" fill="#111111"/>
<path d="M38.8838 37.407H35.5732V40.7032H38.8838V37.407Z" fill="white"/>
<path d="M38.8838 34.1111H35.5732V37.4073H38.8838V34.1111Z" fill="#FFC885"/>
<path d="M38.8838 30.8154H35.5732V34.1116H38.8838V30.8154Z" fill="white"/>
<path d="M38.8838 27.5188H35.5732V30.815H38.8838V27.5188Z" fill="white"/>
<path d="M38.8838 24.2229H35.5732V27.5191H38.8838V24.2229Z" fill="white"/>
<path d="M38.8838 20.9268H35.5732V24.223H38.8838V20.9268Z" fill="#FFC885"/>
<path d="M38.8838 17.6262H35.5732V20.9258H38.8838V17.6262Z" fill="#FFC885"/>
<path d="M38.8838 14.3303H35.5732V17.6265H38.8838V14.3303Z" fill="#FFC885"/>
<path d="M38.8838 11.0347H35.5732V14.3309H38.8838V11.0347Z" fill="#111111"/>
<path d="M35.5748 40.7036H32.2676V43.9998H35.5748V40.7036Z" fill="#111111"/>
<path d="M35.5748 37.407H32.2676V40.7032H35.5748V37.407Z" fill="white"/>
<path d="M35.5748 34.1111H32.2676V37.4073H35.5748V34.1111Z" fill="white"/>
<path d="M35.5748 30.8154H32.2676V34.1116H35.5748V30.8154Z" fill="#FFC885"/>
<path d="M35.5748 27.5188H32.2676V30.815H35.5748V27.5188Z" fill="white"/>
<path d="M35.5748 24.2229H32.2676V27.5191H35.5748V24.2229Z" fill="#FFC885"/>
<path d="M35.5748 20.9268H32.2676V24.223H35.5748V20.9268Z" fill="#FFC885"/>
<path d="M35.5748 17.6262H32.2676V20.9258H35.5748V17.6262Z" fill="#FFC885"/>
<path d="M35.5748 14.3303H32.2676V17.6265H35.5748V14.3303Z" fill="#FFC885"/>
<path d="M35.5748 11.0347H32.2676V14.3309H35.5748V11.0347Z" fill="#FFC885"/>
<path d="M35.5748 7.73779H32.2676V11.034H35.5748V7.73779Z" fill="#111111"/>
<path d="M32.2672 40.7036H28.96V43.9998H32.2672V40.7036Z" fill="#111111"/>
<path d="M32.2672 37.407H28.96V40.7032H32.2672V37.407Z" fill="white"/>
<path d="M32.2672 34.1111H28.96V37.4073H32.2672V34.1111Z" fill="white"/>
<path d="M32.2672 30.8154H28.96V34.1116H32.2672V30.8154Z" fill="white"/>
<path d="M32.2672 27.5188H28.96V30.815H32.2672V27.5188Z" fill="white"/>
<path d="M32.2672 24.2229H28.96V27.5191H32.2672V24.2229Z" fill="#FFC885"/>
<path d="M32.2672 20.9268H28.96V24.223H32.2672V20.9268Z" fill="#FFC885"/>
<path d="M32.2672 17.6262H28.96V20.9258H32.2672V17.6262Z" fill="#FFC885"/>
<path d="M32.2672 14.3303H28.96V17.6265H32.2672V14.3303Z" fill="#FFC885"/>
<path d="M32.2672 11.0347H28.96V14.3309H32.2672V11.0347Z" fill="#FFC885"/>
<path d="M32.2672 7.73779H28.96V11.034H32.2672V7.73779Z" fill="#FFC885"/>
<path d="M32.2672 4.44165H28.96V7.73786H32.2672V4.44165Z" fill="#111111"/>
<path d="M28.9615 40.7036H25.6543V43.9998H28.9615V40.7036Z" fill="#111111"/>
<path d="M28.9615 37.407H25.6543V40.7032H28.9615V37.407Z" fill="white"/>
<path d="M28.9615 34.1111H25.6543V37.4073H28.9615V34.1111Z" fill="white"/>
<path d="M28.9615 30.8154H25.6543V34.1116H28.9615V30.8154Z" fill="white"/>
<path d="M28.9615 27.5188H25.6543V30.815H28.9615V27.5188Z" fill="white"/>
<path d="M28.9615 24.2229H25.6543V27.5191H28.9615V24.2229Z" fill="#FFC885"/>
<path d="M28.9615 20.9268H25.6543V24.223H28.9615V20.9268Z" fill="#FFC885"/>
<path d="M28.9615 17.6262H25.6543V20.9258H28.9615V17.6262Z" fill="#FFC885"/>
<path d="M28.9615 14.3303H25.6543V17.6265H28.9615V14.3303Z" fill="#FFC885"/>
<path d="M28.9615 11.0347H25.6543V14.3309H28.9615V11.0347Z" fill="#FFC885"/>
<path d="M28.9615 7.73779H25.6543V11.034H28.9615V7.73779Z" fill="#FFC885"/>
<path d="M28.9615 4.44165H25.6543V7.73786H28.9615V4.44165Z" fill="#111111"/>
<path d="M25.6539 40.7036H22.3467V43.9998H25.6539V40.7036Z" fill="#111111"/>
<path d="M25.6539 37.407H22.3467V40.7032H25.6539V37.407Z" fill="white"/>
<path d="M25.6539 34.1111H22.3467V37.4073H25.6539V34.1111Z" fill="white"/>
<path d="M25.6539 30.8154H22.3467V34.1116H25.6539V30.8154Z" fill="white"/>
<path d="M25.6539 27.5188H22.3467V30.815H25.6539V27.5188Z" fill="white"/>
<path d="M25.6539 24.2229H22.3467V27.5191H25.6539V24.2229Z" fill="#FFC885"/>
<path d="M25.6539 20.9268H22.3467V24.223H25.6539V20.9268Z" fill="#FFC885"/>
<path d="M25.6539 17.6262H22.3467V20.9258H25.6539V17.6262Z" fill="#FFC885"/>
<path d="M25.6539 14.3303H22.3467V17.6265H25.6539V14.3303Z" fill="#FFC885"/>
<path d="M25.6539 11.0347H22.3467V14.3309H25.6539V11.0347Z" fill="#FFC885"/>
<path d="M25.6539 7.73779H22.3467V11.034H25.6539V7.73779Z" fill="#FFC885"/>
<path d="M25.6539 4.44165H22.3467V7.73786H25.6539V4.44165Z" fill="#111111"/>
<path d="M22.3453 40.7036H19.0381V43.9998H22.3453V40.7036Z" fill="#111111"/>
<path d="M22.3453 37.407H19.0381V40.7032H22.3453V37.407Z" fill="white"/>
<path d="M22.3453 34.1111H19.0381V37.4073H22.3453V34.1111Z" fill="white"/>
<path d="M22.3453 30.8154H19.0381V34.1116H22.3453V30.8154Z" fill="white"/>
<path d="M22.3453 27.5188H19.0381V30.815H22.3453V27.5188Z" fill="white"/>
<path d="M22.3453 24.2229H19.0381V27.5191H22.3453V24.2229Z" fill="#FFC885"/>
<path d="M22.3453 20.9268H19.0381V24.223H22.3453V20.9268Z" fill="#FFC885"/>
<path d="M22.3453 17.6262H19.0381V20.9258H22.3453V17.6262Z" fill="#FFC885"/>
<path d="M22.3453 14.3303H19.0381V17.6265H22.3453V14.3303Z" fill="#FFC885"/>
<path d="M22.3453 11.0347H19.0381V14.3309H22.3453V11.0347Z" fill="#FFC885"/>
<path d="M22.3453 7.73779H19.0381V11.034H22.3453V7.73779Z" fill="#FFC885"/>
<path d="M22.3453 4.44165H19.0381V7.73786H22.3453V4.44165Z" fill="#111111"/>
<path d="M19.0396 40.7036H15.7324V43.9998H19.0396V40.7036Z" fill="#111111"/>
<path d="M19.0396 37.407H15.7324V40.7032H19.0396V37.407Z" fill="white"/>
<path d="M19.0396 34.1111H15.7324V37.4073H19.0396V34.1111Z" fill="white"/>
<path d="M19.0396 30.8154H15.7324V34.1116H19.0396V30.8154Z" fill="white"/>
<path d="M19.0396 27.5188H15.7324V30.815H19.0396V27.5188Z" fill="white"/>
<path d="M19.0396 24.2229H15.7324V27.5191H19.0396V24.2229Z" fill="#FFC885"/>
<path d="M19.0396 20.9268H15.7324V24.223H19.0396V20.9268Z" fill="#FFC885"/>
<path d="M19.0396 17.6262H15.7324V20.9258H19.0396V17.6262Z" fill="#FFC885"/>
<path d="M19.0396 14.3303H15.7324V17.6265H19.0396V14.3303Z" fill="#FFC885"/>
<path d="M19.0396 11.0347H15.7324V14.3309H19.0396V11.0347Z" fill="#FFC885"/>
<path d="M19.0396 7.73779H15.7324V11.034H19.0396V7.73779Z" fill="#FFC885"/>
<path d="M19.0396 4.44165H15.7324V7.73786H19.0396V4.44165Z" fill="#111111"/>
<path d="M15.733 40.7036H12.4258V43.9998H15.733V40.7036Z" fill="#111111"/>
<path d="M15.733 37.407H12.4258V40.7032H15.733V37.407Z" fill="white"/>
<path d="M15.733 34.1111H12.4258V37.4073H15.733V34.1111Z" fill="white"/>
<path d="M15.733 30.8154H12.4258V34.1116H15.733V30.8154Z" fill="#FFC885"/>
<path d="M15.733 27.5188H12.4258V30.815H15.733V27.5188Z" fill="white"/>
<path d="M15.733 24.2229H12.4258V27.5191H15.733V24.2229Z" fill="#FFC885"/>
<path d="M15.733 20.9268H12.4258V24.223H15.733V20.9268Z" fill="#FFC885"/>
<path d="M15.733 17.6262H12.4258V20.9258H15.733V17.6262Z" fill="#FFC885"/>
<path d="M15.733 14.3303H12.4258V17.6265H15.733V14.3303Z" fill="#FFC885"/>
<path d="M15.733 11.0347H12.4258V14.3309H15.733V11.0347Z" fill="#FFC885"/>
<path d="M15.733 7.73779H12.4258V11.034H15.733V7.73779Z" fill="#111111"/>
<path d="M12.4244 40.7036H9.11719V43.9998H12.4244V40.7036Z" fill="#111111"/>
<path d="M12.4244 37.407H9.11719V40.7032H12.4244V37.407Z" fill="white"/>
<path d="M12.4244 34.1111H9.11719V37.4073H12.4244V34.1111Z" fill="#FFC885"/>
<path d="M12.4244 30.8154H9.11719V34.1116H12.4244V30.8154Z" fill="white"/>
<path d="M12.4244 27.5188H9.11719V30.815H12.4244V27.5188Z" fill="white"/>
<path d="M12.4244 24.2229H9.11719V27.5191H12.4244V24.2229Z" fill="white"/>
<path d="M12.4244 20.9268H9.11719V24.223H12.4244V20.9268Z" fill="#FFC885"/>
<path d="M12.4244 17.6262H9.11719V20.9258H12.4244V17.6262Z" fill="#FFC885"/>
<path d="M12.4244 14.3303H9.11719V17.6265H12.4244V14.3303Z" fill="#FFC885"/>
<path d="M12.4244 11.0347H9.11719V14.3309H12.4244V11.0347Z" fill="#111111"/>
<path d="M9.11579 40.7036H5.80859V43.9998H9.11579V40.7036Z" fill="#111111"/>
<path d="M9.11579 37.407H5.80859V40.7032H9.11579V37.407Z" fill="#FFC885"/>
<path d="M9.11579 34.1111H5.80859V37.4073H9.11579V34.1111Z" fill="white"/>
<path d="M9.11579 30.8154H5.80859V34.1116H9.11579V30.8154Z" fill="white"/>
<path d="M9.11579 27.5188H5.80859V30.815H9.11579V27.5188Z" fill="white"/>
<path d="M9.11579 24.2229H5.80859V27.5191H9.11579V24.2229Z" fill="white"/>
<path d="M9.11579 20.9268H5.80859V24.223H9.11579V20.9268Z" fill="white"/>
<path d="M9.11579 17.6262H5.80859V20.9258H9.11579V17.6262Z" fill="#FFC885"/>
<path d="M9.11579 14.3303H5.80859V17.6265H9.11579V14.3303Z" fill="#111111"/>
<path d="M5.81053 37.407H2.5V40.7032H5.81053V37.407Z" fill="#111111"/>
<path d="M5.81053 34.1111H2.5V37.4073H5.81053V34.1111Z" fill="#111111"/>
<path d="M5.81053 30.8154H2.5V34.1116H5.81053V30.8154Z" fill="#111111"/>
<path d="M5.81053 27.519H2.5V30.8153H5.81053V27.519Z" fill="#111111"/>
<path d="M5.81053 24.2229H2.5V27.5191H5.81053V24.2229Z" fill="#111111"/>
<path d="M5.81053 20.9268H2.5V24.223H5.81053V20.9268Z" fill="#111111"/>
<path d="M5.81053 17.6262H2.5V20.9258H5.81053V17.6262Z" fill="#111111"/>
<path d="M40.4986 30.7324H38.5576V32.54H40.4986V30.7324Z" fill="#111111"/>
<path d="M40.4986 28.925H38.5576V30.7326H40.4986V28.925Z" fill="#111111"/>
<path d="M40.4986 27.1162H38.5576V28.9237H40.4986V27.1162Z" fill="#111111"/>
<path d="M38.564 30.7324H36.623V32.54H38.564V30.7324Z" fill="#111111"/>
<path d="M38.564 28.925H36.623V30.7326H38.564V28.925Z" fill="#282828"/>
<path d="M38.564 27.1162H36.623V28.9237H38.564V27.1162Z" fill="#111111"/>
<path d="M36.6158 30.7324H34.6729V32.54H36.6158V30.7324Z" fill="#111111"/>
<path d="M36.6158 28.925H34.6729V30.7326H36.6158V28.925Z" fill="#282828"/>
<path d="M36.6158 27.1162H34.6729V28.9237H36.6158V27.1162Z" fill="#111111"/>
<path d="M36.6158 23.5024H34.6729V25.31H36.6158V23.5024Z" fill="#111111"/>
<path d="M36.6158 21.6929H34.6729V23.5022H36.6158V21.6929Z" fill="#111111"/>
<path d="M36.6158 19.8843H34.6729V21.6918H36.6158V19.8843Z" fill="#111111"/>
<path d="M34.6724 27.1162H32.7314V28.9237H34.6724V27.1162Z" fill="#111111"/>
<path d="M34.6724 25.3098H32.7314V27.1173H34.6724V25.3098Z" fill="#111111"/>
<path d="M34.6724 23.5024H32.7314V25.31H34.6724V23.5024Z" fill="#282828"/>
<path d="M34.6724 21.6929H32.7314V23.5022H34.6724V21.6929Z" fill="#282828"/>
<path d="M34.6724 19.8843H32.7314V21.6918H34.6724V19.8843Z" fill="#282828"/>
<path d="M34.6724 18.0764H32.7314V19.8839H34.6724V18.0764Z" fill="#111111"/>
<path d="M34.6724 16.2703H32.7314V18.0778H34.6724V16.2703Z" fill="#111111"/>
<path d="M34.6724 12.6541H32.7314V14.4616H34.6724V12.6541Z" fill="#111111"/>
<path d="M34.6724 10.8489H32.7314V12.6564H34.6724V10.8489Z" fill="#111111"/>
<path d="M34.6724 9.03857H32.7314V10.8461H34.6724V9.03857Z" fill="#111111"/>
<path d="M34.6724 7.23145H32.7314V9.03898H34.6724V7.23145Z" fill="#111111"/>
<path d="M34.6724 5.42651H32.7314V7.23404H34.6724V5.42651Z" fill="#111111"/>
<path d="M34.6724 3.61548H32.7314V5.42484H34.6724V3.61548Z" fill="#111111"/>
<path d="M34.6724 1.80811H32.7314V3.61564H34.6724V1.80811Z" fill="#111111"/>
<path d="M32.733 27.1162H30.792V28.9237H32.733V27.1162Z" fill="#111111"/>
<path d="M32.733 25.3098H30.792V27.1173H32.733V25.3098Z" fill="#282828"/>
<path d="M32.733 23.5024H30.792V25.31H32.733V23.5024Z" fill="#282828"/>
<path d="M32.733 21.6929H30.792V23.5022H32.733V21.6929Z" fill="#282828"/>
<path d="M32.733 19.8843H30.792V21.6918H32.733V19.8843Z" fill="#282828"/>
<path d="M32.733 18.0764H30.792V19.8839H32.733V18.0764Z" fill="#282828"/>
<path d="M32.733 16.2703H30.792V18.0778H32.733V16.2703Z" fill="#282828"/>
<path d="M32.733 14.4619H30.792V16.2694H32.733V14.4619Z" fill="#111111"/>
<path d="M32.733 12.6541H30.792V14.4616H32.733V12.6541Z" fill="#282828"/>
<path d="M32.733 10.8489H30.792V12.6564H32.733V10.8489Z" fill="#282828"/>
<path d="M32.733 9.03857H30.792V10.8461H32.733V9.03857Z" fill="#282828"/>
<path d="M32.733 7.23145H30.792V9.03898H32.733V7.23145Z" fill="#282828"/>
<path d="M32.733 5.42651H30.792V7.23404H32.733V5.42651Z" fill="#282828"/>
<path d="M32.733 3.61548H30.792V5.42484H32.733V3.61548Z" fill="#282828"/>
<path d="M32.733 1.80811H30.792V3.61564H32.733V1.80811Z" fill="white"/>
<path d="M32.733 0H30.792V1.80753H32.733V0Z" fill="#111111"/>
<path d="M30.7935 27.1162H28.8525V28.9237H30.7935V27.1162Z" fill="#111111"/>
<path d="M30.7935 25.3098H28.8525V27.1173H30.7935V25.3098Z" fill="#282828"/>
<path d="M30.7935 23.5024H28.8525V25.31H30.7935V23.5024Z" fill="#282828"/>
<path d="M30.7935 21.6929H28.8525V23.5022H30.7935V21.6929Z" fill="white"/>
<path d="M30.7935 19.8843H28.8525V21.6918H30.7935V19.8843Z" fill="white"/>
<path d="M30.7935 18.0764H28.8525V19.8839H30.7935V18.0764Z" fill="#282828"/>
<path d="M30.7935 16.2703H28.8525V18.0778H30.7935V16.2703Z" fill="#282828"/>
<path d="M30.7935 14.4619H28.8525V16.2694H30.7935V14.4619Z" fill="#282828"/>
<path d="M30.7935 12.6541H28.8525V14.4616H30.7935V12.6541Z" fill="#282828"/>
<path d="M30.7935 10.8489H28.8525V12.6564H30.7935V10.8489Z" fill="#282828"/>
<path d="M30.7935 9.03857H28.8525V10.8461H30.7935V9.03857Z" fill="#282828"/>
<path d="M30.7935 7.23145H28.8525V9.03898H30.7935V7.23145Z" fill="#282828"/>
<path d="M30.7935 5.42651H28.8525V7.23404H30.7935V5.42651Z" fill="#282828"/>
<path d="M30.7935 3.61548H28.8525V5.42484H30.7935V3.61548Z" fill="#282828"/>
<path d="M30.7935 1.80811H28.8525V3.61564H30.7935V1.80811Z" fill="white"/>
<path d="M30.7935 0H28.8525V1.80753H30.7935V0Z" fill="#111111"/>
<path d="M28.8492 27.1162H26.9082V28.9237H28.8492V27.1162Z" fill="#111111"/>
<path d="M28.8492 25.3098H26.9082V27.1173H28.8492V25.3098Z" fill="#282828"/>
<path d="M28.8492 23.5024H26.9082V25.31H28.8492V23.5024Z" fill="#282828"/>
<path d="M28.8492 21.6929H26.9082V23.5022H28.8492V21.6929Z" fill="#282828"/>
<path d="M28.8492 19.8843H26.9082V21.6918H28.8492V19.8843Z" fill="#282828"/>
<path d="M28.8492 18.0764H26.9082V19.8839H28.8492V18.0764Z" fill="#282828"/>
<path d="M28.8492 16.2703H26.9082V18.0778H28.8492V16.2703Z" fill="#282828"/>
<path d="M28.8492 14.4619H26.9082V16.2694H28.8492V14.4619Z" fill="#282828"/>
<path d="M28.8492 12.6541H26.9082V14.4616H28.8492V12.6541Z" fill="#282828"/>
<path d="M28.8492 10.8489H26.9082V12.6564H28.8492V10.8489Z" fill="#282828"/>
<path d="M28.8492 9.03857H26.9082V10.8461H28.8492V9.03857Z" fill="#282828"/>
<path d="M28.8492 7.23145H26.9082V9.03898H28.8492V7.23145Z" fill="#282828"/>
<path d="M28.8492 5.42651H26.9082V7.23404H28.8492V5.42651Z" fill="#282828"/>
<path d="M28.8492 3.61548H26.9082V5.42484H28.8492V3.61548Z" fill="#282828"/>
<path d="M28.8492 1.80811H26.9082V3.61564H28.8492V1.80811Z" fill="white"/>
<path d="M28.8492 0H26.9082V1.80753H28.8492V0Z" fill="#111111"/>
<path d="M26.9107 27.1162H24.9697V28.9237H26.9107V27.1162Z" fill="#111111"/>
<path d="M26.9107 25.3098H24.9697V27.1173H26.9107V25.3098Z" fill="#282828"/>
<path d="M26.9107 23.5024H24.9697V25.31H26.9107V23.5024Z" fill="#282828"/>
<path d="M26.9107 21.6929H24.9697V23.5022H26.9107V21.6929Z" fill="#282828"/>
<path d="M26.9107 19.8843H24.9697V21.6918H26.9107V19.8843Z" fill="#282828"/>
<path d="M26.9107 18.0764H24.9697V19.8839H26.9107V18.0764Z" fill="#282828"/>
<path d="M26.9107 16.2703H24.9697V18.0778H26.9107V16.2703Z" fill="#282828"/>
<path d="M26.9107 14.4619H24.9697V16.2694H26.9107V14.4619Z" fill="#282828"/>
<path d="M26.9107 12.6541H24.9697V14.4616H26.9107V12.6541Z" fill="#282828"/>
<path d="M26.9107 10.8489H24.9697V12.6564H26.9107V10.8489Z" fill="#111111"/>
<path d="M26.9107 9.03857H24.9697V10.8461H26.9107V9.03857Z" fill="#111111"/>
<path d="M26.9107 7.23145H24.9697V9.03898H26.9107V7.23145Z" fill="#111111"/>
<path d="M26.9107 5.42651H24.9697V7.23404H26.9107V5.42651Z" fill="#111111"/>
<path d="M26.9107 3.61548H24.9697V5.42484H26.9107V3.61548Z" fill="#111111"/>
<path d="M26.9107 1.80811H24.9697V3.61564H26.9107V1.80811Z" fill="#111111"/>
<path d="M24.9713 27.1162H23.0303V28.9237H24.9713V27.1162Z" fill="#111111"/>
<path d="M24.9713 25.3098H23.0303V27.1173H24.9713V25.3098Z" fill="#282828"/>
<path d="M24.9713 23.5024H23.0303V25.31H24.9713V23.5024Z" fill="#282828"/>
<path d="M24.9713 21.6929H23.0303V23.5022H24.9713V21.6929Z" fill="white"/>
<path d="M24.9713 19.8843H23.0303V21.6918H24.9713V19.8843Z" fill="#282828"/>
<path d="M24.9713 18.0764H23.0303V19.8839H24.9713V18.0764Z" fill="#282828"/>
<path d="M24.9713 16.2703H23.0303V18.0778H24.9713V16.2703Z" fill="#282828"/>
<path d="M24.9713 14.4619H23.0303V16.2694H24.9713V14.4619Z" fill="#282828"/>
<path d="M24.9713 12.6541H23.0303V14.4616H24.9713V12.6541Z" fill="#111111"/>
<path d="M23.0299 27.1162H21.0889V28.9237H23.0299V27.1162Z" fill="#111111"/>
<path d="M23.0299 25.3098H21.0889V27.1173H23.0299V25.3098Z" fill="#282828"/>
<path d="M23.0299 23.5024H21.0889V25.31H23.0299V23.5024Z" fill="#282828"/>
<path d="M23.0299 21.6929H21.0889V23.5022H23.0299V21.6929Z" fill="#282828"/>
<path d="M23.0299 19.8843H21.0889V21.6918H23.0299V19.8843Z" fill="#282828"/>
<path d="M23.0299 18.0764H21.0889V19.8839H23.0299V18.0764Z" fill="#282828"/>
<path d="M23.0299 16.2703H21.0889V18.0778H23.0299V16.2703Z" fill="#282828"/>
<path d="M23.0299 14.4619H21.0889V16.2694H23.0299V14.4619Z" fill="#282828"/>
<path d="M23.0299 12.6541H21.0889V14.4616H23.0299V12.6541Z" fill="#111111"/>
<path d="M23.0299 10.8489H21.0889V12.6564H23.0299V10.8489Z" fill="#111111"/>
<path d="M23.0299 9.03857H21.0889V10.8461H23.0299V9.03857Z" fill="#111111"/>
<path d="M23.0299 7.23145H21.0889V9.03898H23.0299V7.23145Z" fill="#111111"/>
<path d="M23.0299 5.42651H21.0889V7.23404H23.0299V5.42651Z" fill="#111111"/>
<path d="M23.0299 3.61548H21.0889V5.42484H23.0299V3.61548Z" fill="#111111"/>
<path d="M23.0299 1.80811H21.0889V3.61564H23.0299V1.80811Z" fill="#111111"/>
<path d="M21.0855 27.1162H19.1445V28.9237H21.0855V27.1162Z" fill="#111111"/>
<path d="M21.0855 25.3098H19.1445V27.1173H21.0855V25.3098Z" fill="#282828"/>
<path d="M21.0855 23.5024H19.1445V25.31H21.0855V23.5024Z" fill="#282828"/>
<path d="M21.0855 21.6929H19.1445V23.5022H21.0855V21.6929Z" fill="#282828"/>
<path d="M21.0855 19.8843H19.1445V21.6918H21.0855V19.8843Z" fill="#282828"/>
<path d="M21.0855 18.0764H19.1445V19.8839H21.0855V18.0764Z" fill="#282828"/>
<path d="M21.0855 16.2703H19.1445V18.0778H21.0855V16.2703Z" fill="#282828"/>
<path d="M21.0855 14.4619H19.1445V16.2694H21.0855V14.4619Z" fill="#282828"/>
<path d="M21.0855 12.6541H19.1445V14.4616H21.0855V12.6541Z" fill="#282828"/>
<path d="M21.0855 10.8489H19.1445V12.6564H21.0855V10.8489Z" fill="#282828"/>
<path d="M21.0855 9.03857H19.1445V10.8461H21.0855V9.03857Z" fill="#282828"/>
<path d="M21.0855 7.23145H19.1445V9.03898H21.0855V7.23145Z" fill="#282828"/>
<path d="M21.0855 5.42651H19.1445V7.23404H21.0855V5.42651Z" fill="#282828"/>
<path d="M21.0855 3.61548H19.1445V5.42484H21.0855V3.61548Z" fill="#282828"/>
<path d="M21.0855 1.80811H19.1445V3.61564H21.0855V1.80811Z" fill="white"/>
<path d="M21.0855 0H19.1445V1.80753H21.0855V0Z" fill="#111111"/>
<path d="M19.15 27.1162H17.209V28.9237H19.15V27.1162Z" fill="#111111"/>
<path d="M19.15 25.3098H17.209V27.1173H19.15V25.3098Z" fill="#282828"/>
<path d="M19.15 23.5024H17.209V25.31H19.15V23.5024Z" fill="#282828"/>
<path d="M19.15 21.6929H17.209V23.5022H19.15V21.6929Z" fill="white"/>
<path d="M19.15 19.8843H17.209V21.6918H19.15V19.8843Z" fill="white"/>
<path d="M19.15 18.0764H17.209V19.8839H19.15V18.0764Z" fill="#282828"/>
<path d="M19.15 16.2703H17.209V18.0778H19.15V16.2703Z" fill="#282828"/>
<path d="M19.15 14.4619H17.209V16.2694H19.15V14.4619Z" fill="#282828"/>
<path d="M19.15 12.6541H17.209V14.4616H19.15V12.6541Z" fill="#282828"/>
<path d="M19.15 10.8489H17.209V12.6564H19.15V10.8489Z" fill="#282828"/>
<path d="M19.15 9.03857H17.209V10.8461H19.15V9.03857Z" fill="#282828"/>
<path d="M19.15 7.23145H17.209V9.03898H19.15V7.23145Z" fill="#282828"/>
<path d="M19.15 5.42651H17.209V7.23404H19.15V5.42651Z" fill="#282828"/>
<path d="M19.15 3.61548H17.209V5.42484H19.15V3.61548Z" fill="#282828"/>
<path d="M19.15 1.80811H17.209V3.61564H19.15V1.80811Z" fill="white"/>
<path d="M19.15 0H17.209V1.80753H19.15V0Z" fill="#111111"/>
<path d="M17.2086 27.1162H15.2656V28.9237H17.2086V27.1162Z" fill="#111111"/>
<path d="M17.2086 25.3098H15.2656V27.1173H17.2086V25.3098Z" fill="#282828"/>
<path d="M17.2086 23.5024H15.2656V25.31H17.2086V23.5024Z" fill="#282828"/>
<path d="M17.2086 21.6929H15.2656V23.5022H17.2086V21.6929Z" fill="#282828"/>
<path d="M17.2086 19.8843H15.2656V21.6918H17.2086V19.8843Z" fill="#282828"/>
<path d="M17.2086 18.0764H15.2656V19.8839H17.2086V18.0764Z" fill="#282828"/>
<path d="M17.2086 16.2703H15.2656V18.0778H17.2086V16.2703Z" fill="#282828"/>
<path d="M17.2086 14.4619H15.2656V16.2694H17.2086V14.4619Z" fill="#111111"/>
<path d="M17.2086 12.6541H15.2656V14.4616H17.2086V12.6541Z" fill="#282828"/>
<path d="M17.2086 10.8489H15.2656V12.6564H17.2086V10.8489Z" fill="#282828"/>
<path d="M17.2086 9.03857H15.2656V10.8461H17.2086V9.03857Z" fill="#282828"/>
<path d="M17.2086 7.23145H15.2656V9.03898H17.2086V7.23145Z" fill="#282828"/>
<path d="M17.2086 5.42651H15.2656V7.23404H17.2086V5.42651Z" fill="#282828"/>
<path d="M17.2086 3.61548H15.2656V5.42484H17.2086V3.61548Z" fill="#282828"/>
<path d="M17.2086 1.80811H15.2656V3.61564H17.2086V1.80811Z" fill="white"/>
<path d="M17.2086 0H15.2656V1.80753H17.2086V0Z" fill="#111111"/>
<path d="M15.2652 27.1162H13.3242V28.9237H15.2652V27.1162Z" fill="#111111"/>
<path d="M15.2652 25.3098H13.3242V27.1173H15.2652V25.3098Z" fill="#111111"/>
<path d="M15.2652 23.5024H13.3242V25.31H15.2652V23.5024Z" fill="#282828"/>
<path d="M15.2652 21.6929H13.3242V23.5022H15.2652V21.6929Z" fill="#282828"/>
<path d="M15.2652 19.8843H13.3242V21.6918H15.2652V19.8843Z" fill="#282828"/>
<path d="M15.2652 18.0764H13.3242V19.8839H15.2652V18.0764Z" fill="#111111"/>
<path d="M15.2652 16.2703H13.3242V18.0778H15.2652V16.2703Z" fill="#111111"/>
<path d="M15.2652 12.6541H13.3242V14.4616H15.2652V12.6541Z" fill="#111111"/>
<path d="M15.2652 10.8489H13.3242V12.6564H15.2652V10.8489Z" fill="#111111"/>
<path d="M15.2652 9.03857H13.3242V10.8461H15.2652V9.03857Z" fill="#111111"/>
<path d="M15.2652 7.23145H13.3242V9.03898H15.2652V7.23145Z" fill="#111111"/>
<path d="M15.2652 5.42651H13.3242V7.23404H15.2652V5.42651Z" fill="#111111"/>
<path d="M15.2652 3.61548H13.3242V5.42484H15.2652V3.61548Z" fill="#111111"/>
<path d="M15.2652 1.80811H13.3242V3.61564H15.2652V1.80811Z" fill="#111111"/>
<path d="M13.3199 30.7324H11.3789V32.54H13.3199V30.7324Z" fill="#111111"/>
<path d="M13.3199 28.925H11.3789V30.7326H13.3199V28.925Z" fill="#282828"/>
<path d="M13.3199 27.1162H11.3789V28.9237H13.3199V27.1162Z" fill="#111111"/>
<path d="M13.3199 23.5024H11.3789V25.31H13.3199V23.5024Z" fill="#111111"/>
<path d="M13.3199 21.6929H11.3789V23.5022H13.3199V21.6929Z" fill="#111111"/>
<path d="M13.3199 19.8843H11.3789V21.6918H13.3199V19.8843Z" fill="#111111"/>
<path d="M11.3853 30.7324H9.44434V32.54H11.3853V30.7324Z" fill="#111111"/>
<path d="M11.3853 28.925H9.44434V30.7326H11.3853V28.925Z" fill="#282828"/>
<path d="M11.3853 27.1162H9.44434V28.9237H11.3853V27.1162Z" fill="#111111"/>
<path d="M9.44099 30.7324H7.5V32.54H9.44099V30.7324Z" fill="#111111"/>
<path d="M9.44099 28.925H7.5V30.7326H9.44099V28.925Z" fill="#111111"/>
<path d="M9.44099 27.1162H7.5V28.9237H9.44099V27.1162Z" fill="#111111"/>
</svg>
