<svg width="48" height="44" viewBox="0 0 48 44" fill="none" xmlns="http://www.w3.org/2000/svg">
<path d="M45.5005 35.334H42.1934V38.667H45.5005V35.334Z" fill="#111111"/>
<path d="M45.5005 32.001H42.1934V35.334H45.5005V32.001Z" fill="#111111"/>
<path d="M45.5005 28.668H42.1934V32.001H45.5005V28.668Z" fill="#111111"/>
<path d="M45.5005 25.335H42.1934V28.668H45.5005V25.335Z" fill="#111111"/>
<path d="M45.5005 22.002H42.1934V25.335H45.5005V22.002Z" fill="#111111"/>
<path d="M45.5005 18.6689H42.1934V22.002H45.5005V18.6689Z" fill="#111111"/>
<path d="M45.5005 15.332H42.1934V18.6685H45.5005V15.332Z" fill="#111111"/>
<path d="M42.1919 38.667H38.8848V42H42.1919V38.667Z" fill="#111111"/>
<path d="M42.1919 35.334H38.8848V38.667H42.1919V35.334Z" fill="#FFC885"/>
<path d="M42.1919 32.001H38.8848V35.334H42.1919V32.001Z" fill="white"/>
<path d="M42.1919 28.668H38.8848V32.001H42.1919V28.668Z" fill="white"/>
<path d="M42.1919 25.335H38.8848V28.668H42.1919V25.335Z" fill="white"/>
<path d="M42.1919 22.002H38.8848V25.335H42.1919V22.002Z" fill="white"/>
<path d="M42.1919 18.6689H38.8848V22.002H42.1919V18.6689Z" fill="white"/>
<path d="M42.1919 15.332H38.8848V18.6685H42.1919V15.332Z" fill="#FFC885"/>
<path d="M42.1919 11.999H38.8848V15.3321H42.1919V11.999Z" fill="#111111"/>
<path d="M38.8847 38.667H35.5742V42H38.8847V38.667Z" fill="#111111"/>
<path d="M38.8847 35.334H35.5742V38.667H38.8847V35.334Z" fill="white"/>
<path d="M38.8847 32.001H35.5742V35.334H38.8847V32.001Z" fill="#FFC885"/>
<path d="M38.8847 28.668H35.5742V32.001H38.8847V28.668Z" fill="white"/>
<path d="M38.8847 25.335H35.5742V28.668H38.8847V25.335Z" fill="white"/>
<path d="M38.8847 22.002H35.5742V25.335H38.8847V22.002Z" fill="white"/>
<path d="M38.8847 18.6689H35.5742V22.002H38.8847V18.6689Z" fill="#FFC885"/>
<path d="M38.8847 15.332H35.5742V18.6685H38.8847V15.332Z" fill="#FFC885"/>
<path d="M38.8847 11.999H35.5742V15.3321H38.8847V11.999Z" fill="#FFC885"/>
<path d="M38.8847 8.66602H35.5742V11.9991H38.8847V8.66602Z" fill="#111111"/>
<path d="M35.5748 38.667H32.2676V42H35.5748V38.667Z" fill="#111111"/>
<path d="M35.5748 35.334H32.2676V38.667H35.5748V35.334Z" fill="white"/>
<path d="M35.5748 32.001H32.2676V35.334H35.5748V32.001Z" fill="white"/>
<path d="M35.5748 28.668H32.2676V32.001H35.5748V28.668Z" fill="#FFC885"/>
<path d="M35.5748 25.335H32.2676V28.668H35.5748V25.335Z" fill="white"/>
<path d="M35.5748 22.002H32.2676V25.335H35.5748V22.002Z" fill="#FFC885"/>
<path d="M35.5748 18.6689H32.2676V22.002H35.5748V18.6689Z" fill="#FFC885"/>
<path d="M35.5748 15.332H32.2676V18.6685H35.5748V15.332Z" fill="#FFC885"/>
<path d="M35.5748 11.999H32.2676V15.3321H35.5748V11.999Z" fill="#FFC885"/>
<path d="M35.5748 8.66602H32.2676V11.9991H35.5748V8.66602Z" fill="#FFC885"/>
<path d="M35.5748 5.33301H32.2676V8.66606H35.5748V5.33301Z" fill="#111111"/>
<path d="M32.2681 38.667H28.9609V42H32.2681V38.667Z" fill="#111111"/>
<path d="M32.2681 35.334H28.9609V38.667H32.2681V35.334Z" fill="white"/>
<path d="M32.2681 32.001H28.9609V35.334H32.2681V32.001Z" fill="white"/>
<path d="M32.2681 28.668H28.9609V32.001H32.2681V28.668Z" fill="white"/>
<path d="M32.2681 25.335H28.9609V28.668H32.2681V25.335Z" fill="white"/>
<path d="M32.2681 22.002H28.9609V25.335H32.2681V22.002Z" fill="#FFC885"/>
<path d="M32.2681 18.6689H28.9609V22.002H32.2681V18.6689Z" fill="#FFC885"/>
<path d="M32.2681 15.332H28.9609V18.6685H32.2681V15.332Z" fill="#FFC885"/>
<path d="M32.2681 11.999H28.9609V15.3321H32.2681V11.999Z" fill="#FFC885"/>
<path d="M32.2681 8.66602H28.9609V11.9991H32.2681V8.66602Z" fill="#FFC885"/>
<path d="M32.2681 5.33301H28.9609V8.66606H32.2681V5.33301Z" fill="#FFC885"/>
<path d="M32.2681 2H28.9609V5.33305H32.2681V2Z" fill="#111111"/>
<path d="M28.9615 38.667H25.6543V42H28.9615V38.667Z" fill="#111111"/>
<path d="M28.9615 35.334H25.6543V38.667H28.9615V35.334Z" fill="white"/>
<path d="M28.9615 32.001H25.6543V35.334H28.9615V32.001Z" fill="white"/>
<path d="M28.9615 28.668H25.6543V32.001H28.9615V28.668Z" fill="white"/>
<path d="M28.9615 25.335H25.6543V28.668H28.9615V25.335Z" fill="white"/>
<path d="M28.9615 22.002H25.6543V25.335H28.9615V22.002Z" fill="#FFC885"/>
<path d="M28.9615 18.6689H25.6543V22.002H28.9615V18.6689Z" fill="#FFC885"/>
<path d="M28.9615 15.332H25.6543V18.6685H28.9615V15.332Z" fill="#FFC885"/>
<path d="M28.9615 11.999H25.6543V15.3321H28.9615V11.999Z" fill="#FFC885"/>
<path d="M28.9615 8.66602H25.6543V11.9991H28.9615V8.66602Z" fill="#FFC885"/>
<path d="M28.9615 5.33301H25.6543V8.66606H28.9615V5.33301Z" fill="#FFC885"/>
<path d="M28.9615 2H25.6543V5.33305H28.9615V2Z" fill="#111111"/>
<path d="M25.6529 38.667H22.3457V42H25.6529V38.667Z" fill="#111111"/>
<path d="M25.6529 35.334H22.3457V38.667H25.6529V35.334Z" fill="white"/>
<path d="M25.6529 32.001H22.3457V35.334H25.6529V32.001Z" fill="white"/>
<path d="M25.6529 28.668H22.3457V32.001H25.6529V28.668Z" fill="white"/>
<path d="M25.6529 25.335H22.3457V28.668H25.6529V25.335Z" fill="white"/>
<path d="M25.6529 22.002H22.3457V25.335H25.6529V22.002Z" fill="#FFC885"/>
<path d="M25.6529 18.6689H22.3457V22.002H25.6529V18.6689Z" fill="#FFC885"/>
<path d="M25.6529 15.332H22.3457V18.6685H25.6529V15.332Z" fill="#FFC885"/>
<path d="M25.6529 11.999H22.3457V15.3321H25.6529V11.999Z" fill="#FFC885"/>
<path d="M25.6529 8.66602H22.3457V11.9991H25.6529V8.66602Z" fill="#FFC885"/>
<path d="M25.6529 5.33301H22.3457V8.66606H25.6529V5.33301Z" fill="#FFC885"/>
<path d="M25.6529 2H22.3457V5.33305H25.6529V2Z" fill="#111111"/>
<path d="M22.3462 38.667H19.0391V42H22.3462V38.667Z" fill="#111111"/>
<path d="M22.3462 35.334H19.0391V38.667H22.3462V35.334Z" fill="white"/>
<path d="M22.3462 32.001H19.0391V35.334H22.3462V32.001Z" fill="white"/>
<path d="M22.3462 28.668H19.0391V32.001H22.3462V28.668Z" fill="white"/>
<path d="M22.3462 25.335H19.0391V28.668H22.3462V25.335Z" fill="white"/>
<path d="M22.3462 22.002H19.0391V25.335H22.3462V22.002Z" fill="#FFC885"/>
<path d="M22.3462 18.6689H19.0391V22.002H22.3462V18.6689Z" fill="#FFC885"/>
<path d="M22.3462 15.332H19.0391V18.6685H22.3462V15.332Z" fill="#FFC885"/>
<path d="M22.3462 11.999H19.0391V15.3321H22.3462V11.999Z" fill="#FFC885"/>
<path d="M22.3462 8.66602H19.0391V11.9991H22.3462V8.66602Z" fill="#FFC885"/>
<path d="M22.3462 5.33301H19.0391V8.66606H22.3462V5.33301Z" fill="#FFC885"/>
<path d="M22.3462 2H19.0391V5.33305H22.3462V2Z" fill="#111111"/>
<path d="M19.0396 38.667H15.7324V42H19.0396V38.667Z" fill="#111111"/>
<path d="M19.0396 35.334H15.7324V38.667H19.0396V35.334Z" fill="white"/>
<path d="M19.0396 32.001H15.7324V35.334H19.0396V32.001Z" fill="white"/>
<path d="M19.0396 28.668H15.7324V32.001H19.0396V28.668Z" fill="white"/>
<path d="M19.0396 25.335H15.7324V28.668H19.0396V25.335Z" fill="white"/>
<path d="M19.0396 22.002H15.7324V25.335H19.0396V22.002Z" fill="#FFC885"/>
<path d="M19.0396 18.6689H15.7324V22.002H19.0396V18.6689Z" fill="#FFC885"/>
<path d="M19.0396 15.332H15.7324V18.6685H19.0396V15.332Z" fill="#FFC885"/>
<path d="M19.0396 11.999H15.7324V15.3321H19.0396V11.999Z" fill="#FFC885"/>
<path d="M19.0396 8.66602H15.7324V11.9991H19.0396V8.66602Z" fill="#FFC885"/>
<path d="M19.0396 5.33301H15.7324V8.66606H19.0396V5.33301Z" fill="#FFC885"/>
<path d="M19.0396 2H15.7324V5.33305H19.0396V2Z" fill="#111111"/>
<path d="M15.733 38.667H12.4258V42H15.733V38.667Z" fill="#111111"/>
<path d="M15.733 35.334H12.4258V38.667H15.733V35.334Z" fill="white"/>
<path d="M15.733 32.001H12.4258V35.334H15.733V32.001Z" fill="white"/>
<path d="M15.733 28.668H12.4258V32.001H15.733V28.668Z" fill="#FFC885"/>
<path d="M15.733 22.002H12.4258V25.335H15.733V22.002Z" fill="#FFC885"/>
<path d="M15.733 18.6689H12.4258V22.002H15.733V18.6689Z" fill="#FFC885"/>
<path d="M15.733 15.332H12.4258V18.6685H15.733V15.332Z" fill="#FFC885"/>
<path d="M15.733 11.999H12.4258V15.3321H15.733V11.999Z" fill="#FFC885"/>
<path d="M15.733 8.66602H12.4258V11.9991H15.733V8.66602Z" fill="#FFC885"/>
<path d="M15.733 5.33301H12.4258V8.66606H15.733V5.33301Z" fill="#111111"/>
<path d="M12.4244 38.667H9.11719V42H12.4244V38.667Z" fill="#111111"/>
<path d="M12.4244 35.334H9.11719V38.667H12.4244V35.334Z" fill="white"/>
<path d="M12.4244 32.001H9.11719V35.334H12.4244V32.001Z" fill="#FFC885"/>
<path d="M12.4244 28.668H9.11719V32.001H12.4244V28.668Z" fill="white"/>
<path d="M12.4244 25.335H9.11719V28.668H12.4244V25.335Z" fill="white"/>
<path d="M12.4244 22.002H9.11719V25.335H12.4244V22.002Z" fill="white"/>
<path d="M12.4244 18.6689H9.11719V22.002H12.4244V18.6689Z" fill="#FFC885"/>
<path d="M12.4244 15.332H9.11719V18.6685H12.4244V15.332Z" fill="#FFC885"/>
<path d="M12.4244 11.999H9.11719V15.3321H12.4244V11.999Z" fill="#FFC885"/>
<path d="M12.4244 8.66602H9.11719V11.9991H12.4244V8.66602Z" fill="#111111"/>
<path d="M9.11772 38.667H5.81055V42H9.11772V38.667Z" fill="#111111"/>
<path d="M9.11772 35.334H5.81055V38.667H9.11772V35.334Z" fill="#FFC885"/>
<path d="M9.11772 32.001H5.81055V35.334H9.11772V32.001Z" fill="white"/>
<path d="M9.11772 28.668H5.81055V32.001H9.11772V28.668Z" fill="white"/>
<path d="M9.11772 25.335H5.81055V28.668H9.11772V25.335Z" fill="white"/>
<path d="M9.11772 22.002H5.81055V25.335H9.11772V22.002Z" fill="white"/>
<path d="M9.11772 18.6689H5.81055V22.002H9.11772V18.6689Z" fill="white"/>
<path d="M9.11772 15.332H5.81055V18.6685H9.11772V15.332Z" fill="#FFC885"/>
<path d="M9.11772 11.999H5.81055V15.3321H9.11772V11.999Z" fill="#111111"/>
<path d="M5.81052 35.334H2.5V38.667H5.81052V35.334Z" fill="#111111"/>
<path d="M5.81052 32.001H2.5V35.334H5.81052V32.001Z" fill="#111111"/>
<path d="M5.81052 28.668H2.5V32.001H5.81052V28.668Z" fill="#111111"/>
<path d="M5.81052 25.335H2.5V28.668H5.81052V25.335Z" fill="#111111"/>
<path d="M5.81052 22.002H2.5V25.335H5.81052V22.002Z" fill="#111111"/>
<path d="M5.81052 18.6689H2.5V22.002H5.81052V18.6689Z" fill="#111111"/>
<path d="M5.81052 15.332H2.5V18.6685H5.81052V15.332Z" fill="#111111"/>
<rect x="12.4297" y="2" width="23.15" height="24" fill="#62D47C"/>
<path d="M30.0085 16.4548H27.4648V19.1397H30.0085V16.4548Z" fill="white"/>
<path d="M30.0085 13.7698H27.4648V16.4546H30.0085V13.7698Z" fill="white"/>
<path d="M30.0085 11.0845H27.4648V13.7693H30.0085V11.0845Z" fill="white"/>
<path d="M30.0085 8.39941H27.4648V11.0843H30.0085V8.39941Z" fill="white"/>
<path d="M27.4636 16.4548H24.9199V19.1397H27.4636V16.4548Z" fill="white"/>
<path d="M27.4636 13.7698H24.9199V16.4546H27.4636V13.7698Z" fill="white"/>
<path d="M24.9206 13.7698H22.377V16.4546H24.9206V13.7698Z" fill="white"/>
<path d="M24.9206 11.0845H22.377V13.7693H24.9206V11.0845Z" fill="white"/>
<path d="M22.3763 11.0845H19.8301V13.7693H22.3763V11.0845Z" fill="white"/>
<path d="M22.3763 8.39941H19.8301V11.0843H22.3763V8.39941Z" fill="white"/>
<path d="M20.0516 16.3784H16.457V19.3992H20.0516V16.3784Z" fill="white"/>
<path d="M31.5555 16.4539H27.9609V19.1424H31.5555V16.4539Z" fill="white"/>
<path d="M20.0516 14.1121H16.457V16.3777H20.0516V14.1121Z" fill="white"/>
<path d="M31.5555 13.939H27.9609V16.9598H31.5555V13.939Z" fill="white"/>
<path d="M20.0516 11.0918H16.457V14.1126H20.0516V11.0918Z" fill="white"/>
<path d="M31.5555 11.0918H27.9609V14.1126H31.5555V11.0918Z" fill="white"/>
<path d="M20.0516 8.40356H16.457V11.0921H20.0516V8.40356Z" fill="white"/>
<path d="M31.5555 8.40356H27.9609V11.0921H31.5555V8.40356Z" fill="white"/>
<path d="M35.5 25H12.5V29H35.5V25Z" fill="white"/>
</svg>
